<?xml version="1.0" encoding="UTF-8" standalone="no"?>
<!-- Created with Inkscape (http://www.inkscape.org/) -->
<!-- modified from Inkscape version -->
<svg
   width="1920"
   height="1920"
   viewBox="0 0 507.99999 508"
   version="1.1"
   id="svg5"
   zoomAndPan="disable"
   preserveAspectRatio="none"
   xmlns:inkscape="http://www.inkscape.org/namespaces/inkscape"
   xmlns:sodipodi="http://sodipodi.sourceforge.net/DTD/sodipodi-0.dtd"
   xmlns="http://www.w3.org/2000/svg"
   xmlns:svg="http://www.w3.org/2000/svg">
   
   <style type="text/css">
        <![CDATA[
            path {
                stroke: rgba(255, 255, 255, 0.05);
                fill: none;
            }
        ]]>
   </style>
   
  <g
     id="layer1">
    <path
       id="path1019"
       style="stroke-width: 1px;" />
       d="m 254,254 c 22.28755,-1.11587 12.50006,29.49264 1.85465,37.04337 -28.84841,20.46201 -65.36885,-5.09113 -75.94139,-33.33407 -18.91179,-50.52 20.08985,-102.00031 68.5228,-114.8394 71.0773,-18.84189 139.27376,35.13168 153.73741,103.71151 19.27778,91.40612 -50.16781,176.79412 -138.90023,192.63543 C 151.61254,459.15151 48.836434,374.02074 31.73979,265.12789 31.159473,261.4317 30.672902,257.7208 30.280197,254" />
    <path
       id="path1023"
       style="stroke-width: 1.5px;" />
       d="m 254,254 c -22.21281,0.33208 -11.40666,-29.77859 -0.55194,-36.91915 29.4156,-19.35049 64.85764,7.3473 74.39024,35.81527 17.05158,50.92252 -23.54836,100.77861 -72.18248,111.86133 C 184.2833,381.02178 118.31904,324.9427 106.3234,256.20776 90.335111,164.5949 162.40748,82.066952 251.2403,69.404254 363.02733,53.46954 462.3071,141.75412 475.5149,250.68836 c 0.13372,1.10291 0.2591,2.20683 0.37614,3.31163" />
  </g>
</svg>
