<?xml version="1.0" standalone="no"?>
<!DOCTYPE svg PUBLIC "-//W3C//DTD SVG 20010904//EN"
 "http://www.w3.org/TR/2001/REC-SVG-20010904/DTD/svg10.dtd">
<svg version="1.0" xmlns="http://www.w3.org/2000/svg"
 width="700.000000pt" height="700.000000pt" viewBox="0 0 700.000000 700.000000"
 preserveAspectRatio="xMidYMid meet">
<metadata>
Created by potrace 1.14, written by Peter Selinger 2001-2017
</metadata>
<g transform="translate(0.000000,700.000000) scale(0.100000,-0.100000)"
fill="#000000" stroke="none">
<path d="M3308 6995 c-2 -1 -45 -6 -96 -9 -51 -4 -102 -9 -112 -11 -10 -2 -43
-6 -73 -9 -29 -4 -89 -13 -132 -21 -43 -9 -92 -18 -109 -21 -56 -9 -289 -72
-386 -104 -280 -93 -594 -245 -830 -403 -73 -49 -254 -181 -276 -202 -6 -5
-41 -35 -78 -65 -99 -82 -339 -330 -438 -453 -263 -329 -473 -715 -599 -1101
-51 -156 -110 -392 -124 -491 -2 -16 -7 -48 -10 -70 -3 -22 -10 -67 -15 -100
-35 -230 -32 -664 5 -913 3 -17 7 -49 10 -70 19 -130 94 -434 136 -553 16 -46
31 -91 33 -100 11 -43 104 -257 163 -373 275 -541 683 -1004 1168 -1326 44
-29 92 -61 107 -71 84 -58 342 -191 508 -262 230 -98 621 -205 850 -233 30 -3
66 -8 80 -10 83 -12 242 -19 430 -19 222 1 317 7 478 31 20 3 51 7 67 9 17 3
41 7 55 10 14 2 39 7 55 10 105 20 307 73 425 111 88 29 215 77 225 86 5 4 15
8 22 8 7 0 73 29 146 64 876 417 1523 1148 1831 2071 49 144 110 393 131 530
9 61 18 121 21 135 26 164 26 758 -1 860 -2 8 -7 35 -9 60 -46 401 -231 923
-463 1308 -191 318 -459 635 -723 856 -47 39 -87 73 -90 76 -3 3 -32 26 -65
51 -240 182 -539 353 -809 461 -193 77 -504 170 -646 193 -19 3 -46 7 -60 10
-14 3 -40 7 -57 10 -18 3 -45 7 -60 10 -16 2 -57 7 -93 10 -36 3 -83 8 -105
11 -40 6 -482 14 -487 9z m797 -699 c28 -3 64 -8 80 -10 17 -3 50 -8 75 -11
25 -4 77 -13 115 -22 39 -8 81 -17 95 -19 77 -15 306 -90 428 -140 182 -75
422 -208 580 -321 233 -166 485 -405 652 -619 305 -390 514 -831 615 -1299 13
-60 26 -126 29 -145 24 -168 25 -180 16 -185 -4 -3 -32 -7 -61 -9 -50 -5 -107
-11 -211 -21 -24 -3 -65 -7 -93 -11 -85 -11 -105 -11 -106 0 0 6 -2 18 -3 26
-2 8 -6 38 -10 65 -30 233 -121 530 -236 770 -255 533 -686 973 -1204 1230
-358 177 -691 255 -1070 249 -77 -1 -163 -4 -191 -8 -27 -3 -72 -9 -100 -12
-138 -15 -381 -82 -540 -149 -390 -164 -760 -476 -989 -833 -65 -102 -168
-319 -205 -432 -63 -190 -84 -324 -87 -540 -3 -291 38 -503 139 -720 17 -36
31 -67 32 -70 4 -16 54 -105 94 -165 369 -567 993 -833 1576 -672 72 20 182
66 238 99 26 15 50 28 53 28 3 0 40 26 82 57 215 159 367 383 417 618 19 87
16 255 -6 345 -55 219 -234 418 -426 473 -83 23 -193 8 -247 -34 -27 -21 -66
-94 -66 -126 -1 -16 -2 -16 -12 2 -31 54 -58 59 -58 11 l0 -33 63 -7 c295 -32
377 -372 164 -686 -38 -55 -76 -91 -142 -134 -50 -32 -175 -90 -175 -80 0 2
-8 1 -17 -5 -10 -5 -39 -12 -66 -15 -55 -8 -53 -10 -62 89 -3 39 -9 104 -13
146 l-8 76 64 16 c94 25 145 65 181 141 31 64 44 127 26 123 -5 -1 -10 -15
-10 -31 0 -41 -27 -47 -114 -25 -260 66 -367 298 -273 594 32 103 118 238 192
302 82 71 209 131 337 157 57 12 251 14 293 3 8 -2 29 -7 45 -12 357 -91 670
-405 780 -780 18 -64 19 -66 30 -135 4 -25 9 -54 12 -65 6 -28 5 -264 -1 -300
-3 -16 -8 -50 -12 -75 -19 -128 -95 -331 -172 -460 -200 -334 -523 -594 -889
-716 -119 -40 -108 -37 -263 -65 -121 -21 -355 -29 -480 -16 -277 29 -575 138
-821 299 -251 164 -483 403 -648 666 -144 231 -271 571 -296 797 -4 33 -9 62
-10 65 -7 12 -18 195 -18 295 0 105 10 268 19 310 3 11 7 38 10 60 11 81 58
263 96 375 184 531 553 991 1058 1319 118 77 383 209 512 255 94 34 286 91
338 101 171 33 229 42 335 51 44 3 82 8 84 10 6 5 400 -3 456 -10z m-160
-1060 c103 -5 264 -31 278 -45 6 -7 -56 -280 -68 -301 -2 -3 -48 2 -102 11
-98 17 -377 20 -448 5 -111 -24 -198 -47 -243 -65 l-53 -21 -20 48 c-69 161
-100 245 -93 251 11 10 112 46 174 62 25 7 50 14 55 15 66 18 191 36 280 41
61 3 112 7 113 9 2 1 9 1 15 -1 7 -2 57 -6 112 -9z m872 -302 c105 -70 197
-145 297 -242 92 -90 236 -260 236 -278 0 -7 -10 -20 -22 -29 -133 -96 -219
-155 -227 -155 -5 0 -35 32 -66 71 -151 186 -330 336 -533 446 l-70 39 67 146
66 147 85 -45 c47 -25 122 -70 167 -100z m-1847 -129 c44 -62 80 -117 80 -123
0 -5 -17 -22 -37 -38 -72 -54 -203 -196 -257 -277 -70 -107 -97 -162 -136
-278 l-31 -95 -146 33 c-81 18 -150 36 -155 41 -7 7 32 160 51 200 5 10 23 49
40 87 88 190 235 376 416 526 52 44 73 55 82 47 8 -6 49 -61 93 -123z m2588
-742 c11 -21 35 -81 55 -133 89 -236 130 -459 131 -715 l1 -120 -70 2 c-176 4
-224 6 -235 13 -7 4 -13 46 -15 109 -3 97 -12 201 -21 246 -2 11 -9 47 -15 80
-15 85 -72 269 -109 349 -17 38 -29 70 -28 71 11 10 266 134 275 134 7 1 21
-16 31 -36z m-2984 -341 c3 -5 12 -43 21 -85 15 -74 26 -105 67 -196 48 -105
165 -232 280 -304 54 -34 66 -46 62 -61 -17 -53 -125 -266 -135 -266 -14 0
-120 63 -174 104 -77 58 -204 192 -258 274 -78 116 -146 287 -162 406 -3 23
-8 53 -11 68 -5 26 -4 27 53 33 32 4 69 8 83 10 14 2 52 7 85 11 33 3 62 8 64
10 7 7 20 4 25 -4z m-1968 -387 c32 -187 110 -455 178 -609 14 -32 26 -64 26
-72 0 -7 -26 -25 -57 -40 -211 -100 -218 -102 -229 -91 -18 20 -141 342 -159
417 -2 8 -12 49 -24 90 -21 77 -58 258 -65 320 -2 19 -7 56 -11 82 -8 54 -9
53 100 63 162 14 200 18 205 22 3 3 9 -17 13 -44 4 -26 15 -88 23 -138z m4974
-561 c69 -14 126 -26 126 -27 1 -1 -11 -51 -27 -112 -16 -60 -31 -119 -34
-130 -4 -18 -47 -132 -78 -210 -48 -119 -243 -459 -274 -478 -5 -3 -65 37
-135 89 l-128 93 59 88 c131 197 229 419 287 655 l16 68 32 -6 c17 -3 87 -16
156 -30z m-4552 -498 c126 -193 360 -460 501 -573 l24 -19 -102 -122 c-83 -99
-105 -120 -119 -113 -25 14 -269 256 -338 336 -121 140 -311 411 -298 424 14
14 250 160 260 160 5 1 38 -41 72 -93z m3925 -619 l116 -114 -86 -79 c-47 -43
-91 -84 -97 -89 -18 -16 -70 -58 -106 -85 -18 -14 -39 -31 -46 -37 -7 -7 -17
-13 -22 -13 -6 0 -12 -4 -14 -9 -6 -16 -212 -142 -341 -207 l-128 -65 -14 33
c-7 18 -36 84 -64 147 -28 63 -50 115 -48 116 1 1 60 32 132 69 202 105 373
226 525 373 41 40 75 73 76 73 1 0 53 -51 117 -113z m-3091 -201 c81 -51 243
-137 340 -180 88 -39 309 -116 377 -131 40 -9 42 -13 30 -66 -6 -24 -13 -55
-15 -69 -7 -35 -45 -184 -48 -188 -9 -8 -279 80 -416 135 -162 66 -485 240
-505 272 -6 10 162 261 175 261 5 0 33 -15 62 -34z m1996 -448 c24 -79 43
-148 42 -155 0 -6 -21 -16 -47 -22 -27 -6 -57 -13 -68 -16 -35 -8 -119 -24
-155 -30 -19 -3 -46 -7 -60 -10 -104 -19 -224 -27 -400 -27 -157 1 -269 7
-278 17 -4 4 15 224 24 265 1 8 3 22 3 30 1 13 33 15 228 13 238 -1 383 13
563 57 41 10 82 18 90 19 11 1 27 -37 58 -141z"/>
</g>
</svg>
