<?xml version="1.0" encoding="UTF-8" standalone="no"?>
<svg
   width="1523px"
   height="1259px"
   viewBox="0 0 1523 1259"
   version="1.1"
   id="svg854"
   sodipodi:docname="ads.svg"
   inkscape:version="1.2.2 (b0a8486541, 2022-12-01)"
   xmlns:inkscape="http://www.inkscape.org/namespaces/inkscape"
   xmlns:sodipodi="http://sodipodi.sourceforge.net/DTD/sodipodi-0.dtd"
   xmlns="http://www.w3.org/2000/svg"
   xmlns:svg="http://www.w3.org/2000/svg">
  <sodipodi:namedview
     id="namedview856"
     pagecolor="#ffffff"
     bordercolor="#999999"
     borderopacity="1"
     inkscape:showpageshadow="0"
     inkscape:pageopacity="0"
     inkscape:pagecheckerboard="0"
     inkscape:deskcolor="#d1d1d1"
     showgrid="false"
     inkscape:zoom="0.59888801"
     inkscape:cx="761.41114"
     inkscape:cy="633.6744"
     inkscape:window-width="2560"
     inkscape:window-height="1403"
     inkscape:window-x="1920"
     inkscape:window-y="0"
     inkscape:window-maximized="1"
     inkscape:current-layer="svg854" />
  <!-- Generator: Sketch 3.5.1 (25234) - http://www.bohemiancoding.com/sketch -->
  <title
     id="title801">bbb_logo</title>
  <desc
     id="desc803">Created with Sketch.</desc>
  <defs
     id="defs820">
    <linearGradient
       x1="100%"
       y1="80.4645116%"
       x2="0%"
       y2="21.0140628%"
       id="linearGradient-1">
      <stop
         stop-color="#409FFF"
         offset="0%"
         id="stop805" />
      <stop
         stop-color="#2157CF"
         offset="100%"
         id="stop807" />
    </linearGradient>
    <linearGradient
       x1="100%"
       y1="80.4645116%"
       x2="0%"
       y2="21.0140628%"
       id="linearGradient-2">
      <stop
         stop-color="#001CFF"
         stop-opacity="0"
         offset="0%"
         id="stop810" />
      <stop
         stop-color="#5AEAFF"
         stop-opacity="0.201341712"
         offset="100%"
         id="stop812" />
    </linearGradient>
    <radialGradient
       cx="33.2232386%"
       cy="23.353294%"
       fx="33.2232386%"
       fy="23.353294%"
       r="100%"
       id="radialGradient-3">
      <stop
         stop-color="#FFFFFF"
         offset="0%"
         id="stop815" />
      <stop
         stop-color="#FFFFFF"
         offset="100%"
         id="stop817" />
    </radialGradient>
  </defs>
  <path
     style="fill:#ffffff;stroke-width:0.999999"
     d="m 159.58391,1257.5324 c -69.224923,-6.6318 -128.156793,-53.3767 -150.0233928,-118.999 -6.86737,-20.6092 -8.05055,-28.6924 -8.05055,-55 0,-26.2987 1.17944,-34.3623 8.04461,-55 10.8956598,-32.75391 32.8673798,-63.58408 59.8185098,-83.93593 4.99151,-3.76932 63.300483,-40.6989 129.575483,-82.06575 66.275,-41.36689 121.01985,-75.72681 121.65523,-76.35542 0.8726,-0.86328 0.20164,-4.81262 -2.74257,-16.14289 -7.66072,-29.48096 -13.77149,-65.57817 -17.09793,-100.99997 -2.01264,-21.43174 -1.70697,-83.48686 0.51967,-105.5 7.83997,-77.50802 26.39076,-144.04963 58.86255,-211.1398 l 9.02169,-18.63979 -7.20589,-10.86021 c -8.22586,-12.39741 -18.39001,-32.66089 -23.00347,-45.86021 -4.08036,-11.6741 -8.42906,-29.52734 -10.10859,-41.5 -1.90541,-13.58282 -1.6891,-43.91749 0.41002,-57.49999 14.06364,-90.999927 83.60335,-160.822522 174.1893,-174.8978991 40.87919,-6.3518665 84.17579,0.3355465 121.99999,18.8436061 14.55,7.119587 30.3621,17.282628 41.2745,26.528752 l 7.2746,6.16373 12.7254,-4.999871 c 102.431,-40.2454013 216.9167,-52.2487425 324.72553,-34.046099 110.6127,18.676048 213.0096,66.607994 298,139.493661 30.2256,25.92075 63.9794,61.77023 87.8498,93.30419 70.5326,93.17688 111.2276,198.23726 122.8323,317.10991 2.0392,20.88831 1.7156,92.02148 -0.5117,112.50002 -10.3089,94.78193 -37.7514,177.64819 -84.8711,256.27922 -88.9953,148.51094 -239.3698,253.32424 -409.7993,285.63604 -35.39083,6.7098 -63.64533,9.5261 -103.00003,10.2667 -66.1485,1.2448 -122.3119,-6.3564 -186.8245,-25.2849 -32.1353,-9.4287 -61.022,-20.8382 -94.6755,-37.3942 -44.735,-22.0077 -82.41412,-46.2913 -119.94135,-77.3005 l -10.94136,-9.041 -3.55865,1.9827 c -1.95723,1.0904 -57.10862,35.4638 -122.55863,76.3852 -65.45001,40.9214 -124.12454,77.0018 -130.38785,80.1786 -27.53134,13.9644 -62.98548,20.7122 -93.47682,17.7911 z m 18.36466,-97.7169 c 10.28056,-2.4268 16.95205,-5.9523 41.5,-21.9306 12.65,-8.2339 75.2,-47.5472 139,-87.3629 112.27611,-70.06823 116.27353,-72.66665 124.51981,-80.94038 6.67438,-6.69664 9.43903,-10.38932 12.76373,-17.0482 5.66377,-11.34357 8.21223,-21.84049 8.2328,-33.90996 l 0.0151,-9.59002 29.66291,-18.50003 c 16.31459,-10.17498 31.32245,-19.50237 33.35085,-20.72746 l 3.68799,-2.2275 11.31322,14.2275 c 12.74939,16.03351 45.13389,48.96094 60.15069,61.15907 61.0376,49.58075 130.6432,80.36588 206.8604,91.49008 23.3593,3.4094 41.5037,4.3891 69.896,3.7738 54.011,-1.1704 102.74363,-11.4133 151.41633,-31.8257 100.7881,-42.2686 180.7515,-121.63951 223.7065,-222.04893 32.4933,-75.95475 41.712,-160.5148 26.3632,-241.82083 -24.0335,-127.31054 -105.6599,-236.51067 -220.4407,-294.90672 -45.7278,-23.26451 -87.2711,-36.09612 -140.28843,-43.33124 -14.124,-1.92745 -20.6543,-2.21215 -50.7116,-2.2109 -30.3651,0.001 -36.5375,0.27648 -51.5,2.296 -38.4657,5.19187 -77.2433,15.40566 -108.5862,28.60096 l -8.5861,3.61475 -2.7068,13.08197 c -8.3228,40.22453 -27.5331,75.82996 -56.5896,104.88648 -35.4752,35.4752 -79.3151,55.67149 -131.34419,60.50803 l -6.81287,0.63331 -9.35372,19.16368 c -10.04678,20.58355 -15.91548,34.84125 -22.50051,54.66367 -8.79682,26.48039 -16.16262,61.66696 -19.15427,91.49998 -1.6636,16.58937 -1.69085,61.24524 -0.0472,77.50001 4.76968,47.17345 16.84267,92.69665 35.5195,133.93224 3.09699,6.83774 5.38867,12.6745 5.09258,12.97055 -0.29594,0.29594 -16.11742,10.27831 -35.15853,22.18276 l -34.62021,21.64438 -5.0759,-2.32264 c -9.52755,-4.35968 -17.27195,-5.8696 -30.07586,-5.86393 -13.1518,0.008 -21.56756,1.93496 -32.46478,7.44196 -3.04442,1.5385 -66.96028,42.633 -142.03528,91.32114 -150.85683,97.83462 -147.66695,95.56092 -156.698963,111.69352 -11.39399,20.3515 -12.71573,45.8966 -3.43393,66.3672 14.986213,33.0514 49.887533,50.235 85.132893,41.9149 z m 788,-17.7232 c 63.16783,-7.1559 118.18423,-23.0006 173.56983,-49.9883 33.3878,-16.2688 59.8211,-32.3384 87.2871,-53.0645 22.3628,-16.875 32.5224,-25.7857 55.2468,-48.45485 21.7462,-21.69328 35.3819,-37.25587 50.4254,-57.55121 101.6839,-137.18245 130.8683,-314.8486 78.2724,-476.50001 C 1352.7916,278.40024 1204.3665,144.34962 1021.6092,105.07968 984.54107,97.114674 960.71037,94.479068 919.76027,93.815491 c -41.529,-0.672957 -64.4216,0.984361 -100.8117,7.298299 -24.6619,4.279 -63.5049,14.39856 -82.3919,21.46509 l -5.3802,2.01298 1.7608,5.72078 c 0.9685,3.14645 2.578,9.2235 3.5769,13.50457 1.4583,6.25048 2.1232,7.66252 3.3752,7.16821 7.6404,-3.01629 33.7068,-10.99463 46.6013,-14.26355 42.9687,-10.89319 78.4138,-15.36052 122.4579,-15.43405 29.0556,-0.0485 45.4315,1.05165 72,4.83704 52.78453,7.52052 100.38633,22.27788 149.50003,46.34755 52.3993,25.67987 97.0269,58.00475 137.087,99.29553 104.2105,107.41201 154.965,256.07119 137.8516,403.76549 -10.1257,87.38778 -44.0154,172.59266 -96.4527,242.50001 -27.3591,36.47395 -63.8784,72.84366 -100.4397,100.02816 -121.2748,90.1717 -273.45653,120.378 -420.54623,83.4736 -60.3697,-15.1466 -118.6101,-42.4654 -171.588,-80.4864 l -5.0879,-3.6515 -12.2099,7.6864 c -11.6061,7.3064 -12.12828,7.7767 -10.55943,9.5102 2.50393,2.7668 29.39583,21.6214 42.94523,30.11 68.5777,42.9633 151.8193,71.0529 230.5,77.7814 6.875,0.588 14.075,1.2435 16,1.4568 9.5229,1.0552 74.3937,-0.3084 88,-1.8498 z M 421.69692,717.02285 c 0.13659,-0.0839 -0.84818,-6.641 -2.18837,-14.5711 -4.48835,-26.55813 -5.73608,-41.19288 -6.27891,-73.64609 -0.52544,-31.41302 0.23959,-48.22806 3.28814,-72.27224 6.18834,-48.8078 21.35014,-101.83163 41.83416,-146.30247 l 3.59399,-7.80249 -3.08175,-1.0743 c -1.69497,-0.59086 -7.12513,-3.04225 -12.06701,-5.44751 -4.94188,-2.40527 -9.35777,-4.37322 -9.81305,-4.37322 -0.45528,0 -3.7482,6.6375 -7.31758,14.75 -24.39112,55.43626 -39.09518,114.62147 -43.66356,175.75 -1.33938,17.92203 -1.35281,57.19972 -0.0253,74.55009 1.77167,23.15856 7.69489,64.77884 10.55076,74.13623 0.42506,1.39275 2.63923,0.36056 12.71748,-5.92891 6.71155,-4.18836 12.31458,-7.68397 12.45117,-7.76799 z M 567.44857,343.0695 c 55.5553,-12.50029 97.0549,-54.22967 109.1636,-109.76788 2.5638,-11.75966 2.5813,-42.81345 0.03,-54.64294 -4.0731,-18.8909 -10.9658,-35.75635 -20.3725,-49.84887 -21.276,-31.875108 -52.3565,-52.851967 -90.32128,-60.960178 -13.32159,-2.84511 -42.0901,-2.579551 -55.91879,0.516179 -55.21028,12.359538 -96.65691,54.039679 -108.55604,109.167619 -2.22789,10.32168 -3.108,35.52162 -1.60974,46.09131 6.69707,47.24554 35.52143,87.39655 77.35623,107.7537 11.77096,5.72786 25.93024,10.40588 36.72832,12.13454 4.12501,0.66037 8.175,1.36191 9,1.55898 4.05395,0.96836 38.10701,-0.564 44.5,-2.00246 z"
     id="path441" />
  <text
     x="878.64655"
     y="644.29541"
     dominant-baseline="middle"
     text-anchor="middle"
     font-family="Georgia, serif"
     font-size="816.983px"
     fill="#000000"
     id="text770"
     style="fill:#ffffff;stroke-width:10.2122"
     transform="scale(1.0425357,0.95919976)">a</text>
</svg>
