<?xml version="1.0" encoding="UTF-8" standalone="no"?>
<svg
   width="100"
   height="100"
   viewBox="0 0 100 100"
   version="1.1"
   id="svg1"
   sodipodi:docname="ads.svg"
   inkscape:version="1.4.2 (ebf0e940d0, 2025-05-08)"
   inkscape:export-filename="letter_a.png"
   inkscape:export-xdpi="96"
   inkscape:export-ydpi="96"
   xml:space="preserve"
   xmlns:inkscape="http://www.inkscape.org/namespaces/inkscape"
   xmlns:sodipodi="http://sodipodi.sourceforge.net/DTD/sodipodi-0.dtd"
   xmlns="http://www.w3.org/2000/svg"
   xmlns:svg="http://www.w3.org/2000/svg"><defs
     id="defs1" /><sodipodi:namedview
     id="namedview1"
     pagecolor="#ffffff"
     bordercolor="#000000"
     borderopacity="0.25"
     inkscape:showpageshadow="2"
     inkscape:pageopacity="0.0"
     inkscape:pagecheckerboard="0"
     inkscape:deskcolor="#d1d1d1"
     inkscape:zoom="8"
     inkscape:cx="49.9375"
     inkscape:cy="50"
     inkscape:window-width="1920"
     inkscape:window-height="1011"
     inkscape:window-x="0"
     inkscape:window-y="0"
     inkscape:window-maximized="1"
     inkscape:current-layer="svg1" /><path
     style="fill:#ed9a35;fill-opacity:1"
     d="M 44.205,99.92547 C 32.724034,98.41624 22.884652,93.577177 14.743737,85.436263 7.365596,78.058121 2.991305,69.913169 0.936911,59.727883 -0.091728,54.628089 -0.076208,45.537226 0.969542,40.615 7.769353,8.609047 41.48059,-8.4240845 71.282007,5.0885229 77.870698,8.075978 85.34928,14.145547 90.01858,20.294999 101.49254,35.406186 103.27114,55.965009 94.57524,72.965371 87.65244,86.499349 75.253879,95.952348 60.13518,99.2234 57.212986,99.85564 47.073269,100.30251 44.205,99.92547 Z M 48.481543,72.1461 c 2.046803,-0.729654 4.244646,-2.436931 6.331565,-4.918336 1.349425,-1.604504 2.043131,-2.213013 2.189587,-1.920673 0.117907,0.23535 0.470536,1.835242 0.783621,3.555315 l 0.569245,3.127405 5.48472,-0.08741 c 5.48472,-0.08741 5.48472,-0.08741 5.580103,-1.728764 0.09538,-1.64136 0.09538,-1.64136 -1.44,-1.871583 -1.995488,-0.299209 -2.529506,-0.607866 -3.212071,-1.85654 C 64.262673,65.520506 64.187674,63.973469 64.035762,51.335 63.883898,38.700548 63.805895,37.090733 63.27599,35.654999 62.017001,32.243874 59.66164,29.984314 56.219478,28.8855 53.760864,28.100658 46.524792,27.931186 43.307481,28.583097 c -5.888352,1.193133 -8.382482,3.369031 -8.382482,7.312941 0,3.103194 2.183874,4.98228 5.840001,5.024955 1.2,0.01401 1.2,0.01401 1.201784,-1.505993 0.0038,-3.251658 1.167957,-5.529943 3.326558,-6.510262 1.78633,-0.811253 5.633254,-0.815367 7.391658,-0.0079 2.77443,1.274024 3.419555,2.884869 3.610543,9.015344 l 0.145088,4.657177 -6.037815,0.36546 c -8.821248,0.533937 -13.122622,1.820071 -16.00467,4.785481 -4.429914,4.558045 -3.698744,14.568423 1.342079,18.374281 2.385554,1.801111 4.712119,2.485266 8.464775,2.48917 1.7785,0.0019 3.553124,-0.179758 4.276543,-0.437646 z M 42.592804,66.775001 C 40.323399,65.630606 39.559439,63.942967 39.587011,60.135 c 0.0344,-4.750499 1.539625,-7.161435 5.364618,-8.592548 1.738444,-0.650436 6.778112,-1.327452 9.881469,-1.327452 1.600287,0 1.600287,0 1.486095,4.912374 -0.113568,4.885491 -0.120322,4.924378 -1.234193,7.10581 -0.74983,1.468485 -1.574159,2.539143 -2.494121,3.239422 -2.716432,2.067761 -7.297033,2.664451 -9.998075,1.302395 z"
     id="path1" /></svg>
