<?xml version="1.0" encoding="UTF-8" standalone="no"?>
<!-- Created with Inkscape (http://www.inkscape.org/) -->

<svg
   width="1920"
   height="1920"
   viewBox="0 0 507.99999 508"
   version="1.1"
   id="svg5"
   xml:space="preserve"
   inkscape:version="1.4.2 (ebf0e940d0, 2025-05-08)"
   sodipodi:docname="arxiv.svg"
   xmlns:inkscape="http://www.inkscape.org/namespaces/inkscape"
   xmlns:sodipodi="http://sodipodi.sourceforge.net/DTD/sodipodi-0.dtd"
   xmlns="http://www.w3.org/2000/svg"
   xmlns:svg="http://www.w3.org/2000/svg"><sodipodi:namedview
     id="namedview7"
     pagecolor="#ffffff"
     bordercolor="#999999"
     borderopacity="1"
     inkscape:showpageshadow="0"
     inkscape:pageopacity="0"
     inkscape:pagecheckerboard="0"
     inkscape:deskcolor="#d1d1d1"
     inkscape:document-units="px"
     showgrid="false"
     inkscape:zoom="0.35545034"
     inkscape:cx="922.77307"
     inkscape:cy="900.26641"
     inkscape:window-width="1920"
     inkscape:window-height="1011"
     inkscape:window-x="0"
     inkscape:window-y="0"
     inkscape:window-maximized="1"
     inkscape:current-layer="layer1" /><defs
     id="defs2" /><g
     inkscape:label="Layer 1"
     inkscape:groupmode="layer"
     id="layer1"><path
       style="fill:#ed9a35;stroke-width:0.82199;fill-opacity:1"
       d="M 404.03525,504.02645 C 399.8972,502.07346 178.01978,281.86717 174.30995,276.0314 c -9.40658,-14.79714 -8.53741,-36.17918 1.99466,-49.06901 1.78711,-2.1872 22.68821,-22.10422 29.21849,-27.84283 1.7004,-1.49425 1.81091,-1.38301 15.32971,15.43186 7.48933,9.31534 56.82871,70.52092 109.64307,136.01242 62.82861,77.90947 96.93621,120.85049 98.65863,124.20989 2.2323,4.35387 2.63251,6.00749 2.63251,10.87732 0,4.03863 -0.4666,6.68475 -1.57229,8.91671 -1.84377,3.72185 -6.5178,8.17019 -10.29034,9.79346 -3.72042,1.60083 -12.1649,1.42291 -15.88914,-0.33477 z M 133.96156,453.5695 c -5.51029,-2.20106 -10.01287,-6.33364 -12.158,-11.15893 -1.75675,-3.95164 -2.01348,-5.50409 -1.68608,-10.19574 0.21241,-3.04388 1.07851,-7.15165 1.92466,-9.12838 1.51604,-3.54168 84.4771,-109.48941 85.48997,-109.17734 0.88087,0.2714 42.40907,41.65259 42.40907,42.25894 0,0.31289 -18.95409,18.7065 -42.12019,40.87469 -23.16611,22.16818 -45.24043,43.39572 -49.05405,47.17229 -3.81362,3.77658 -8.17116,7.52543 -9.68344,8.33077 -3.43589,1.82974 -11.70297,2.38939 -15.12194,1.0237 z M 277.33637,281.33845 C 265.25802,266.30811 243.21791,238.81699 228.35835,220.24707 213.49878,201.67714 174.47344,152.91286 141.63537,111.88199 100.38722,60.342807 81.043405,35.543346 79.062575,31.661425 c -2.15649,-4.226164 -2.86279,-6.622576 -2.84941,-9.667766 0.0453,-10.299572 8.96961,-19.4289455 19.0173,-19.4541785 7.233025,-0.018164 11.475565,2.8056917 25.472485,16.9546195 6.92873,7.003982 57.10963,56.689279 111.5131,110.41177 54.40346,53.7225 99.64605,98.74363 100.53908,100.04697 8.37954,12.22964 9.71057,26.9078 3.64875,40.23723 -1.12589,2.47573 -4.51936,7.18161 -7.54105,10.45751 -5.52441,5.98916 -27.81927,27.39432 -28.95643,27.80088 -0.33517,0.11984 -10.49168,-12.07967 -22.57003,-27.11001 z m 1.66821,-108.08459 c -11.63627,-11.55557 -20.99228,-21.30565 -20.79115,-21.66683 1.1982,-2.15163 103.86903,-95.633423 106.84464,-97.282047 11.38837,-6.309676 28.15527,2.852413 30.69075,16.77062 0.66918,3.673397 -1.45078,9.049987 -6.03241,15.299242 -4.04801,5.52141 -88.35004,107.526495 -89.03575,107.732875 -0.28559,0.0859 -10.03983,-9.29828 -21.67608,-20.85386 z"
       id="path1520" /></g></svg>
