<?xml version="1.0" encoding="UTF-8" standalone="no"?>
<svg
   width="200"
   height="200"
   version="1.1"
   id="svg6"
   sodipodi:docname="eu.svg"
   inkscape:export-filename="eu.png"
   inkscape:export-xdpi="600"
   inkscape:export-ydpi="600"
   xml:space="preserve"
   inkscape:version="1.2.2 (b0a8486541, 2022-12-01)"
   xmlns:inkscape="http://www.inkscape.org/namespaces/inkscape"
   xmlns:sodipodi="http://sodipodi.sourceforge.net/DTD/sodipodi-0.dtd"
   xmlns="http://www.w3.org/2000/svg"
   xmlns:svg="http://www.w3.org/2000/svg"><defs
     id="defs10" /><sodipodi:namedview
     id="namedview8"
     pagecolor="#ffffff"
     bordercolor="#999999"
     borderopacity="1"
     inkscape:showpageshadow="0"
     inkscape:pageopacity="0"
     inkscape:pagecheckerboard="0"
     inkscape:deskcolor="#d1d1d1"
     showgrid="false"
     inkscape:zoom="2.8213561"
     inkscape:cx="111.294"
     inkscape:cy="111.82566"
     inkscape:window-width="1920"
     inkscape:window-height="1011"
     inkscape:window-x="1600"
     inkscape:window-y="32"
     inkscape:window-maximized="1"
     inkscape:current-layer="svg6" /><path
     style="fill:#000000;stroke-width:0.16"
     d="m 95.668556,199.92966 c -6.060379,-0.31095 -12.087509,-1.11261 -17.44,-2.31967 C 52.946967,191.90867 31.254212,177.03227 16.78585,155.47401 13.840641,151.08557 10.041792,144.07675 8.070321,139.39401 -1.26674,117.21611 -2.523687,93.596079 4.413367,70.674018 7.081894,61.856421 11.665449,52.230388 16.945959,44.354018 27.693097,28.323666 42.898628,15.727801 60.68142,8.1247023 c 27.081061,-11.578608 57.64155,-10.670591 83.94714,2.4942477 9.8722,4.940621 17.72469,10.545894 25.49317,18.197583 12.43829,12.251291 21.35614,27.325563 26.08782,44.097485 8.28824,29.378502 2.68941,60.891042 -15.23701,85.759992 -4.93803,6.85045 -11.58555,13.844 -18.26398,19.21472 -5.57928,4.48682 -10.71087,7.80446 -17.2,11.12005 -12.74819,6.51363 -25.8536,10.05139 -40.24,10.86269 -2.54204,0.14334 -7.369948,0.17262 -9.600004,0.0582 z m 48.000004,-51.02349 c 7.37051,-0.84336 13.03014,-2.9082 18.03518,-6.57989 6.93516,-5.08761 10.96026,-12.24683 12.64093,-22.4837 0.24695,-1.50411 0.27511,-4.60358 0.32123,-35.37049 l 0.0506,-33.721928 -6.04395,0.04193 -6.04399,0.04193 -0.0908,33.6 c -0.0975,36.084818 -0.0483,33.979728 -0.87184,37.279998 -1.05155,4.21405 -3.22637,8.19205 -5.99466,10.96495 -2.0763,2.07974 -4.23833,3.38933 -7.25524,4.39464 -3.56895,1.18926 -6.88493,1.59781 -11.99888,1.47831 -3.80056,-0.0888 -5.96659,-0.37572 -8.75485,-1.15967 -9.16945,-2.5781 -14.41677,-9.55007 -15.35229,-20.39823 -0.0982,-1.13898 -0.1592,-14.10786 -0.16005,-34.039998 l -0.001,-32.2 h -6.08323 -6.083241 l 0.0478,33.96 0.0478,33.959998 0.35785,2.08 c 0.97034,5.64008 2.73835,10.33645 5.39096,14.32 5.83504,8.76279 14.91828,13.3627 27.92208,14.14025 1.97548,0.11812 7.7671,-0.0617 9.92,-0.30809 z m -64.160004,-6.39216 v -5.36 H 58.467842 37.427127 l 0.04071,-17.32 0.04071,-17.32 19.8,-0.0406 19.8,-0.0406 v -5.279419 -5.279373 h -19.839991 -19.84 v -15.12 -15.12 h 21.04 21.04 v -5.44 -5.44 h -27.12 -27.12 v 48.56 48.559992 h 27.12 27.12 z"
     id="path339" /></svg>
