<?xml version="1.0" encoding="UTF-8" standalone="no"?>
<svg
   viewBox="0 0 512 512"
   version="1.1"
   id="svg4"
   sodipodi:docname="google-scholar.svg"
   inkscape:version="1.4.2 (ebf0e940d0, 2025-05-08)"
   xmlns:inkscape="http://www.inkscape.org/namespaces/inkscape"
   xmlns:sodipodi="http://sodipodi.sourceforge.net/DTD/sodipodi-0.dtd"
   xmlns="http://www.w3.org/2000/svg"
   xmlns:svg="http://www.w3.org/2000/svg">
  <defs
     id="defs8" />
  <sodipodi:namedview
     id="namedview6"
     pagecolor="#ffffff"
     bordercolor="#999999"
     borderopacity="1"
     inkscape:showpageshadow="0"
     inkscape:pageopacity="0"
     inkscape:pagecheckerboard="0"
     inkscape:deskcolor="#d1d1d1"
     showgrid="false"
     inkscape:zoom="1.4726562"
     inkscape:cx="256.00001"
     inkscape:cy="256.00001"
     inkscape:window-width="1920"
     inkscape:window-height="1011"
     inkscape:window-x="0"
     inkscape:window-y="0"
     inkscape:window-maximized="1"
     inkscape:current-layer="svg4" />
  <!--!Font Awesome Free 6.7.1 by @fontawesome - https://fontawesome.com License - https://fontawesome.com/license/free Copyright 2024 Fonticons, Inc.-->
  <path
     d="M390.9 298.5c0 0 0 .1 .1 .1c9.2 19.4 14.4 41.1 14.4 64C405.3 445.1 338.5 512 256 512s-149.3-66.9-149.3-149.3c0-22.9 5.2-44.6 14.4-64h0c1.7-3.6 3.6-7.2 5.6-10.7c4.4-7.6 9.4-14.7 15-21.3c27.4-32.6 68.5-53.3 114.4-53.3c33.6 0 64.6 11.1 89.6 29.9c9.1 6.9 17.4 14.7 24.8 23.5c5.6 6.6 10.6 13.8 15 21.3c2 3.4 3.8 7 5.5 10.5zm26.4-18.8c-30.1-58.4-91-98.4-161.3-98.4s-131.2 40-161.3 98.4L0 202.7 256 0 512 202.7l-94.7 77.1z"
     id="path2"
     style="fill:#ed9a35;fill-opacity:1" />
</svg>
