<?xml version="1.0" encoding="UTF-8" standalone="no"?>
<!-- Created with Inkscape (http://www.inkscape.org/) -->

<svg
   width="1920"
   height="1920"
   viewBox="0 0 507.99999 508"
   version="1.1"
   id="svg5"
   inkscape:version="1.2.2 (b0a8486541, 2022-12-01)"
   sodipodi:docname="inspiral_icon_research.svg"
   xml:space="preserve"
   xmlns:inkscape="http://www.inkscape.org/namespaces/inkscape"
   xmlns:sodipodi="http://sodipodi.sourceforge.net/DTD/sodipodi-0.dtd"
   xmlns="http://www.w3.org/2000/svg"
   xmlns:svg="http://www.w3.org/2000/svg"><sodipodi:namedview
     id="namedview7"
     pagecolor="#ffffff"
     bordercolor="#999999"
     borderopacity="1"
     inkscape:showpageshadow="0"
     inkscape:pageopacity="0"
     inkscape:pagecheckerboard="0"
     inkscape:deskcolor="#d1d1d1"
     inkscape:document-units="px"
     showgrid="false"
     inkscape:zoom="0.35545034"
     inkscape:cx="1040.933"
     inkscape:cy="907.29974"
     inkscape:window-width="1920"
     inkscape:window-height="1011"
     inkscape:window-x="1600"
     inkscape:window-y="32"
     inkscape:window-maximized="1"
     inkscape:current-layer="layer1" /><defs
     id="defs2" /><g
     inkscape:label="Layer 1"
     inkscape:groupmode="layer"
     id="layer1"><path
       style="fill:#000000;stroke-width:0.211667"
       d="m 245.77186,507.94793 c -22.00905,-0.94778 -41.03594,-3.92351 -60.80967,-9.51035 C 133.83298,483.99158 88.603045,453.87637 55.3483,412.13744 34.83716,386.39336 19.33787,356.3932 10.1564,324.66479 4.91478,306.55135 1.84449,288.61637 0.51781,268.36146 c -0.34422,-5.25534 -0.34422,-23.31966 0,-28.575 1.32668,-20.25491 4.39697,-38.18989 9.63859,-56.30333 10.9123,-37.70964 30.69922,-72.82837 57.184765,-101.494167 3.09701,-3.351947 11.7607,-12.029408 14.81794,-14.841489 C 137.30843,16.420512 212.26986,-7.3934772 286.62351,2.1925558 370.50208,13.006587 443.47639,64.855143 481.30533,140.51479 c 13.79406,27.5888 22.42556,57.44305 25.54976,88.37084 0.9188,9.09563 1.1449,14.06899 1.1449,25.18833 0,11.15291 -0.2255,16.08578 -1.1563,25.29417 -8.08273,79.96362 -53.23543,151.18795 -122.00684,192.45487 -34.92261,20.95563 -73.25839,32.90517 -114.6175,35.72706 -4.43141,0.30235 -20.56748,0.56496 -24.44749,0.39787 z m -5.715,-54.27491 c 10.21871,-0.53888 19.33018,-1.65197 28.64197,-3.499 4.28604,-0.85015 11.74117,-2.62528 13.92307,-3.31518 l 0.86669,-0.27405 -3.30086,-11.17803 c -3.03445,-10.27587 -3.33504,-11.17037 -3.72421,-11.0828 -0.23283,0.0524 -2.32833,0.57565 -4.65666,1.16281 -9.79316,2.46971 -20.20198,4.04374 -31.14074,4.7092 -5.48215,0.33353 -19.69544,0.1465 -24.71342,-0.32518 -2.08127,-0.19562 -3.85312,-0.27739 -3.93742,-0.18167 -0.17266,0.196 -2.66345,22.88262 -2.52641,23.01102 0.13599,0.1274 7.75737,0.7737 11.30632,0.95879 4.74121,0.24727 14.70211,0.25455 19.26167,0.0142 z m -52.41441,-16.52397 c 1.45983,-6.26224 2.53715,-11.30888 2.43417,-11.40271 -0.10162,-0.0926 -0.89914,-0.33674 -1.77226,-0.54263 -9.28151,-2.18857 -22.06731,-6.74995 -32.59667,-11.62895 -7.27498,-3.37102 -17.89313,-9.32449 -24.22837,-13.58457 -0.57798,-0.38867 -1.11302,-0.63661 -1.18898,-0.55104 -0.35038,0.39485 -13.11223,19.16287 -13.0597,19.20609 0.18782,0.15454 6.87727,4.40692 8.20872,5.21815 15.16827,9.24194 31.90958,16.69735 48.87047,21.76353 4.21226,1.25821 9.70188,2.72074 10.29036,2.74157 0.38677,0.0138 0.6495,-0.95521 3.04226,-11.21944 z m 122.34533,-0.32641 c 19.55802,-8.85785 38.26613,-21.74159 53.93139,-37.14098 l 3.84734,-3.78204 -3.95317,-3.87255 c -2.17422,-2.12989 -5.93448,-5.81166 -8.35611,-8.18172 l -4.40297,-4.30919 -3.32287,3.26028 c -10.75624,10.55366 -22.13516,19.12154 -35.1003,26.42914 -3.62393,2.04257 -11.33621,5.93287 -13.88568,7.00437 -0.66724,0.28042 -1.19111,0.57355 -1.16417,0.65141 0.23843,0.68939 9.17016,21.33409 9.23154,21.33777 0.0445,0.003 1.47326,-0.62577 3.175,-1.39649 z M 105.11936,394.90763 c 4.01637,-4.83483 7.32898,-8.86175 7.36134,-8.94868 0.0324,-0.0869 -1.39469,-1.43595 -3.17125,-2.99777 -14.103655,-12.39909 -27.636585,-28.40954 -37.735565,-44.64389 -0.90525,-1.45521 -1.67403,-2.67832 -1.70841,-2.71805 -0.12,-0.13866 -19.779445,12.068 -19.779445,12.28117 0,0.45689 4.72705,7.80526 8.20227,12.75072 8.379745,11.92492 16.254955,21.2047 26.963825,31.77288 4.94561,4.88063 12.02681,11.33469 12.4049,11.30626 0.0879,-0.007 3.445965,-3.9678 7.462335,-8.80264 z m 138.1125,-10.33014 c 19.07487,-2.04555 34.97812,-7.19316 50.27083,-16.27175 30.08793,-17.86189 50.68583,-47.24083 55.00925,-78.46011 1.23393,-8.91018 1.13635,-18.89839 -0.2688,-27.51667 -2.95294,-18.11132 -10.53389,-33.24773 -23.09611,-46.11465 -6.70681,-6.86947 -13.25209,-11.76168 -21.16684,-15.82096 -7.03354,-3.60732 -13.83214,-5.77971 -21.59,-6.89876 -3.01077,-0.4343 -12.09813,-0.36354 -15.24,0.11867 -11.95356,1.8346 -23.65798,7.67079 -30.1991,15.0582 -8.45498,9.5489 -13.76942,23.56673 -13.2174,34.86336 0.49683,10.16726 4.83064,18.09975 12.70661,23.25781 4.30911,2.82209 9.37764,4.36495 15.62864,4.75738 l 2.27542,0.14285 0.0246,-3.35902 c 0.0136,-1.84747 0.0681,-3.19236 0.12135,-2.98863 0.0657,0.25125 0.30571,0.37042 0.74612,0.37042 h 0.64931 l -0.12022,1.74625 c -0.2844,4.13054 -2.67065,9.84847 -5.35689,12.8362 -2.51434,2.79659 -8.17029,5.43715 -13.33339,6.22491 l -1.675,0.25557 0.0559,0.63396 c 0.46125,5.22935 2.21349,22.44723 2.29244,22.5262 0.20364,0.20364 5.16439,-0.62916 7.95974,-1.33625 6.75573,-1.70889 13.92352,-5.27537 18.8384,-9.37343 6.22641,-5.19159 11.80977,-15.16706 13.83136,-24.71161 2.55384,-12.05745 -0.51285,-22.12218 -8.50445,-27.9112 -3.55973,-2.57865 -8.8217,-4.17394 -13.76737,-4.17394 h -2.18521 v -2.85085 c 0,-3.21283 -0.0677,-3.12877 1.60759,-1.99426 1.15706,0.78353 2.16965,1.96581 2.69018,3.14103 l 0.42663,0.96325 0.26829,-1.31282 c 0.40369,-1.97551 1.60435,-4.72506 2.93961,-6.7318 1.0194,-1.53209 1.39922,-1.91461 2.60995,-2.62861 3.36679,-1.98543 6.69476,-2.87155 10.73025,-2.85714 3.1434,0.0112 5.21119,0.38003 8.46098,1.50895 11.96553,4.15669 23.65845,16.46684 27.84652,29.31647 3.36345,10.3196 3.79364,21.03012 1.26924,31.59995 -6.33584,26.52848 -31.05169,49.98686 -59.99446,56.94214 -21.75984,5.22914 -44.25088,2.56094 -65.06352,-7.7188 -6.48658,-3.20385 -11.7863,-6.47711 -17.61126,-10.87724 -19.28139,-14.56503 -33.94244,-34.90324 -41.82783,-58.02471 -4.80848,-14.09937 -6.88432,-28.65949 -6.39853,-44.87972 1.15289,-38.49485 20.48218,-76.46074 52.67136,-103.45522 23.89665,-20.04019 52.39578,-32.486623 82.97334,-36.236963 11.22339,-1.37655 24.86588,-1.53182 36.30083,-0.41316 44.35964,4.33965 86.65055,26.876923 117.8183,62.786613 25.50791,29.38874 41.69565,65.40977 46.5419,103.5651 0.25134,1.97893 0.47299,3.61361 0.49257,3.63264 0.0195,0.019 4.36944,-0.42945 9.6664,-0.99661 5.29695,-0.56718 12.4407,-1.32808 15.875,-1.6909 3.43429,-0.36284 6.86329,-0.7253 7.62,-0.80545 l 1.37583,-0.14574 -0.053,-1.6776 c -0.0616,-1.94907 -1.04633,-9.00955 -1.97934,-14.19105 -4.90919,-27.26373 -14.54098,-53.02346 -28.79025,-76.99802 -14.1275,-23.76965 -32.53581,-45.00128 -53.84411,-62.102303 -48.94421,-39.28026 -109.80805,-54.963746 -169.01583,-43.552245 -9.41143,1.813924 -19.18613,4.551921 -29.63333,8.300616 -9.37578,3.364238 -21.99738,9.398093 -31.79949,15.201997 -24.03951,14.233972 -45.16649,33.920755 -60.62431,56.491625 -10.4013,15.18754 -18.492745,31.91071 -23.555245,48.68333 -7.47965,24.78087 -9.12103,50.32312 -4.86953,75.77667 8.04826,48.18456 39.553625,91.19569 82.575175,112.73166 15.91726,7.96793 32.28081,12.50279 50.3384,13.95035 3.59408,0.2881 17.61286,0.0865 21.2725,-0.30598 z m 141.45258,-8.90878 c 1.57298,-2.13827 6.0318,-8.8683 7.70777,-11.63392 8.4168,-13.88893 14.47695,-27.73455 18.76066,-42.8625 0.92707,-3.27399 2.50861,-9.75863 2.89418,-11.86677 l 0.13794,-0.7543 -11.23698,-2.27876 c -6.18033,-1.25334 -11.34478,-2.24284 -11.47653,-2.19894 -0.13176,0.0439 -0.55628,1.49807 -0.94341,3.23143 -1.97469,8.84183 -5.19627,18.61007 -8.85639,26.85371 -2.64145,5.94933 -7.02833,14.25511 -9.98345,18.902 -1.60716,2.52722 -4.61055,6.99778 -5.6392,8.39402 -0.59259,0.80431 -0.97883,1.51687 -0.87378,1.61195 0.10354,0.0937 3.56965,2.63059 7.70244,5.63751 4.13279,3.00691 8.26061,6.02012 9.17291,6.69597 0.91231,0.67587 1.72193,1.22512 1.79917,1.22059 0.0772,-0.005 0.45284,-0.43294 0.83467,-0.95199 z M 48.82077,321.05429 c 5.6436,-2.62606 10.33747,-4.85032 10.43082,-4.94282 0.0933,-0.0925 -0.4173,-1.49193 -1.1348,-3.10991 -7.88022,-17.77018 -13.08047,-36.4507 -15.54604,-55.84501 -0.29506,-2.32095 -0.56973,-4.25315 -0.61039,-4.29381 -0.0406,-0.0406 -4.06306,0.36055 -8.9387,0.89158 -13.50937,1.47134 -14.06747,1.53592 -14.17168,1.64012 -0.13719,0.1372 0.84903,7.7782 1.60535,12.43785 2.98664,18.4004 8.40144,36.74214 15.87189,53.76334 1.77418,4.04241 1.86782,4.23333 2.07642,4.23333 0.0858,0 4.77353,-2.14861 10.41713,-4.77467 z m 165.02354,-27.08123 c 2.71253,-5.70437 4.93369,-10.43372 4.93596,-10.50965 0.002,-0.0759 -0.27976,-0.23698 -0.62666,-0.35793 -0.97699,-0.34057 -4.98098,-2.69138 -7.09509,-4.16564 -6.00399,-4.18685 -11.92649,-10.46609 -15.86681,-16.82255 -3.82901,-6.1769 -6.64258,-14.38711 -7.74326,-22.59541 -0.1444,-1.07686 -0.34043,-1.95792 -0.43562,-1.95792 -0.30211,0 -21.64305,2.535 -22.37344,2.65767 -0.6989,0.11734 -0.69909,0.11772 -0.56805,1.11112 2.28251,17.30402 8.24238,31.09887 18.69791,43.27857 5.15789,6.00846 11.74654,11.69562 18.18537,15.69722 3.17525,1.97333 7.26359,4.15709 7.65504,4.08889 0.17142,-0.0299 2.44251,-4.55256 5.23465,-10.42437 z m 203.33693,-13.51335 c 0.13878,-3.21318 -0.12939,-12.01705 -0.4928,-16.17732 -1.39637,-15.98613 -4.87714,-30.8544 -10.44969,-44.63603 -2.0341,-5.03064 -4.24601,-9.71469 -4.5552,-9.64631 -0.14569,0.0322 -4.87472,2.33343 -10.50896,5.1138 l -10.24403,5.05522 1.27531,2.80519 c 7.73741,17.01942 11.62681,35.45665 11.62681,55.1157 v 4.559 l 1.00542,0.0169 c 0.82133,0.0138 6.05718,0.20917 21.45121,0.80061 l 0.76081,0.0292 0.13111,-3.03591 z m -228.57226,-64.0095 c 2.44915,-10.51665 7.50183,-20.81814 14.80771,-30.19022 4.66382,-5.98282 10.94286,-12.14995 16.79976,-16.50035 0.96228,-0.71477 1.71051,-1.40142 1.66275,-1.52591 -0.20555,-0.53566 -13.31824,-18.7231 -13.49888,-18.7231 -0.10985,0 -1.17144,0.73574 -2.35909,1.63499 -7.56315,5.72652 -15.42796,13.48286 -21.24172,20.94874 -7.54068,9.68355 -13.37401,20.62773 -16.95742,31.8146 -1.08639,3.39156 -2.53673,9.01454 -2.36789,9.18034 0.11199,0.10996 21.94831,4.96056 22.44104,4.98492 0.24348,0.0121 0.43333,-0.41994 0.71374,-1.62401 z m 190.78368,-21.45293 c 5.0898,-3.62084 9.33131,-6.65546 9.42554,-6.7436 0.16741,-0.15656 -2.45942,-3.8235 -5.00951,-6.99305 -6.35968,-7.90458 -14.79519,-16.44943 -22.39927,-22.68964 -5.64058,-4.62887 -13.27459,-9.90201 -19.5409,-13.49773 -3.20804,-1.84083 -10.47796,-5.59739 -10.57857,-5.46622 -0.18002,0.23473 -9.63559,20.92018 -9.63559,21.07929 0,0.11084 0.80858,0.58951 1.79688,1.06372 2.69295,1.29217 7.68477,4.0925 10.90312,6.11646 12.5781,7.91016 24.68549,19.14856 33.58826,31.17747 1.02624,1.3866 1.94013,2.5246 2.03088,2.52887 0.0907,0.004 4.32934,-2.95473 9.41916,-6.57557 z M 243.3844,156.90878 c 11.37678,-4.33577 25.74659,-6.55749 38.34763,-5.92896 6.39733,0.3191 12.67494,1.1477 17.88623,2.36085 0.97702,0.22744 1.8164,0.37353 1.8653,0.32465 0.0656,-0.0656 5.75639,-22.24837 5.77436,-22.50862 0.0152,-0.21973 -7.90437,-1.81662 -11.75223,-2.36971 -6.86911,-0.98737 -9.4351,-1.15744 -17.66634,-1.17089 -8.39332,-0.0137 -11.04716,0.14739 -17.56833,1.06651 -7.34352,1.03503 -15.21527,2.88999 -21.80167,5.13749 -3.7987,1.29625 -7.20191,2.61037 -7.26629,2.80581 -0.0199,0.0605 1.9572,4.94058 4.39359,10.84467 3.60371,8.73282 4.49186,10.70951 4.7625,10.59953 0.18298,-0.0744 1.54434,-0.59695 3.02525,-1.16133 z"
       id="path1025" /></g></svg>
