<?xml version="1.0" encoding="UTF-8" standalone="no"?>
<!-- Created with Inkscape (http://www.inkscape.org/) -->

<svg
   width="1920mm"
   height="1920mm"
   viewBox="0 0 1920 1920"
   version="1.1"
   id="svg5"
   inkscape:version="1.2.2 (b0a8486541, 2022-12-01)"
   sodipodi:docname="inspiral.svg"
   xml:space="preserve"
   xmlns:inkscape="http://www.inkscape.org/namespaces/inkscape"
   xmlns:sodipodi="http://sodipodi.sourceforge.net/DTD/sodipodi-0.dtd"
   xmlns="http://www.w3.org/2000/svg"
   xmlns:svg="http://www.w3.org/2000/svg"><sodipodi:namedview
     id="namedview7"
     pagecolor="#ffffff"
     bordercolor="#999999"
     borderopacity="1"
     inkscape:showpageshadow="0"
     inkscape:pageopacity="0"
     inkscape:pagecheckerboard="0"
     inkscape:deskcolor="#d1d1d1"
     inkscape:document-units="mm"
     showgrid="false"
     inkscape:zoom="0.044431292"
     inkscape:cx="4208.7455"
     inkscape:cy="2081.8661"
     inkscape:window-width="1920"
     inkscape:window-height="1011"
     inkscape:window-x="1600"
     inkscape:window-y="32"
     inkscape:window-maximized="1"
     inkscape:current-layer="layer1" /><defs
     id="defs2" /><g
     inkscape:label="Layer 1"
     inkscape:groupmode="layer"
     id="layer1"><path
       style="fill:#000000;stroke-width:0.254"
       d="m 938.03213,1919.8013 c -106.901,-2.7262 -209.4995,-22.1753 -308.6101,-58.5018 -117.1748,-42.9476 -224.9353,-108.4624 -317.3712,-192.9512 -18.9512,-17.3219 -43.402,-41.7737 -60.5861,-60.5886 -68.8385,-75.3717 -124.9189,-160.6276 -166.7435,-253.4905 -45.2831,-100.542 -72.8853,-208.0435 -81.6521,-318.008 -9.1689,-115.00933 2.4877,-230.72083 34.4218,-341.69263 40.9407,-142.2698 114.2072,-273.1109 214.0942,-382.3344 16.7682,-18.3354 40.2369,-41.855 59.1945,-59.3229 71.0062,-65.4262 154.3364,-121.19691 242.9504,-162.600295 126.9793,-59.32893 266.1447,-90.23982045 406.2731,-90.23982045 96.98587,0 194.10497,14.84947045 286.76587,43.84640045 133.9716,41.92451 257.6757,113.092795 361.061,207.722215 19.1088,17.4904 43.357,41.7393 60.5927,60.5944 68.7595,75.2198 125.0412,160.7642 166.8621,253.619 40.2674,89.4056 66.6244,184.5578 78.097,281.94 15.3134,129.9842 3.8364,261.98383 -33.6788,387.35003 -22.9511,76.6967 -55.2589,149.9273 -96.4832,218.694 -31.4513,52.4643 -67.5788,101.4152 -108.8212,147.447 -19.1429,21.366 -45.0389,47.5057 -66.5686,67.1949 -85.2349,77.949 -183.8965,139.9051 -291.084,182.7907 -76.6884,30.6829 -156.4757,51.2443 -238.252,61.3981 -29.7101,3.689 -55.7601,5.731 -87.88387,6.889 -9.6303,0.3471 -42.5483,0.5002 -52.578,0.2444 z m -57.5639,-111.4435 c 0.1923,-1.6362 0.7777,-18.5839 0.6458,-18.6984 -0.058,-0.05 -3.0196,-0.2253 -6.582,-0.3892 -16.0102,-0.7366 -40.9946,-2.6813 -51.3167,-3.9944 l -1.1518,-0.1465 -1.045,9.868 c -0.6167,5.8241 -0.9489,9.9277 -0.8105,10.0138 0.2305,0.1433 3.9465,0.5411 14.113,1.5109 10.8207,1.0321 24.4585,2.0177 35.004,2.5295 3.0734,0.1492 6.1024,0.3056 6.731,0.3476 0.6287,0.042 1.8467,0.096 2.7067,0.1208 l 1.5637,0.044 z m 72.5609,0.8277 c 9.0059,-0.4559 13.4668,-0.7391 22.341,-1.4186 10.8704,-0.8324 25.74097,-2.2605 26.14627,-2.511 0.2327,-0.1438 -1.78027,-19.4163 -2.05677,-19.6928 -0.058,-0.058 -3.4163,0.2265 -7.4622,0.6328 -14.2682,1.4329 -29.6615,2.5483 -42.1543,3.0545 -3.7719,0.1529 -7.4295,0.3328 -8.128,0.3999 l -1.27,0.1219 0.3599,9.896 0.36,9.8961 h 2.1911 c 1.2051,0 5.5579,-0.1705 9.673,-0.3788 z m 116.37827,-14.2438 c 14.5092,-2.858 27.4185,-5.764 42.3205,-9.5268 4.9373,-1.2466 9.0235,-2.2666 9.0805,-2.2666 0.057,0 0.1036,-0.1857 0.1036,-0.4126 0,-0.3926 -4.7862,-18.5988 -4.9728,-18.9162 -0.049,-0.083 -2.1792,0.3993 -4.7337,1.0728 -12.1838,3.2121 -27.4537,6.7181 -42.4905,9.7558 l -10.414,2.1039 0.053,0.7216 c 0.1134,1.5411 3.4878,18.8827 3.6743,18.8827 0.1086,0 3.4292,-0.6366 7.379,-1.4146 z m -307.80397,-8.1739 c 0.9456,-5.134 1.7382,-9.5553 1.7615,-9.8251 0.038,-0.4376 -0.4245,-0.5823 -4.2759,-1.3393 -15.1749,-2.9825 -28.2495,-5.8858 -42.8655,-9.5185 -5.6944,-1.4153 -10.4027,-2.5241 -10.4627,-2.464 -0.2756,0.2755 -5.1171,18.9162 -4.9602,19.0977 0.4041,0.4674 26.1445,6.6568 39.3654,9.4656 4.8164,1.0232 19.0072,3.8684 19.4476,3.8992 0.1582,0.011 0.9843,-3.8566 1.9898,-9.3156 z m -115.8252,-31.0597 c 1.8013,-5.1707 3.23,-9.4391 3.175,-9.4853 -0.055,-0.046 -3.072,-1.1401 -6.7042,-2.431 -15.5129,-5.5132 -30.146,-11.1947 -45.44,-17.6426 -1.5224,-0.6418 -2.8543,-1.167 -2.9597,-1.167 -0.1054,0 -1.052,2.0289 -2.1036,4.5085 -1.0515,2.4797 -2.8204,6.585 -3.9307,9.1229 l -2.0189,4.6143 5.8745,2.4739 c 12.448,5.2423 27.1895,10.9803 40.0374,15.5841 3.5624,1.2766 7.3914,2.6529 8.509,3.0586 1.1176,0.4057 2.0892,0.7438 2.159,0.7512 0.07,0.01 1.6008,-4.217 3.4022,-9.3876 z m 539.33897,7.3507 c 9.0433,-3.2206 19.2143,-7.0798 28.8858,-10.9602 9.4584,-3.7949 21.2118,-8.7295 21.5153,-9.033 0.1281,-0.1281 -7.295,-17.5142 -7.8034,-18.277 -0.024,-0.037 -2.891,1.1468 -6.3702,2.6298 -14.5288,6.1931 -33.7996,13.6706 -46.5211,18.0513 -1.1524,0.3969 -2.0954,0.8458 -2.0955,0.9976 -10e-5,0.2 4.723,14.1159 6.2211,18.3294 0.062,0.1747 0.1766,0.3175 0.2545,0.3175 0.078,0 2.739,-0.9249 5.9135,-2.0554 z m -648.53627,-56.5524 c 1.9377,-3.8054 3.4743,-6.9593 3.4146,-7.0087 -0.06,-0.049 -2.5659,-1.3794 -5.5695,-2.9556 -11.9679,-6.2806 -26.7257,-14.5795 -39.1528,-22.0173 -3.5826,-2.1442 -6.6115,-3.8957 -6.731,-3.8923 -0.1194,0 -0.7408,0.8892 -1.3808,1.9685 -0.6399,1.0792 -2.9403,4.8859 -5.1118,8.4593 l -3.9482,6.497 2.4448,1.4802 c 14.5034,8.7805 30.3931,17.7726 44.721,25.3079 l 5.7002,2.9979 1.0452,-1.959 c 0.5749,-1.0775 2.6306,-5.0725 4.5683,-8.8779 z m 757.60117,8.2858 c 14.6717,-7.8321 31.0964,-17.2814 44.7402,-25.7395 3.1032,-1.9237 3.9799,-2.5827 3.8595,-2.9013 -0.283,-0.749 -10.1568,-16.5209 -10.3491,-16.5311 -0.1036,-0.01 -1.7038,0.9409 -3.556,2.1031 -11.8377,7.4281 -38.5232,22.7179 -46.2302,26.4882 -0.8033,0.3929 -1.4605,0.7914 -1.4605,0.8855 0,0.094 1.8408,3.6421 4.0907,7.8845 2.2498,4.2425 4.3096,8.1423 4.5772,8.6661 0.2675,0.5239 0.5888,0.9525 0.7138,0.9525 0.1251,0 1.7515,-0.8136 3.6144,-1.808 z m -356.53097,-28.9333 c 98.59437,-3.5689 191.38477,-27.1547 278.76487,-70.8573 75.7815,-37.9016 143.8264,-89.4249 200.9479,-152.1566 98.3172,-107.9736 157.9888,-242.7337 169.377,-382.5148 1.544,-18.9521 1.9095,-28.6166 1.9068,-50.419 0,-18.1553 -0.1494,-24.1693 -0.8919,-36.44893 -3.9124,-64.7086 -17.0966,-124.9938 -40.3287,-184.4041 -26.4189,-67.5598 -65.9629,-131.4547 -114.9455,-185.7279 -14.46,-16.0218 -31.368,-32.8566 -47.1642,-46.9601 -44.9937,-40.1722 -95.8064,-73.3737 -149.6713,-97.7965 -58.6531,-26.5938 -120.6909,-42.8576 -183.4411,-48.0907 -16.7227,-1.3946 -26.6607,-1.7785 -45.72,-1.7665 -23.74577,0.015 -40.56217,0.9657 -62.86487,3.554 -83.1382,9.6481 -161.855,38.6298 -232.1561,85.4746 -72.9894,48.6362 -132.3193,113.5194 -173.3597,189.5861 -3.7793,7.0049 -11.654,22.9055 -14.9065,30.099 -23.262,51.4495 -37.0766,103.9801 -41.8486,159.131 -1.8595,21.4908 -2.1,48.0808 -0.6363,70.3581 3.6073,54.90253 16.2013,106.38343 38.0908,155.70543 18.7372,42.2192 44.1896,82.0253 74.7207,116.8589 12.6831,14.4704 28.1318,29.9327 42.6289,42.6666 43.9645,38.6169 95.1416,68.238 148.9707,86.2236 62.9776,21.0424 129.0322,26.3084 193.9291,15.4606 47.20457,-7.8905 91.78107,-24.4012 133.47687,-49.4387 33.3467,-20.024 64.2639,-45.7511 90.223,-75.0773 50.8084,-57.3985 81.7785,-127.5075 88.3234,-199.9432 1.0002,-11.0695 1.1489,-14.8021 1.1538,-28.956 0,-14.1911 -0.152,-18.2011 -1.1531,-29.464 -2.3489,-26.42643 -7.9686,-52.58643 -16.424,-76.45393 -27.6428,-78.0296 -86.2388,-142.9077 -159.3291,-176.4109 -54.0678,-24.7837 -113.3212,-30.5309 -169.79887,-16.4694 -41.481,10.3276 -79.6857,32.2476 -110.245,63.2532 -8.4285,8.5516 -13.8205,14.7977 -20.6865,23.963 -19.5066,26.0392 -32.4027,54.6763 -38.0896,84.5821 -4.7316,24.882 -4.1673,50.6169 1.6441,74.9754 4.6656,19.556 12.1433,37.01513 22.5541,52.65953 12.1791,18.3018 28.5181,34.6038 46.6582,46.5528 19.137,12.6056 38.6654,19.8923 59.4701,22.1903 4.8347,0.534 16.4359,0.6116 21.0416,0.1406 19.7919,-2.0236 37.8979,-9.0742 53.848,-20.9685 3.1587,-2.3555 9.1945,-8.4239 12.0362,-12.1012 9.43277,-12.2064 16.46637,-27.7438 19.43197,-42.926 1.1799,-6.0402 1.4056,-8.5143 1.4136,-15.494 0.01,-7.548 -0.27,-10.05253 -1.7691,-15.90123 -4.0038,-15.6218 -14.30837,-27.4766 -28.87077,-33.2141 -6.3727,-2.5108 -11.5675,-3.4718 -19.7372,-3.6513 l -5.9383,-0.1305 0.1637,2.1281 c 0.3199,4.1587 0.946,15.2655 0.8651,15.3464 -0.2191,0.2191 -4.375,-0.4695 -6.2025,-1.0277 -4.9626,-1.5159 -7.2591,-4.3928 -8.0103,-10.0347 -0.5556,-4.1734 0.4742,-10.898 2.5806,-16.8504 0.4376,-1.2367 0.7597,-2.2777 0.7158,-2.3134 -0.044,-0.036 -4.2155,-1.7268 -9.2702,-3.7579 -7.8345,-3.1482 -9.2144,-3.6313 -9.3532,-3.2747 -4.3971,11.2963 -5.8886,22.9697 -4.0647,31.8135 2.8512,13.8253 12.9178,22.8606 27.8153,24.9656 1.4668,0.2073 3.4671,0.4126 4.445,0.4561 l 1.778,0.079 0.1363,-4.318 c 0.075,-2.3749 0.1607,-4.0637 0.1905,-3.7529 0.2391,2.4942 1.3343,22.17713 1.2741,22.89763 l -0.077,0.9213 -0.762,-1.0285 -0.762,-1.0285 -0.049,2.1874 c -0.1593,7.113 -4.3502,17.7888 -9.5614,24.3564 -2.0779,2.6187 -8.4361,6.4996 -14.4618,8.8273 -8.8117,3.4038 -19.4699,4.0581 -29.8928,1.8348 -23.9599,-5.1107 -49.133,-24.9453 -63.3063,-49.88093 -5.7467,-10.1104 -10.2521,-23.434 -12.4971,-36.957 -3.7418,-22.5399 -1.0671,-45.8503 7.8544,-68.453 17.5358,-44.4269 57.5767,-82.1278 105.03,-98.8921 16.4044,-5.7954 35.3022,-9.4543 53.968,-10.4491 69.80677,-3.7202 140.14747,31.2152 187.82277,93.2841 17.0702,22.2239 30.9435,48.3369 39.6318,74.5968 11.6504,35.2128 15.6621,74.90233 11.4126,112.91033 -4.8251,43.1558 -20.0451,85.3303 -44.6402,123.698 -28.2885,44.1293 -68.2369,81.7339 -114.725,107.9941 -37.0589,20.9339 -76.51457,34.0875 -118.69167,39.5691 -73.8303,9.5953 -147.9549,-4.7379 -215.4453,-41.6597 -40.5986,-22.2102 -77.739,-52.3782 -109.116,-88.6315 -16.0794,-18.5784 -30.9364,-39.3335 -43.3343,-60.5378 -27.8157,-47.5736 -45.258,-99.0892 -51.8718,-153.20323 -2.2326,-18.2667 -3.0364,-31.7572 -3.0418,-51.054 0,-13.67 0.1857,-19.4554 1.0026,-30.607 6.0282,-82.2928 36.6163,-162.2537 88.4665,-231.261 40.006,-53.2441 91.7283,-98.2535 150.5338,-130.9965 59.0538,-32.8812 123.2362,-52.4294 190.754,-58.0985 16.0763,-1.3499 28.1765,-1.7642 46.35497,-1.5874 14.3274,0.1394 18.4955,0.2909 29.464,1.0706 100.8073,7.1665 198.33,45.5648 281.178,110.7103 33.1141,26.0384 63.8129,56.5229 90.2258,89.5959 69.4407,86.9502 110.6124,190.5174 119.1874,299.8146 2.4829,31.64693 2.351,63.57363 -0.3898,94.36103 -5.6687,63.6766 -22.0967,126.0635 -48.8257,185.42 -34.0245,75.5576 -84.1284,144.4651 -146.7381,201.8079 -73.7997,67.5915 -162.7739,116.8544 -258.0016,142.8495 -39.8275,10.872 -80.06037,17.607 -122.23397,20.462 -23.9696,1.6227 -52.0129,1.8062 -76.2,0.4987 -69.7695,-3.7717 -138.301,-18.9021 -203.835,-45.0027 -118.2185,-47.0836 -222.2045,-127.503 -300.1058,-232.0922 -73.3642,-98.4979 -119.6685,-214.5219 -133.4545,-334.3952 -7.1401,-62.08473 -6.5113,-122.49603 1.9047,-183.00703 13.2769,-95.46 45.554,-187.2206 95.5548,-271.653 46.4029,-78.3567 107.8007,-148.9769 179.7899,-206.7957 84.088,-67.5362 180.8984,-116.7536 284.4717,-144.6226 52.4649,-14.1171 105.8779,-22.6018 161.3992,-25.6384 25.6949,-1.4054 56.32457,-1.5003 81.66097,-0.253 122.5868,6.0346 241.0745,40.04 349.6714,100.354 56.3164,31.2778 109.3155,69.4174 157.1756,113.1079 17.407,15.8905 37.1588,35.5557 52.842,52.6105 46.1626,50.1994 86.5301,106.3139 119.307,165.8473 58.9482,107.0694 93.8745,224.4036 103.052,346.202 0.2789,3.7021 0.5753,8.0455 0.6586,9.652 0.224,4.3195 0.1114,4.079 1.8397,3.9292 0.8012,-0.069 5.4001,-0.3561 10.2198,-0.6371 4.8196,-0.2809 16.3639,-0.965 25.654,-1.5203 9.29,-0.5552 17.0386,-1.0096 17.219,-1.0096 0.2515,-10e-5 0.2939,-0.4306 0.1818,-1.8417 -0.081,-1.0128 -0.3745,-5.099 -0.6534,-9.0805 -5.9926,-85.562 -24.5086,-170.8858 -54.5965,-251.587 -42.9237,-115.129 -108.7355,-220.1681 -193.8333,-309.368 -30.6019,-32.0772 -64.0731,-62.34 -98.8987,-89.419 -95.3112,-74.1103 -204.5378,-127.8129 -319.278,-156.97696 -99.2071,-25.21597 -200.6278,-32.26843 -302.76787,-21.05349 -133.8471,14.69632 -261.5856,61.52385 -373.3801,136.87695 -49.1754,33.1459 -93.9289,70.7703 -135.2221,113.6817 -71.6123,74.4186 -128.774,162.2758 -166.9899,256.6628 -32.3922,80.0035 -51.2149,164.1832 -55.801,249.555 -0.1463,2.7242 -0.3847,7.2962 -0.5297,10.1601 -0.4299,8.4883 -0.592,43.3458 -0.2523,54.2507 2.3462,75.31483 14.443,144.98253 37.1533,213.97323 35.1757,106.8588 94.5497,205.418 173.2091,287.5223 5.4087,5.6456 21.1775,21.3734 25.8776,25.8105 69.9024,65.9898 148.594,116.6423 234.95,151.2333 78.4289,31.4157 159.8104,48.2021 243.84,50.2966 9.4486,0.2356 29.909,0.1 40.0051,-0.266 z m -504.4266,-39.8558 c 3.0233,-4.2528 5.5485,-7.8668 5.6115,-8.0311 0.063,-0.1653 -2.1343,-1.9239 -4.9161,-3.9339 -11.9146,-8.6088 -29.3116,-22.0389 -40.1365,-30.9844 -0.8677,-0.717 -1.6882,-1.2353 -1.8234,-1.1518 -0.2346,0.1451 -11.4471,13.6665 -12.2013,14.714 -0.4304,0.5978 -0.9948,0.072 6.9663,6.4882 14.9771,12.0705 39.8792,30.8516 40.6944,30.6916 0.1696,-0.033 2.7819,-3.54 5.8051,-7.7926 z m 963.65847,3.655 c 11.707,-8.6045 29.6889,-22.9522 43.0475,-34.3474 0.8087,-0.6897 0.8517,-0.794 0.508,-1.23 -1.4749,-1.8713 -12.5277,-14.5745 -12.681,-14.5745 -0.1057,0 -1.0951,0.7775 -2.1984,1.7276 -10.0458,8.6513 -25.3195,20.879 -37.3998,29.9411 -3.4442,2.5838 -6.3633,4.7945 -6.4867,4.9127 -0.3038,0.2909 11.5774,16.2603 11.9084,16.006 0.1397,-0.1074 1.6256,-1.2034 3.302,-2.4355 z m -1055.67827,-80.4627 6.4614,-6.8159 -3.7116,-3.5929 c -11.5874,-11.2171 -22.3684,-22.1623 -32.644,-33.1414 -2.7811,-2.9714 -5.1649,-5.3665 -5.2973,-5.3223 -0.1325,0.044 -3.4891,3.0404 -7.459,6.6584 l -7.2182,6.5782 0.8494,0.9059 c 0.4672,0.4982 3.2905,3.5347 6.274,6.7478 2.9836,3.2131 12.1554,12.5753 20.3818,20.8048 14.6532,14.6586 14.9668,14.9529 15.4297,14.478 0.2599,-0.2666 3.3801,-3.5519 6.9338,-7.3006 z m 1149.29927,-1.1217 c 10.7589,-10.9095 21.9851,-23.0294 32.7287,-35.3339 2.5104,-2.8751 3.3447,-3.9933 3.1714,-4.2508 -0.1293,-0.1922 -3.5262,-3.151 -7.5486,-6.5751 l -7.3136,-6.2257 -3.5962,4.1265 c -9.4995,10.9003 -17.8794,19.9522 -32.0515,34.6218 l -4.5548,4.7146 6.9661,6.9696 c 3.8313,3.8332 7.0302,6.9695 7.1087,6.9695 0.078,0 2.3688,-2.2574 5.0898,-5.0165 z m -606.22107,-56.642 c 0.2457,-2.7997 0.991,-18.1087 0.8865,-18.2075 -0.053,-0.05 -2.1538,-0.2235 -4.6684,-0.3853 -10.5133,-0.6764 -23.4154,-1.9455 -33.909,-3.3353 -5.7792,-0.7655 -18.5874,-2.6975 -19.3216,-2.9146 -0.3376,-0.1 -0.6613,1.3809 -2.1167,9.6848 -0.945,5.3914 -1.677,9.8437 -1.6268,9.894 0.2924,0.2923 15.9713,2.6566 25.0971,3.7844 9.9059,1.2242 27.6591,2.8395 34.7088,3.1579 l 0.7997,0.036 z m 68.3832,0.9477 c 11.8561,-0.9247 23.1228,-2.1774 34.388,-3.8235 7.3425,-1.0729 18.62837,-3.009 18.81197,-3.2273 0.085,-0.1008 -0.658,-4.5268 -1.6508,-9.8354 -1.6698,-8.9277 -1.8429,-9.6483 -2.3078,-9.603 -0.2764,0.027 -3.18847,0.5072 -6.47137,1.0674 -15.4938,2.6436 -33.9101,4.8282 -48.611,5.7661 l -2.7639,0.1763 0.1482,1.9316 c 0.082,1.0624 0.3483,5.5607 0.5929,9.9961 0.3952,7.1699 0.4914,8.0645 0.8667,8.0645 0.2322,0 3.3808,-0.2307 6.9971,-0.5128 z m -185.9571,-29.382 c 1.5367,-5.1236 2.8248,-9.4372 2.8623,-9.5859 0.037,-0.1487 -1.2769,-0.6612 -2.921,-1.1391 -4.389,-1.2757 -17.7508,-5.6563 -23.3093,-7.6418 -8.6894,-3.1039 -22.5293,-8.4633 -27.1461,-10.5122 -0.8206,-0.3642 -1.6335,-0.6622 -1.8063,-0.6622 -0.2366,0 -7.5882,16.9856 -7.8317,18.0948 -0.058,0.2618 2.8247,1.4946 12.0191,5.141 12.4215,4.9263 24.769,9.2902 37.465,13.241 2.9337,0.9129 5.7912,1.814 6.35,2.0025 0.5588,0.1884 1.1303,0.3505 1.27,0.3601 0.1397,0.01 1.5113,-4.1746 3.048,-9.2982 z m 302.98157,6.2314 c 9.786,-3.127 22.6556,-7.8073 33.4747,-12.174 6.1337,-2.4756 18.9452,-7.9484 19.1975,-8.2007 0.1457,-0.1457 -7.7779,-17.8938 -8.0689,-18.0736 -0.1049,-0.065 -2.5671,0.921 -5.4716,2.1907 -14.1008,6.1641 -27.6883,11.366 -42.7108,16.3515 -3.6671,1.217 -6.6675,2.2533 -6.6675,2.3029 0,0.05 1.3145,4.2775 2.921,9.3951 1.6066,5.1177 2.921,9.3532 2.921,9.4122 0,0.1918 0.247,0.1243 4.4046,-1.2041 z m -809.91827,-7.9899 c 4.165,-3.2997 7.6056,-6.0843 7.6457,-6.1881 0.04,-0.1038 -0.4261,-0.8045 -1.0362,-1.5571 -7.2704,-8.9699 -21.3143,-27.755 -30.2666,-40.4845 -2.0631,-2.9337 -3.8815,-5.3218 -4.0407,-5.307 -0.1592,0.015 -3.9136,2.5047 -8.3431,5.5329 l -8.0537,5.506 3.9687,5.6431 c 11.3207,16.0967 31.5057,42.854 32.3279,42.854 0.1239,0 3.6329,-2.6997 7.798,-5.9993 z m 1309.07587,-6.0482 c 8.3851,-11.682 16.5397,-23.6849 23.6532,-34.8155 5.008,-7.836 6.0357,-9.5095 5.9056,-9.6166 -0.3612,-0.2972 -16.8404,-10.5573 -16.8793,-10.5092 -0.027,0.033 -1.1899,1.8886 -2.585,4.1238 -7.7914,12.4828 -17.2598,26.5147 -27.1426,40.2245 -1.8656,2.5879 -3.3665,4.7274 -3.3355,4.7544 1.3959,1.2135 16.0916,11.727 16.2111,11.5977 0.096,-0.1037 1.9733,-2.6953 4.1725,-5.7591 z m -912.17787,-39.4358 4.7006,-8.4303 -3.2109,-1.8402 c -13.6807,-7.8402 -29.1612,-17.6651 -41.5352,-26.361 -4.6226,-3.2486 -4.8122,-3.3537 -5.2383,-2.9034 -0.2431,0.257 -2.8652,3.8838 -5.8269,8.0595 -4.4238,6.2372 -5.3249,7.6498 -5.0487,7.9148 0.631,0.6054 8.4008,5.9935 14.7878,10.2549 14.9736,9.9903 36.1163,22.7635 36.5007,22.0516 0.094,-0.1736 2.2856,-4.1092 4.8709,-8.7459 z m 523.50577,2.4996 c 6.5138,-3.9875 18.6053,-11.8601 23.7939,-15.4919 11.6764,-8.1729 23.1795,-16.7939 22.8977,-17.1606 -0.1178,-0.1533 -2.8593,-3.7287 -6.0921,-7.9453 l -5.8779,-7.6665 -7.1873,5.3805 c -11.4336,8.5594 -23.6513,16.914 -35.1094,24.0082 -2.9337,1.8164 -5.5299,3.4546 -5.7694,3.6404 -0.3969,0.3081 0.014,1.085 4.6604,8.8011 3.6834,6.1177 5.1974,8.4241 5.4627,8.3223 0.2018,-0.078 1.6515,-0.9271 3.2214,-1.8882 z m -988.51567,-55.6913 8.4528,-5.1071 -1.6613,-2.8304 c -8.6243,-14.6933 -20.4589,-36.263 -25.6224,-46.6993 l -1.2205,-2.4667 -8.774,4.4727 c -4.8257,2.46 -8.8261,4.5175 -8.8898,4.5723 -0.2379,0.2044 5.936,12.1557 12.6375,24.4635 5.9213,10.8751 16.1545,28.702 16.4758,28.702 0.082,0 3.9528,-2.2982 8.6019,-5.107 z m 1442.28497,-15.4035 c 7.0988,-14.2774 13.498,-28.117 18.7974,-40.6527 1.5128,-3.5784 1.5273,-3.6354 0.9809,-3.8508 -0.3051,-0.1202 -4.3749,-1.8336 -9.0441,-3.8076 -4.6693,-1.9739 -8.6126,-3.5401 -8.763,-3.4804 -0.1505,0.06 -1.0628,1.9789 -2.0275,4.2648 -4.9298,11.6823 -11.1198,25.0633 -18.1243,39.1798 -2.6957,5.4327 -4.8319,9.9476 -4.7472,10.033 0.2925,0.2951 17.0063,8.8755 17.3303,8.8969 0.1831,0.012 2.627,-4.6085 5.5975,-10.583 z m -1074.73807,-0.9161 c 6.2985,-7.0813 6.5033,-7.3447 6.0455,-7.7745 -0.2606,-0.2446 -2.4144,-2.2041 -4.7864,-4.3543 -9.6293,-8.7294 -23.4975,-22.4532 -32.5128,-32.1743 -2.2327,-2.4076 -4.1348,-4.3481 -4.2268,-4.3123 -0.092,0.036 -3.1662,2.8082 -6.8314,6.161 -3.6652,3.3528 -6.9422,6.3252 -7.2822,6.6052 l -0.6183,0.5092 2.2125,2.4118 c 6.2728,6.8378 17.2837,18.09 24.0794,24.6069 8.8675,8.5039 16.88,15.8353 17.1874,15.7265 0.1175,-0.042 3.1474,-3.3739 6.7331,-7.4052 z m 720.48127,-7.4659 c 10.6602,-10.8055 21.6376,-23.1176 31.3009,-35.1069 2.322,-2.8809 2.8931,-3.7381 2.6445,-3.9696 -0.6008,-0.5594 -15.1802,-12.041 -15.2897,-12.041 -0.06,0 -1.8122,2.086 -3.893,4.6355 -9.7567,11.9543 -19.3732,22.6805 -30.5226,34.0449 l -4.9383,5.0335 6.9686,6.9721 c 3.8327,3.8346 7.038,6.972 7.1228,6.972 0.085,0 3.0579,-2.9432 6.6068,-6.5405 z m -801.14257,-81.0412 c 4.2609,-3.1339 7.7182,-5.7992 7.6829,-5.9229 -0.035,-0.1238 -1.4216,-2.0953 -3.0807,-4.3812 -8.6819,-11.9617 -17.5146,-25.2757 -25.9279,-39.0822 -1.851,-3.0377 -3.4392,-5.4805 -3.5294,-5.4286 -1.3651,0.7872 -16.9497,9.9017 -17.0059,9.9458 -0.1169,0.092 6.1548,10.3984 10.195,16.7538 8.928,14.0441 23.0463,34.3325 23.644,33.9769 0.1513,-0.09 3.7612,-2.7278 8.022,-5.8616 z m -340.883,-2.1908 c 4.8114,-2.0415 8.7934,-3.7572 8.8489,-3.8127 0.055,-0.056 -1.1651,-3.1823 -2.7125,-6.9484 -5.7046,-13.8837 -11.5309,-29.1349 -16.0299,-41.9604 -1.1516,-3.2829 -2.1867,-6.0706 -2.3002,-6.1949 -0.2492,-0.2726 -18.5375,5.9311 -18.695,6.3416 -0.319,0.8313 11.3191,31.9538 18.3119,48.9691 3.096,7.5334 3.1313,7.6079 3.5308,7.4415 0.1639,-0.068 4.2346,-1.7944 9.046,-3.8358 z m 1213.83397,-9.986 c 8.1388,-13.734 15.5477,-27.7261 21.9689,-41.4898 3.4912,-7.4831 3.8508,-8.3458 3.5788,-8.5862 -0.2397,-0.2117 -17.2515,-7.8812 -17.6855,-7.9731 -0.1385,-0.029 -1.3845,2.4041 -2.769,5.4076 -6.5629,14.2382 -15.8095,31.7485 -23.1893,43.9135 -0.9748,1.607 -1.3628,2.4682 -1.1897,2.6413 0.2016,0.2016 16.5191,10.2859 16.7152,10.3301 0.027,0.01 1.1839,-1.9034 2.5706,-4.2434 z m 325.903,-5.461 c 4.572,-14.3893 8.743,-28.999 12.4837,-43.7269 1.2418,-4.8889 2.2329,-8.9084 2.2025,-8.9322 -0.063,-0.049 -5.1679,-1.277 -13.1362,-3.1591 -3.0035,-0.7094 -5.646,-1.3451 -5.8722,-1.4126 -0.342,-0.1021 -0.6113,0.6807 -1.5985,4.6462 -3.9497,15.8663 -8.3353,31.372 -13.0131,46.0089 -1.0429,3.2635 -1.8249,6.0067 -1.7376,6.096 0.1269,0.1297 18.1988,6.2921 18.6667,6.3652 0.071,0.011 0.9726,-2.6375 2.0047,-5.8855 z m -751.05187,-40.854 c 6.4076,-0.3652 18.4279,-1.5558 18.727,-1.8549 0.1041,-0.1041 -2.4683,-19.5395 -2.6042,-19.6754 -0.056,-0.056 -1.6208,0.085 -3.477,0.314 -10.8829,1.3419 -22.9601,1.8687 -33.3433,1.4544 -6.1786,-0.2465 -14.3951,-0.8709 -19.0536,-1.4479 l -1.27,-0.1573 -1.3168,9.8653 c -0.7242,5.4259 -1.2862,9.8959 -1.2489,9.9332 0.1198,0.1199 9.0438,1.0525 12.9797,1.3566 9.1755,0.7087 20.5137,0.7873 30.6071,0.212 z m -100.2442,-26.6171 c 2.0447,-4.8734 3.7828,-9.0306 3.8624,-9.2382 0.1061,-0.2764 -0.2842,-0.5496 -1.4572,-1.0202 -2.6719,-1.072 -9.9097,-4.3987 -13.6879,-6.2914 -10.4893,-5.2547 -21.9063,-12.1199 -31.5828,-18.9911 -1.8054,-1.282 -3.3028,-2.3032 -3.3276,-2.2692 -5.0234,6.8814 -11.548,16.0053 -11.5403,16.1378 0.014,0.2439 5.9861,4.4251 11.4195,7.9954 12.4988,8.2131 25.6646,15.274 40.513,21.7275 0.9779,0.425 1.8467,0.7811 1.9307,0.7914 0.084,0.01 1.8255,-3.9687 3.8702,-8.842 z m 186.05177,4.0576 c 12.7332,-6.3862 25.9171,-14.7411 37.1726,-23.557 4.2762,-3.3493 8.5917,-6.9882 8.5917,-7.2446 0,-0.1163 -2.9261,-3.5315 -6.5024,-7.5894 l -6.5024,-7.3779 -0.714,0.5844 c -8.8601,7.2523 -13.2095,10.5336 -19.754,14.9031 -7.2829,4.8624 -16.9045,10.3574 -24.0435,13.7316 -1.75427,0.8292 -3.19077,1.6008 -3.19207,1.7147 0,0.1139 1.8431,4.2225 4.09887,9.1302 l 4.1015,8.9231 1.8065,-0.824 c 0.9936,-0.4532 3.2153,-1.5306 4.9372,-2.3942 z m -594.31567,-22.1181 c 4.68,-2.1206 8.5538,-3.9003 8.6085,-3.9549 0.055,-0.055 -0.591,-1.6166 -1.4349,-3.4711 -6.5669,-14.4315 -15.1426,-36.047 -19.3507,-48.7744 -0.4503,-1.3621 -0.9396,-2.4765 -1.0873,-2.4765 -0.3597,0 -18.3069,6.1319 -18.5464,6.3366 -0.2034,0.1738 2.5616,8.22 5.8965,17.1584 3.953,10.5953 9.7594,24.689 14.8745,36.1047 1.3524,3.0182 1.5457,3.3191 2.0134,3.1357 0.2846,-0.1116 4.3465,-1.9379 9.0264,-4.0585 z m -319.3034,-12.3425 c 5.113,-1.3386 9.3684,-2.5101 9.4564,-2.6035 0.088,-0.093 -0.5677,-2.9131 -1.4572,-6.2659 -3.211,-12.1041 -7.2556,-29.5176 -10.1176,-43.561 -1.1361,-5.5744 -1.6802,-7.7659 -1.94,-7.8145 -0.4045,-0.076 -18.9737,3.6093 -19.1682,3.8039 -0.2839,0.2838 4.5637,22.9263 7.8735,36.7766 2.5204,10.5468 5.5656,22.098 5.8256,22.098 0.1271,0 4.4144,-1.0951 9.5275,-2.4336 z m 1301.42347,-9.2856 c 2.9699,-10.448 6.237,-24.2246 8.5753,-36.1598 1.4633,-7.4693 3.3049,-18.4014 3.1294,-18.5769 -0.074,-0.074 -3.0877,-0.5737 -6.6964,-1.1098 -3.6088,-0.5361 -7.7762,-1.1551 -9.261,-1.3755 -3.9901,-0.5924 -3.6834,-0.7022 -4.0251,1.4407 -2.8911,18.132 -7.0796,36.971 -11.9093,53.5651 l -0.4906,1.6856 4.4823,1.2979 c 2.4653,0.7138 6.7683,1.9642 9.5623,2.7786 2.794,0.8144 5.1149,1.4562 5.1576,1.4263 0.043,-0.03 0.7066,-2.2674 1.4755,-4.9722 z m 305.0097,-12.0298 c 2.3741,-16.3361 4.9822,-39.9045 5.7811,-52.2429 l 0.077,-1.1889 -1.3974,-0.1471 c -2.5493,-0.2685 -18.3589,-1.4263 -18.4351,-1.3501 -0.041,0.041 -0.3124,2.873 -0.6028,6.2929 -1.3317,15.685 -2.938,29.6588 -5.2467,45.6439 -0.5291,3.6629 -0.9108,6.7079 -0.8484,6.7666 0.062,0.059 4.4569,0.7829 9.7655,1.6095 8.4987,1.3231 9.6741,1.4554 9.8365,1.1074 0.1013,-0.2174 0.583,-3.1385 1.0703,-6.4913 z m -974.85947,-18.6265 c 3.994,-3.539 7.2605,-6.5108 7.2591,-6.604 0,-0.093 -0.9228,-1.2553 -2.0473,-2.5825 -11.1357,-13.1421 -21.5205,-27.994 -29.7096,-42.4895 -0.6142,-1.0871 -1.2406,-1.9443 -1.3921,-1.905 -0.1514,0.039 -4.1275,2.1651 -8.8356,4.724 l -8.5602,4.6526 0.6119,1.0624 c 7.9482,13.8011 13.4048,22.1639 21.575,33.0665 5.1959,6.9335 13.2542,16.7272 13.6439,16.582 0.1062,-0.04 3.4609,-2.9675 7.4549,-6.5065 z m 369.23477,-5.0606 c 3.6097,-6.2261 4.7663,-8.343 6.9729,-12.7619 6.3814,-12.7794 10.3864,-23.6113 13.6647,-36.957 1.2244,-4.9843 1.849,-8.1819 1.6392,-8.3917 -0.074,-0.074 -4.4465,-0.8906 -9.7175,-1.8153 -7.6945,-1.3499 -9.6244,-1.6153 -9.7905,-1.3466 -0.1137,0.184 -0.2843,0.8587 -0.3791,1.4991 -0.7718,5.2175 -5.2242,19.7553 -8.3691,27.3265 -2.7762,6.6837 -8.1755,17.3564 -11.3617,22.4583 -0.1737,0.2781 -0.2629,0.5522 -0.1984,0.6091 0.1003,0.088 4.7008,2.8366 14.5954,8.7187 1.2573,0.7474 2.3432,1.3587 2.413,1.3584 0.07,0 0.3088,-0.3143 0.5311,-0.6976 z m -720.21057,-55.9495 c 5.013,-1.1218 9.2444,-2.0848 9.4031,-2.14 0.2109,-0.073 0.1929,-0.4988 -0.067,-1.5798 -0.9097,-3.7876 -4.5051,-22.2563 -5.5295,-28.4036 -1.286,-7.7178 -2.6725,-17.1911 -3.4553,-23.6094 -0.2888,-2.3679 -0.5672,-4.3475 -0.6187,-4.3989 -0.052,-0.052 -4.5053,0.3913 -9.8974,0.9841 l -9.8039,1.0777 v 0.6913 c 0,2.0206 2.7388,21.1374 4.4733,31.2242 1.3381,7.7808 5.082,26.5662 5.5559,27.8765 0.063,0.1746 0.2746,0.3175 0.4698,0.3175 0.1952,0 4.4565,-0.9178 9.4695,-2.0396 z m -303.3055,-16.7645 c 4.6101,-0.5629 8.6544,-1.083 8.9873,-1.156 0.5703,-0.1249 0.5959,-0.2089 0.4431,-1.4527 -1.9501,-15.8669 -3.9052,-37.1728 -4.7677,-51.95663 -0.2114,-3.6242 -0.4144,-5.462 -0.6116,-5.5377 -0.4268,-0.1637 -19.3804,0.8068 -19.576,1.0024 -0.555,0.555 2.0678,32.54993 4.2417,51.74273 1.0799,9.5343 0.8852,8.6972 1.9838,8.5251 0.5046,-0.079 4.6893,-0.6043 9.2994,-1.1672 z m 1340.91547,-19.9944 c -0.2061,-16.9432 -0.9115,-28.73123 -2.664,-44.51343 -0.4024,-3.6245 -0.479,-3.943 -0.9642,-4.0126 -0.2899,-0.042 -4.7247,0.4442 -9.8552,1.0795 -5.1304,0.6353 -9.3914,1.1551 -9.4688,1.1551 -0.077,0 -0.074,0.3714 0.01,0.8255 0.226,1.251 1.109,9.8843 1.5526,15.1804 0.8482,10.12793 1.1799,17.63773 1.3068,29.58703 0.073,6.8453 0.1776,12.5889 0.2331,12.7635 0.078,0.2469 2.3143,0.3175 10.0515,0.3175 h 9.9505 z m 296.1352,-5.207 c -0.226,-10.0761 -0.6083,-21.40723 -0.9191,-27.24143 -0.5452,-10.2335 -1.6798,-25.7708 -1.898,-25.9935 -0.074,-0.076 -19.7703,1.4873 -19.8361,1.5744 -0.014,0.019 0.2362,3.3869 0.5574,7.4835 1.0701,13.6526 1.7184,27.37123 2.0398,43.16103 l 0.1719,8.4455 h 10.0254 10.0254 z M 672.43083,1018.126 c 5.0049,-1.5255 9.1614,-2.8353 9.2366,-2.9105 0.075,-0.075 -0.3963,-2.0002 -1.0479,-4.2776 -4.3027,-15.03803 -7.356,-31.49523 -8.9208,-48.08183 -0.224,-2.3744 -0.4267,-4.3341 -0.4504,-4.355 -0.045,-0.039 -19.8478,1.6178 -19.8649,1.6622 -0.1536,0.3972 1.5083,15.2236 2.323,20.726 1.4691,9.9201 4.0198,22.17173 6.5873,31.63923 1.9933,7.3506 2.3985,8.6044 2.7398,8.4798 0.1637,-0.06 4.3924,-1.3567 9.3973,-2.8823 z m 439.27367,-20.50043 c 6.5639,-1.4026 9.2075,-2.0656 9.2075,-2.3089 0,-0.6813 -2.787,-11.2085 -3.8195,-14.4274 -3.6746,-11.4552 -9.8956,-24.1425 -16.9355,-34.5388 -2.6687,-3.9411 -6.0079,-8.5024 -6.229,-8.5088 -0.148,0 -14.6907,11.18 -15.5202,11.9361 -0.1173,0.1069 1.0917,2.0164 2.6867,4.2433 4.0732,5.687 6.9676,10.486 10.2302,16.9622 4.2821,8.4996 6.6811,14.953 8.9516,24.0801 1.0946,4.4 1.2288,4.7665 1.7044,4.653 0.284,-0.068 4.6597,-1.0087 9.7238,-2.0908 z m -741.33957,-55.3838 4.7219,-0.165 0.1725,-11.4025 c 0.2447,-16.1691 0.846,-29.2768 1.9263,-41.9871 0.2494,-2.9337 0.4308,-5.3626 0.4031,-5.3976 -0.028,-0.035 -3.9269,-0.4029 -8.665,-0.8176 -4.7381,-0.4147 -9.1983,-0.8209 -9.9117,-0.9026 l -1.297,-0.1486 -0.163,1.6012 c -0.3534,3.4705 -1.1832,15.4442 -1.557,22.4665 -0.4721,8.8681 -0.9229,30.5545 -0.7124,34.2711 l 0.15,2.6487 h 5.1052 c 2.8079,0 7.2301,-0.075 9.8271,-0.1658 z m 1021.75527,-24.0221 c 6.3173,-1.7417 9.4613,-2.7193 9.4615,-2.9421 0,-0.4521 -2.2379,-8.2307 -4.0702,-14.1444 -4.1849,-13.5063 -10.081,-29.6383 -15.1485,-41.4469 l -0.8913,-2.077 -1.0573,0.4664 c -0.5816,0.2564 -4.6568,2.0165 -9.056,3.9113 -4.3992,1.8947 -8.0317,3.5443 -8.0722,3.6656 -0.04,0.1214 0.3407,1.1819 0.8471,2.3567 5.9382,13.7773 12.8274,33.3821 17.1509,48.8069 0.6164,2.1994 1.178,4.0018 1.2478,4.0054 0.07,0 4.3846,-1.1673 9.5882,-2.6019 z m -351.979,-12.2046 c 2.2726,-4.8588 4.0818,-8.8845 4.0204,-8.9459 -0.2735,-0.2735 -5.4723,-2.4647 -8.5936,-3.622 -7.7124,-2.8596 -15.6671,-4.7469 -24.003,-5.6948 -3.5532,-0.404 -14.70637,-0.405 -18.03387,0 -5.3529,0.649 -13.9935,2.3992 -14.5393,2.945 -0.1322,0.1322 1.0496,4.2402 5.0203,17.4503 l 0.5046,1.679 2.8562,-0.6953 c 5.443,-1.3248 8.367,-1.6351 15.30207,-1.6237 5.2177,0.01 6.9841,0.1088 9.906,0.5619 6.732,1.0439 14.5373,3.3104 20.574,5.9742 1.397,0.6164 2.6106,1.0502 2.697,0.9639 0.086,-0.086 2.0165,-4.1323 4.2892,-8.9911 z m 657.6683,0.4134 c 3.975,-0.6585 4.2545,-0.7409 4.2545,-1.2542 0,-1.4082 -3.474,-19.1435 -5.966,-30.4571 -2.3905,-10.8527 -6.4735,-27.6795 -6.8784,-28.3464 -0.081,-0.133 -3.0332,0.6094 -16.4038,4.1252 l -2.9592,0.7781 0.8828,3.3396 c 1.9028,7.1971 4.9524,20.2559 7.2158,30.8985 0.9459,4.4475 4.5508,23.0402 4.5508,23.471 0,0.032 2.4861,-0.3711 5.5245,-0.8958 3.0385,-0.5248 7.4391,-1.2713 9.779,-1.6589 z m -1025.20747,-6.064 c 0,-0.074 0.3478,-2.5435 0.7729,-5.4886 2.1875,-15.1556 5.6904,-30.5322 10.205,-44.7967 1.9164,-6.0551 1.8736,-5.855 1.3004,-6.0829 -2.2569,-0.8971 -18.3887,-6.1632 -18.4693,-6.0291 -0.2069,0.3438 -3.457,10.9258 -4.5782,14.906 -1.62,5.7509 -3.5323,13.5709 -4.8757,19.939 -1.8351,8.6985 -4.453,24.9448 -4.0798,25.318 0.1501,0.15 17.4741,2.2967 18.8992,2.3419 0.4541,0.014 0.8255,-0.034 0.8255,-0.1076 z m -286.149,-77.7808 c 2.5607,-13.1577 6.9112,-31.035 11.1104,-45.6565 2.5887,-9.0138 2.5878,-9.0104 2.4353,-9.163 -0.15,-0.15 -18.8137,-5.9575 -18.8881,-5.8773 -0.028,0.03 -0.7393,2.3975 -1.5813,5.2613 -4.5955,15.63 -8.7122,32.108 -11.9775,47.9425 -0.6698,3.2481 -1.2018,5.9111 -1.1823,5.9179 0.5,0.1732 18.5272,3.755 18.9873,3.7724 0.6359,0.024 0.6819,-0.068 1.0962,-2.1973 z m 958.32467,-14.198 c 4.3501,-2.602 8.0639,-4.874 8.2529,-5.0489 0.8114,-0.7507 -13.9077,-22.9236 -24.8664,-37.4586 -4.7741,-6.3321 -9.8338,-12.702 -10.0823,-12.693 -0.1061,0 -3.6487,2.794 -7.8724,6.2003 l -7.6796,6.1935 2.617,3.2611 c 9.4009,11.7146 20.8367,27.9118 28.3631,40.1723 1.7625,2.8711 2.7842,4.3038 3.0127,4.2244 0.1901,-0.066 3.9048,-2.2491 8.255,-4.8511 z m 317.3322,-17.0189 c 5.0013,-1.7674 9.125,-3.2375 9.1639,-3.2669 0.095,-0.072 -3.943,-11.113 -6.5473,-17.9037 -4.3555,-11.3563 -12.1598,-30.1438 -15.1542,-36.481 l -0.9753,-2.0641 -8.89,4.0212 c -4.8895,2.2116 -8.9792,4.056 -9.0883,4.0987 -0.109,0.043 0.9601,2.7052 2.3758,5.9168 6.2435,14.1637 13.8031,33.1087 18.4199,46.1619 0.5324,1.5052 1.1086,2.7305 1.2841,2.7305 0.1751,0 4.4102,-1.446 9.4114,-3.2134 z m -949.45607,-6.1846 c 7.457,-12.5649 16.6411,-25.7576 26.0535,-37.425 l 3.4512,-4.2779 -5.7587,-4.8549 c -3.1673,-2.6702 -6.602,-5.5717 -7.6326,-6.448 l -1.8738,-1.5931 -2.1454,2.598 c -10.7171,12.9776 -22.331,29.7198 -31.2687,45.076 l -1.7895,3.0747 8.6793,4.9546 8.6794,4.9545 0.4083,-0.6799 c 0.2245,-0.374 1.6632,-2.7945 3.197,-5.379 z m 556.58417,-69.469 c 2.5993,-2.794 5.2177,-5.6177 5.8187,-6.2749 l 1.0927,-1.1949 -1.6092,-1.5007 c -5.3769,-5.0146 -15.5713,-13.7279 -22.6912,-19.3946 -6.9311,-5.5165 -19.2116,-14.6231 -23.0261,-17.075 l -0.6741,-0.4334 -5.1436,7.5698 c -2.8289,4.1633 -5.355,7.8739 -5.6135,8.2456 l -0.47,0.6758 3.8747,2.7342 c 12.6102,8.8983 26.5627,20.0644 37.5296,30.0346 l 4.191,3.8101 0.9975,-1.0582 c 0.5487,-0.5821 3.1243,-3.3444 5.7235,-6.1384 z m -848.29497,-5.2735 c 4.8154,-11.7256 15.1553,-33.5931 22.2752,-47.1089 l 2.3054,-4.3764 -0.5703,-0.3524 c -1.369,-0.8459 -16.9866,-9.1058 -17.0584,-9.0218 -0.7232,0.8461 -11.1342,21.527 -15.2054,30.205 -4.9385,10.5263 -11.0412,24.52 -10.7989,24.7623 0.2034,0.2034 17.8101,7.4622 18.1268,7.4733 0.1499,0 0.5664,-0.7063 0.9256,-1.5811 z m 364.943,-10.4769 c 11.481,-9.6497 27.0151,-20.7841 40.386,-28.9477 2.0257,-1.2367 3.8207,-2.3727 3.9889,-2.5242 0.4249,-0.383 -9.397,-17.0472 -10.0338,-17.0238 -0.8771,0.032 -15.2049,9.19 -23.4409,14.9824 -10.6453,7.4869 -26.3129,19.7648 -26.2377,20.5611 0.052,0.5449 12.6339,15.0874 12.9121,14.9236 0.1466,-0.086 1.238,-0.9733 2.4254,-1.9714 z m 826.82667,-17.8388 c 4.7186,-2.6182 8.5793,-4.8519 8.5793,-4.964 0,-0.2617 -5.0211,-9.1661 -8.8104,-15.6244 -9.1036,-15.5156 -22.2419,-36.2465 -22.8286,-36.0213 -0.5137,0.1971 -16.367,10.8135 -16.367,10.9604 0,0.073 0.8955,1.4722 1.9899,3.1095 8.1058,12.1272 21.4715,34.1883 27.8489,45.9665 0.3971,0.7335 0.7865,1.3335 0.8653,1.3335 0.079,0 4.004,-2.1421 8.7226,-4.7602 z m -441.8937,-34.3244 c 2.3073,-4.7929 4.195,-8.7692 4.195,-8.8362 0,-0.067 -1.6288,-0.899 -3.6195,-1.8489 -8.5662,-4.0874 -20.3283,-9.0644 -30.0355,-12.709 -6.9816,-2.6212 -22.9374,-7.9526 -23.3392,-7.7984 -0.1647,0.063 -1.1834,3.0712 -2.264,6.6845 -1.0805,3.6133 -2.35,7.8503 -2.8211,9.4156 l -0.8566,2.8459 6.0045,1.9422 c 14.6134,4.7267 29.8607,10.7317 43.3424,17.07 2.6543,1.2478 4.9099,2.1968 5.0125,2.1087 0.1026,-0.088 2.0742,-4.0816 4.3815,-8.8744 z m -281.46747,-7.2428 c 15.591,-5.6501 33.31,-10.6776 47.9821,-13.6143 0.8032,-0.1607 1.4624,-0.4271 1.4648,-0.5918 0,-0.1647 -0.8263,-4.5685 -1.8415,-9.7862 l -1.8458,-9.4867 -1.0576,0.1444 c -5.0912,0.6949 -23.1657,5.2881 -34.2485,8.7036 -9.6738,2.9812 -24.1026,8.0844 -23.9504,8.4708 0.041,0.1039 1.6649,4.262 3.6087,9.2403 1.9438,4.9782 3.6405,9.0513 3.7704,9.0513 0.1299,0 2.8829,-0.9591 6.1178,-2.1314 z m 165.88337,-18.3791 c 0.4395,-2.7255 2.4329,-18.6883 2.3448,-18.7764 -0.1477,-0.1478 -7.0503,-0.981 -13.1217,-1.5839 -12.9364,-1.2846 -26.1418,-1.8727 -39.37,-1.7533 l -8.76287,0.079 0.058,1.651 c 0.032,0.9081 0.1306,5.3944 0.2198,9.9695 l 0.1621,8.3185 h 10.19407 c 15.9522,0 32.0146,0.9605 44.2302,2.6377 3.985,0.5472 3.8675,0.563 4.0459,-0.5438 z m -576.02297,-18.542 c 8.5441,-12.5603 18.9987,-26.6546 29.2501,-39.4335 1.4008,-1.7462 2.4954,-3.2586 2.4324,-3.3608 -0.2181,-0.3537 -15.052,-12.3872 -15.27,-12.3872 -0.3675,0 -9.3153,11.3311 -16.3471,20.701 -7.6638,10.2122 -19.55,27.1459 -19.6227,27.9553 -0.017,0.1964 3.5635,2.7631 8.0964,5.8031 4.4704,2.9981 8.149,5.4586 8.1747,5.4678 0.026,0.01 1.5044,-2.1263 3.2862,-4.7457 z m 1067.07797,-21.286 c 4.1608,-3.2904 7.6035,-6.0917 7.6505,-6.2251 0.1531,-0.4351 -12.2584,-15.6048 -21.3924,-26.1464 -4.6086,-5.3188 -8.7268,-9.936 -14.2088,-15.9304 l -3.7673,-4.1194 -7.219,6.7535 c -3.9704,3.7145 -7.2189,6.8447 -7.2189,6.9559 0,0.1113 0.8369,1.0976 1.8597,2.1918 9.2748,9.9225 24.978,28.2013 34.0609,39.6476 1.2461,1.5703 2.3566,2.855 2.4678,2.855 0.1113,0 3.6066,-2.6921 7.7675,-5.9825 z m -975.02617,-85.5995 c 6.2059,-5.7479 12.5266,-11.4043 18.2803,-16.3595 2.1654,-1.8648 3.9705,-3.4729 4.0114,-3.5735 0.079,-0.1941 -12.2931,-15.0512 -12.6402,-15.1791 -0.3093,-0.114 -11.4597,9.6062 -20.311,17.7057 -4.6547,4.2594 -17.1649,16.239 -21.177,20.2789 l -3.2539,3.2764 7.1608,7.0469 7.1607,7.0469 7.6501,-7.5889 c 4.2076,-4.1739 10.111,-9.8681 13.1188,-12.6538 z m 894.05257,-2.8962 c 3.224,-3.557 5.8617,-6.5429 5.8617,-6.6355 0,-0.092 -1.9716,-1.9298 -4.3815,-4.0828 -10.6201,-9.4886 -21.6365,-18.7823 -32.1945,-27.1603 -9.6854,-7.6856 -9.698,-7.6949 -10.0599,-7.4431 -0.2572,0.1789 -5.9559,7.5144 -11.3559,14.6174 l -0.7059,0.9286 1.5994,1.2191 c 10.6526,8.1201 27.7681,22.3608 39.3096,32.7069 l 4.4363,3.9769 0.8145,-0.83 c 0.448,-0.4565 3.4523,-3.7402 6.6762,-7.2972 z m -817.91297,-57.8811 c 13.09,-8.9379 31.2215,-20.3442 41.008,-25.7977 0.9417,-0.5248 1.7645,-1.0388 1.8285,-1.1423 0.1065,-0.1724 -9.2677,-16.6478 -9.7429,-17.1233 -0.5729,-0.5732 -28.0299,16.3753 -42.3119,26.118 -2.794,1.906 -5.9632,4.0568 -7.0427,4.7795 -1.0796,0.7228 -1.9654,1.4099 -1.9685,1.5269 0,0.117 2.5369,3.8047 5.6445,8.1948 3.5756,5.0511 5.7713,7.9355 5.9798,7.8555 0.1812,-0.07 3.1535,-2.0547 6.6052,-4.4114 z m 722.14777,-14.3685 c 4.8433,-7.5544 5.3163,-8.3883 4.9154,-8.666 -1.5508,-1.0745 -12.4731,-7.8254 -18.3505,-11.3424 -12.8475,-7.6877 -33.4782,-19.1531 -33.8204,-18.7956 -0.091,0.095 -1.8457,3.3732 -3.8993,7.2848 -2.0537,3.9116 -4.1147,7.8163 -4.58,8.6771 l -0.846,1.565 1.8244,0.9497 c 11.8903,6.19 32.3507,18.0279 44.874,25.9631 2.4429,1.5479 4.4601,2.7939 4.4825,2.7688 0.023,-0.025 2.4524,-3.8071 5.3999,-8.4045 z m -620.60387,-42.3167 c 13.6709,-6.0985 28.4476,-12.0564 42.8443,-17.2746 3.1782,-1.1519 5.7785,-2.1775 5.7785,-2.279 0,-0.1015 -1.4287,-4.2812 -3.175,-9.2881 -1.7462,-5.0069 -3.175,-9.1377 -3.175,-9.1796 0,-0.5624 -18.1179,6.1391 -31.7938,11.76 -10.4477,4.294 -24.6196,10.5104 -24.6846,10.8277 -0.065,0.3189 8.085,17.9717 8.2987,17.9739 0.114,0 2.7721,-1.1419 5.9069,-2.5403 z m 514.46327,-13.3325 c 1.9876,-4.7498 3.6688,-8.7778 3.736,-8.9512 0.1465,-0.378 -0.1268,-0.4997 -9.8365,-4.3835 -8.6702,-3.468 -17.286,-6.7236 -25.4,-9.5976 -6.7789,-2.4012 -21.0884,-7.1667 -21.5195,-7.1667 -0.1694,0 -0.9732,2.0976 -1.825,4.7625 -3.3365,10.4378 -4.3415,13.6568 -4.3406,13.9031 0,0.1416 4.201,1.6633 9.3345,3.3815 14.3626,4.8075 31.3641,11.1263 42.4806,15.7886 2.1876,0.9175 3.4884,1.3406 3.5929,1.1687 0.09,-0.1481 1.7901,-4.1556 3.7776,-8.9054 z m -404.62647,-24.1052 c 16.4806,-3.938 31.8099,-7.0188 46.9901,-9.4436 3.2829,-0.5244 6.0567,-1.0277 6.1638,-1.1184 0.2357,-0.1995 -2.5812,-19.0779 -2.8983,-19.4249 -0.4967,-0.5433 -23.3164,3.5164 -40.6036,7.2236 -4.0883,0.8767 -18.8821,4.3359 -18.9943,4.4414 -0.039,0.037 1.0375,4.4276 2.3926,9.757 2.0478,8.0537 2.5316,9.6693 2.8653,9.5675 0.2208,-0.067 2.0588,-0.5186 4.0844,-1.0026 z m 288.37727,-3.0093 c 0.078,-0.3143 1.008,-4.5148 2.0659,-9.3345 1.058,-4.8196 1.9798,-8.9449 2.0486,-9.1673 0.1436,-0.4646 0.026,-0.4939 -10.6788,-2.6637 -14.6254,-2.9645 -28.8167,-5.3698 -43.307,-7.3401 -2.5844,-0.3514 -4.9928,-0.6394 -5.3518,-0.6399 h -0.6529 l -1.1925,9.5885 c -0.6559,5.2737 -1.1908,9.7146 -1.1887,9.8687 0,0.1678 1.3539,0.4543 3.3694,0.7141 15.0851,1.9445 40.0882,6.2895 51.8795,9.0156 2.7115,0.6268 2.8425,0.6251 3.0083,-0.04 z m -162.13917,-14.1778 c 7.379,-0.2992 34.64517,-0.3633 40.79417,-0.096 l 4.0912,0.178 0.161,-3.1439 c 0.089,-1.7292 0.2354,-6.2399 0.3264,-10.024 l 0.1656,-6.8802 -4.4177,-0.1676 c -6.8431,-0.2595 -32.37247,-0.1992 -40.92837,0.097 -9.1084,0.3151 -15.1418,0.629 -15.3092,0.7964 -0.066,0.067 0.1072,4.4552 0.3859,9.7528 0.2788,5.2976 0.5069,9.735 0.5069,9.8609 0,0.1332 1.6183,0.158 3.8736,0.059 2.1304,-0.093 6.7881,-0.2879 10.3505,-0.4324 z"
       id="path5028" /></g></svg>
