<?xml version="1.0" encoding="UTF-8" standalone="no"?>
<!-- Created with Inkscape (http://www.inkscape.org/) -->

<svg
   width="1920"
   height="1920"
   viewBox="0 0 507.99999 508"
   version="1.1"
   id="svg5"
   inkscape:version="1.2.2 (b0a8486541, 2022-12-01)"
   sodipodi:docname="inspiral.svg"
   xml:space="preserve"
   xmlns:inkscape="http://www.inkscape.org/namespaces/inkscape"
   xmlns:sodipodi="http://sodipodi.sourceforge.net/DTD/sodipodi-0.dtd"
   xmlns="http://www.w3.org/2000/svg"
   xmlns:svg="http://www.w3.org/2000/svg"><sodipodi:namedview
     id="namedview7"
     pagecolor="#ffffff"
     bordercolor="#999999"
     borderopacity="1"
     inkscape:showpageshadow="0"
     inkscape:pageopacity="0"
     inkscape:pagecheckerboard="0"
     inkscape:deskcolor="#d1d1d1"
     inkscape:document-units="px"
     showgrid="false"
     inkscape:zoom="0.30408248"
     inkscape:cx="618.25331"
     inkscape:cy="836.94398"
     inkscape:window-width="1920"
     inkscape:window-height="1011"
     inkscape:window-x="1600"
     inkscape:window-y="32"
     inkscape:window-maximized="1"
     inkscape:current-layer="layer1" /><defs
     id="defs2" /><g
     inkscape:label="Layer 1"
     inkscape:groupmode="layer"
     id="layer1"><path
       style="fill:#ffffff;stroke-width:0.211667"
       d="m 256.20663,507.83624 c -4.94771,0.0401 -9.75783,0.0401 -10.68916,0 -0.93134,-0.0401 -3.55072,-0.1752 -5.82084,-0.30019 -2.27012,-0.12499 -6.27063,-0.41958 -8.88999,-0.65466 -2.61939,-0.23506 -7.20252,-0.75292 -10.18473,-1.15079 -2.98222,-0.39785 -7.37428,-1.05719 -9.76014,-1.46518 -2.38585,-0.40799 -5.99423,-1.08132 -8.0186,-1.49627 -2.02439,-0.41497 -5.99431,-1.31925 -8.82204,-2.0095 -2.82773,-0.69027 -7.01873,-1.78545 -9.31333,-2.43376 -2.2946,-0.64832 -5.83888,-1.70805 -7.87617,-2.35496 -2.03729,-0.6469 -5.70442,-1.89112 -8.14917,-2.7649 -2.44475,-0.87378 -5.98676,-2.19816 -7.87113,-2.94306 -1.88439,-0.74487 -4.78952,-1.93438 -6.45585,-2.64333 -1.66633,-0.70896 -4.60131,-2.00474 -6.52218,-2.87949 -1.92088,-0.87478 -5.54038,-2.62334 -8.04334,-3.88568 -2.50295,-1.26233 -5.88433,-3.02399 -7.51416,-3.91479 -1.62984,-0.8908 -4.4397,-2.47917 -6.24417,-3.52971 -1.80446,-1.05057 -4.66195,-2.77093 -6.34999,-3.82306 -1.68804,-1.05213 -4.78367,-3.05526 -6.87918,-4.45142 -2.0955,-1.39615 -5.1435,-3.49123 -6.77332,-4.65575 -1.62984,-1.16451 -4.15397,-3.02595 -5.60918,-4.13654 -1.4552,-1.11057 -4.07458,-3.16435 -5.82083,-4.56394 -1.74625,-1.39958 -4.50499,-3.6899 -6.13053,-5.08958 -1.62554,-1.39971 -4.14966,-3.62797 -5.60916,-4.95171 -1.4595,-1.32375 -4.01961,-3.75262 -5.68913,-5.3975 -1.66952,-1.64489 -4.52702,-4.51572 -6.35,-6.37964 -1.82298,-1.86391 -4.46237,-4.67379 -5.86531,-6.24416 -1.40294,-1.57038 -3.44646,-3.90299 -4.54117,-5.18357 -1.0947,-1.28058 -3.48866,-4.20889 -5.31992,-6.50735 -1.83126,-2.29845 -4.46241,-5.72745 -5.847,-7.62 -1.3846,-1.89254 -3.46306,-4.82211 -4.6188,-6.51015 -1.15574,-1.68804 -2.96923,-4.40267 -4.02998,-6.0325 -1.06074,-1.62983 -3.07173,-4.86833 -4.46887,-7.19667 -1.39714,-2.32833 -3.41475,-5.80496 -4.48357,-7.72583 -1.06883,-1.92088 -3.30063,-6.20713 -4.95956,-9.525 -1.65893,-3.31788 -3.85747,-7.9375 -4.88563,-10.26583 -1.02817,-2.32834 -2.65334,-6.18596 -3.61149,-8.5725 -0.95815,-2.38655 -2.41163,-6.19655 -3.22995,-8.46667 -0.81832,-2.27013 -2.02908,-5.79438 -2.69057,-7.83167 -0.66149,-2.03729 -1.72641,-5.51391 -2.36649,-7.72583 -0.64008,-2.21192 -1.72272,-6.26004 -2.40588,-8.99583 -0.68316,-2.7358 -1.57773,-6.5458 -1.98795,-8.46667 -0.41021,-1.92088 -1.07678,-5.30225 -1.48126,-7.51417 -0.40448,-2.21191 -0.97522,-5.64091 -1.26832,-7.62 -0.2931,-1.97908 -0.72502,-5.12233 -0.95982,-6.985 C 1.56397,283.10877 1.18173,279.48927 0.94935,276.9281 0.71696,274.36693 0.40829,270.46168 0.26341,268.24977 0.11221,265.94122 0,259.85515 0,253.96227 c 0,-5.89289 0.11221,-11.97896 0.26341,-14.2875 0.14488,-2.21192 0.45355,-6.11717 0.68594,-8.67834 0.23238,-2.56116 0.61462,-6.18066 0.84942,-8.04333 0.2348,-1.86267 0.66672,-5.00592 0.95982,-6.985 0.2931,-1.97908 0.86384,-5.40808 1.26832,-7.62 0.40448,-2.21192 1.07105,-5.59329 1.48126,-7.51417 0.41022,-1.92087 1.30479,-5.73087 1.98795,-8.46666 0.68316,-2.7358 1.7658,-6.78392 2.40588,-8.99584 0.64008,-2.21191 1.70522,-5.68854 2.36699,-7.72583 0.66176,-2.03729 1.81984,-5.41867 2.57349,-7.51417 0.75366,-2.0955 2.08698,-5.61975 2.96294,-7.83166 0.87596,-2.21192 2.40105,-5.87905 3.38908,-8.14917 0.98804,-2.27013 2.97241,-6.5355 4.40971,-9.4786 1.43731,-2.9431 3.39416,-6.80073 4.34856,-8.5725 0.9544,-1.77177 2.63974,-4.79303 3.7452,-6.7139 1.10546,-1.92088 2.9177,-4.96888 4.02719,-6.77333 1.10949,-1.80446 3.25485,-5.13821 4.76747,-7.40834 1.51262,-2.27012 3.70305,-5.461 4.86761,-7.09083 1.16457,-1.62983 3.02406,-4.15396 4.13221,-5.60917 1.10815,-1.455201 3.08761,-3.986111 4.3988,-5.624221 1.31118,-1.63812 3.68453,-4.495618 5.2741,-6.350002 1.58957,-1.854384 4.25421,-4.847982 5.92143,-6.65244 1.66721,-1.804458 5.30104,-5.530378 8.07516,-8.279822 2.77412,-2.749442 5.80837,-5.702192 6.74277,-6.561667 0.9344,-0.859472 3.0876,-2.778497 4.78489,-4.264499 1.69728,-1.486004 4.31414,-3.707689 5.81525,-4.937083 1.50111,-1.229391 4.28638,-3.442572 6.1895,-4.918176 1.90312,-1.475607 4.99874,-3.786895 6.87917,-5.1362 1.88041,-1.349303 5.27632,-3.690815 7.54644,-5.203359 2.27013,-1.512545 5.64331,-3.682386 7.49595,-4.821873 1.85266,-1.139486 4.90066,-2.94992 6.77334,-4.023186 1.87268,-1.073267 4.97627,-2.794739 6.89686,-3.825494 1.92058,-1.030753 5.7782,-2.989133 8.5725,-4.351956 2.79428,-1.362822 6.93789,-3.284778 9.20803,-4.271016 2.27011,-0.986238 5.93724,-2.510829 8.14916,-3.38798 2.21191,-0.877151 5.73616,-2.212844 7.83166,-2.968208 2.0955,-0.755364 5.76263,-1.998695 8.14917,-2.762956 2.38654,-0.764262 6.19654,-1.912964 8.46667,-2.5526711 2.27012,-0.639707 5.6515,-1.543434 7.51416,-2.008282 1.86267,-0.464849 4.86304,-1.177663 6.6675,-1.584033 1.80446,-0.40637 4.75721,-1.024832 6.56167,-1.37436 1.80447,-0.349528 5.04296,-0.924339 7.19667,-1.277359 2.1537,-0.353019 5.67795,-0.877891 7.83166,-1.166382 2.15371,-0.2884915 5.34459,-0.6711394 7.09084,-0.8503288 1.74625,-0.1791894 4.93712,-0.46581541 7.09083,-0.63694681 2.15371,-0.1711313 6.63046,-0.4226077 9.94833,-0.5588364 3.62708,-0.1489244 8.90213,-0.1954735 13.22917,-0.1167393 3.95817,0.072022 8.81592,0.2308372 10.795,0.3529224 1.97908,0.1220852 5.69383,0.411077 8.255,0.64220391 2.56117,0.231127 6.84742,0.7026731 9.525,1.0478801 2.67758,0.3452069 6.62618,0.9174819 8.77466,1.2717229 2.14848,0.35424 5.62511,0.981565 7.72583,1.394055 2.10073,0.412489 5.86262,1.221332 8.35978,1.797427 2.49716,0.576094 6.48297,1.573653 8.85736,2.216797 2.37441,0.643144 6.14153,1.7314181 8.3714,2.4183881 2.22986,0.68697 5.5783,1.768149 7.44097,2.402619 1.86267,0.63447 5.10117,1.795422 7.19667,2.579893 2.0955,0.784471 5.83603,2.269309 8.31227,3.299642 2.47625,1.030332 6.09575,2.599816 8.04334,3.48774 1.94758,0.887925 5.77943,2.742239 8.51522,4.120699 2.73579,1.378461 6.30767,3.235495 7.9375,4.126743 1.62983,0.891248 4.82071,2.718797 7.09083,4.06122 2.27013,1.342424 5.842,3.540136 7.9375,4.883807 2.0955,1.343668 5.19113,3.393228 6.87917,4.554573 1.68804,1.161347 4.49792,3.157118 6.24417,4.435048 1.74625,1.277929 4.46087,3.329834 6.0325,4.559788 1.57162,1.229953 4.47675,3.583767 6.45583,5.230697 1.97908,1.646929 4.96307,4.212386 6.63107,5.701015 1.66802,1.488628 4.68173,4.305253 6.69716,6.259165 2.01542,1.95391 5.17505,5.11168 7.02142,7.017264 1.84635,1.905587 4.50488,4.74703 5.90781,6.31432 1.40295,1.56729 3.40483,3.849742 4.44864,5.072117 1.04379,1.222375 3.04351,3.651249 4.44379,5.397499 1.40028,1.74625 3.45464,4.36563 4.56521,5.820831 1.11059,1.45521 2.97203,3.97934 4.13654,5.60917 1.16452,1.62983 3.26246,4.67783 4.66208,6.77333 1.39965,2.0955 3.40151,5.19113 4.44858,6.87917 1.04709,1.68804 2.72754,4.47628 3.73433,6.19609 1.00677,1.71981 2.72351,4.76781 3.81495,6.77333 1.09144,2.00553 2.88929,5.45616 3.99523,7.66808 1.10592,2.21192 2.79423,5.73617 3.75177,7.83167 0.95754,2.0955 2.48785,5.59056 3.40068,7.76681 0.91284,2.17625 2.37024,5.84337 3.23871,8.14917 0.86849,2.30579 2.16554,5.90685 2.88237,8.00235 0.71683,2.0955 1.92422,5.85787 2.68309,8.36083 0.75889,2.50296 2.12744,7.50359 3.04127,11.1125 0.91381,3.60892 2.09014,8.65717 2.61404,11.21834 0.52392,2.56116 1.28518,6.65691 1.69168,9.10166 0.40653,2.44475 0.9844,6.30238 1.28418,8.5725 0.29977,2.27013 0.73267,5.98488 0.96199,8.255 0.22932,2.27013 0.58073,6.46113 0.78092,9.31334 0.27089,3.85995 0.36396,7.91878 0.36396,15.875 0,7.96006 -0.093,12.01318 -0.36419,15.875 -0.2003,2.8522 -0.55675,7.09083 -0.7921,9.41916 -0.23535,2.32834 -0.66273,5.99546 -0.94975,8.14917 -0.28702,2.15371 -0.86114,5.96371 -1.27584,8.46667 -0.4147,2.50295 -1.13115,6.4082 -1.59214,8.67833 -0.46099,2.27012 -1.4497,6.62546 -2.19714,9.67852 -0.74746,3.05306 -1.94024,7.57743 -2.65066,10.05417 -0.71039,2.47673 -2.13426,7.02727 -3.1641,10.11231 -1.02984,3.08504 -2.5981,7.50803 -3.48501,9.82885 -0.8869,2.32082 -2.31415,5.89269 -3.17165,7.9375 -0.8575,2.0448 -2.3426,5.43232 -3.30018,7.52782 -0.95758,2.0955 -2.59912,5.5245 -3.64786,7.62 -1.04875,2.0955 -2.6245,5.1435 -3.50167,6.77333 -0.87719,1.62983 -2.47252,4.49552 -3.5452,6.3682 -1.07269,1.8727 -2.88265,4.9207 -4.02214,6.77334 -1.13948,1.85265 -3.30938,5.22583 -4.82202,7.49596 -1.51261,2.27012 -3.70315,5.461 -4.86784,7.09083 -1.1647,1.62984 -3.02576,4.15396 -4.13569,5.60917 -1.10994,1.45521 -3.34013,4.28951 -4.95595,6.29844 -1.61584,2.00892 -4.62993,5.5808 -6.69798,7.9375 -2.06802,2.35669 -5.37282,5.95177 -7.34394,7.98906 -1.97112,2.03729 -5.20397,5.27579 -7.1841,7.19667 -1.98011,1.92087 -4.88289,4.64036 -6.4506,6.04329 -1.5677,1.40295 -3.89814,3.44646 -5.17872,4.54116 -1.28058,1.09472 -4.20889,3.48867 -6.50735,5.31992 -2.29845,1.83128 -5.72744,4.46242 -7.62,5.84702 -1.89254,1.3846 -4.82211,3.46306 -6.51015,4.6188 -1.68804,1.15574 -4.40267,2.96922 -6.0325,4.02996 -1.62983,1.06075 -4.86833,3.07175 -7.19667,4.46888 -2.32832,1.39715 -5.80496,3.41226 -7.72583,4.47802 -1.92088,1.06578 -5.82612,3.11671 -8.67832,4.55763 -2.85221,1.44094 -7.09597,3.48014 -9.43056,4.53157 -2.33459,1.05143 -5.97038,2.62556 -8.07953,3.49807 -2.10915,0.87249 -6.00928,2.39242 -8.66695,3.37765 -2.65769,0.9852 -6.78428,2.42832 -9.17022,3.20692 -2.38596,0.77859 -6.14364,1.93698 -8.35045,2.57418 -2.20679,0.6372 -6.25541,1.71905 -8.9969,2.40413 -2.74152,0.68506 -6.5562,1.58153 -8.47707,1.99217 -1.92088,0.41063 -5.30225,1.07753 -7.51417,1.48202 -2.21191,0.40448 -5.64091,0.97521 -7.61999,1.26831 -1.97909,0.29311 -5.12233,0.72337 -6.98501,0.95614 -1.86266,0.23277 -4.91066,0.56995 -6.77333,0.74928 -1.86267,0.17932 -5.52979,0.47227 -8.14916,0.65098 -2.65659,0.18125 -8.74034,0.35719 -13.75834,0.39787 z M 229.7483,453.74313 c 3.31787,0.0167 7.84225,-0.0652 10.05416,-0.1818 2.21192,-0.11665 5.68854,-0.35808 7.72584,-0.53653 2.03729,-0.17846 4.89479,-0.46798 6.35,-0.64341 1.4552,-0.17541 4.26508,-0.55814 6.24417,-0.85052 1.97908,-0.29237 5.72398,-0.95322 8.32197,-1.46854 2.59799,-0.51532 6.5985,-1.4104 8.88999,-1.98903 2.29152,-0.57866 4.55638,-1.17543 5.03309,-1.32616 l 0.86668,-0.27404 -3.30085,-11.17803 c -3.03446,-10.27587 -3.33505,-11.17037 -3.72422,-11.08281 -0.23282,0.0524 -2.32833,0.57565 -4.65667,1.16282 -2.32833,0.58718 -5.94783,1.40349 -8.04333,1.81404 -2.0955,0.41055 -5.81025,1.03122 -8.255,1.37929 -2.44475,0.34806 -5.87375,0.77611 -7.62,0.95125 -1.74625,0.17511 -4.99633,0.42919 -7.22241,0.56462 -2.52903,0.15386 -7.21402,0.20576 -12.48833,0.13836 -5.42881,-0.0694 -9.7913,-0.23478 -12.22508,-0.46355 -2.08128,-0.19562 -3.85312,-0.27739 -3.93743,-0.18167 -0.0843,0.0957 -0.70704,5.29378 -1.38384,11.55131 -0.6768,6.2575 -1.19096,11.41438 -1.14256,11.45971 0.0484,0.0453 1.89773,0.24236 4.10965,0.43784 2.21192,0.19545 5.45042,0.42989 7.19667,0.52095 1.74625,0.0911 5.88962,0.17922 9.2075,0.1959 z m -45.4025,-5.48634 c 0.38678,0.0138 0.6495,-0.95521 3.04226,-11.21943 1.45983,-6.26224 2.53715,-11.30889 2.43417,-11.40272 -0.10163,-0.0926 -0.89914,-0.33674 -1.77227,-0.54263 -0.87312,-0.20586 -3.34962,-0.87763 -5.50333,-1.49275 -2.15371,-0.61515 -5.34458,-1.5928 -7.09083,-2.17253 -1.74625,-0.57976 -4.49038,-1.54462 -6.09805,-2.14416 -1.60768,-0.59953 -4.7033,-1.8342 -6.87917,-2.74371 -2.17586,-0.90949 -5.33724,-2.2936 -7.02528,-3.07579 -1.68805,-0.7822 -4.54555,-2.18978 -6.35,-3.12797 -1.80446,-0.93819 -5.04296,-2.70942 -7.19667,-3.93605 -2.15371,-1.22665 -5.20171,-3.03659 -6.77333,-4.02209 -1.57163,-0.9855 -3.3304,-2.10981 -3.90838,-2.49847 -0.57798,-0.38866 -1.11302,-0.63661 -1.18898,-0.55103 -0.076,0.0856 -3.05886,4.43097 -6.62868,9.65636 -3.56981,5.22539 -6.46377,9.52278 -6.43102,9.54972 0.0328,0.0269 1.53593,0.99443 3.3404,2.14996 1.80445,1.15551 3.9952,2.53622 4.86832,3.0682 0.87313,0.53198 2.82576,1.68139 4.33918,2.55424 1.51342,0.87283 4.19197,2.36273 5.95236,3.31085 1.76038,0.94814 5.04651,2.61919 7.3025,3.71346 2.25599,1.09425 5.4353,2.5778 7.06513,3.29677 1.62984,0.71897 4.96359,2.10217 7.40834,3.0738 2.44475,0.97162 6.43421,2.44099 8.86546,3.26524 2.43126,0.82425 6.00315,1.97138 7.9375,2.54916 1.93438,0.57781 4.94579,1.42765 6.69204,1.88856 1.74624,0.46092 3.36549,0.84478 3.59833,0.85301 z m 122.21258,-10.14935 c 0.0445,0.003 1.47327,-0.62577 3.175,-1.39649 1.70176,-0.77072 4.28472,-1.99784 5.73992,-2.72693 1.4552,-0.72908 4.14055,-2.13992 5.96745,-3.13522 1.82689,-0.9953 5.01777,-2.82887 7.09083,-4.07461 2.07307,-1.24574 5.10272,-3.1478 6.73255,-4.22677 1.62983,-1.07897 4.39208,-2.98433 6.13833,-4.23412 1.74625,-1.24978 4.46088,-3.27632 6.0325,-4.5034 1.57163,-1.22709 3.91685,-3.11643 5.21164,-4.19851 1.29476,-1.0821 3.43789,-2.93315 4.7625,-4.11344 1.32459,-1.18028 4.13967,-3.84787 6.25568,-5.92798 l 3.84734,-3.78204 -3.95317,-3.87255 c -2.17422,-2.1299 -5.93448,-5.81167 -8.35612,-8.18172 l -4.40296,-4.3092 -3.32287,3.26028 c -1.82757,1.79316 -4.22775,4.07814 -5.3337,5.07774 -1.10596,0.9996 -3.2289,2.82943 -4.71763,4.06631 -1.48876,1.23687 -3.87841,3.15013 -5.31038,4.25166 -1.43195,1.10156 -3.97626,2.96905 -5.65402,4.14996 -1.67775,1.18093 -4.68207,3.18313 -6.67624,4.44932 -1.99418,1.26619 -5.32793,3.26157 -7.40833,4.43416 -2.08041,1.17259 -5.78282,3.11355 -8.22757,4.31324 -2.44475,1.1997 -4.99091,2.41071 -5.65813,2.69113 -0.66723,0.28041 -1.19111,0.57355 -1.16416,0.6514 0.0269,0.0779 2.09683,4.90963 4.59979,10.73726 2.50296,5.82763 4.58726,10.59785 4.63175,10.60052 z M 97.40263,403.59858 c 0.0879,-0.007 3.44596,-3.9678 7.46233,-8.80265 4.01638,-4.83483 7.32898,-8.86174 7.36136,-8.94867 0.0324,-0.0869 -1.39471,-1.43595 -3.17126,-2.99777 -1.77656,-1.56185 -5.02887,-4.60185 -7.22737,-6.75556 -2.1985,-2.15371 -5.40571,-5.43983 -7.12714,-7.3025 -1.72143,-1.86266 -4.33943,-4.81541 -5.81777,-6.56166 -1.47834,-1.74625 -3.67203,-4.42191 -4.87487,-5.94593 -1.20284,-1.524 -3.15343,-4.09575 -4.33464,-5.715 -1.18121,-1.61923 -3.17371,-4.46807 -4.42776,-6.33074 -1.25406,-1.86267 -3.02077,-4.57729 -3.92601,-6.0325 -0.90525,-1.45521 -1.67403,-2.67833 -1.70841,-2.71806 -0.0344,-0.0397 -4.49882,2.65892 -9.92098,5.99699 -5.42216,3.33804 -9.85848,6.16593 -9.85848,6.28419 0,0.11824 0.53913,1.08674 1.19807,2.15218 0.65893,1.06547 1.99976,3.16779 2.97961,4.67187 0.97985,1.50406 2.79091,4.17106 4.02459,5.92666 1.23368,1.75559 3.24465,4.5255 4.46882,6.15534 1.22418,1.62983 3.30444,4.31175 4.6228,5.95981 1.31837,1.64806 3.36697,4.12456 4.55244,5.50333 1.18547,1.37878 3.45957,3.93561 5.05355,5.68186 1.59398,1.74625 5.31378,5.55889 8.26622,8.47255 2.95244,2.91365 6.91539,6.65221 8.80657,8.30791 1.89117,1.6557 3.51042,3.00495 3.59833,2.99835 z M 231.86496,384.8781 c 5.36667,-0.0486 8.96584,-0.18212 11.1125,-0.41231 1.74625,-0.18728 4.5085,-0.53321 6.13835,-0.76875 1.62982,-0.23554 4.43969,-0.7156 6.24415,-1.06678 1.80446,-0.3512 4.58161,-0.96439 6.17147,-1.36267 1.58984,-0.39825 4.01873,-1.06487 5.39749,-1.48134 1.37878,-0.41648 3.60225,-1.14281 4.94104,-1.61407 1.33879,-0.47125 3.57718,-1.31269 4.97417,-1.86986 1.397,-0.55717 3.82587,-1.60063 5.3975,-2.31881 1.57162,-0.71816 4.04812,-1.9329 5.50333,-2.69943 1.45521,-0.76651 3.93171,-2.15703 5.50334,-3.09004 1.57162,-0.933 4.11816,-2.53834 5.65899,-3.5674 1.5408,-1.02908 4.11255,-2.86036 5.715,-4.06955 1.60242,-1.20917 3.81838,-2.95705 4.92434,-3.88417 1.10596,-0.92712 3.35159,-2.92686 4.99032,-4.44388 1.6387,-1.51701 4.1152,-3.98604 5.50333,-5.48676 1.38811,-1.50071 3.24779,-3.58296 4.13262,-4.62722 0.88485,-1.04424 2.68912,-3.32738 4.0095,-5.07363 1.32039,-1.74625 3.20141,-4.4033 4.18003,-5.90455 0.97862,-1.50124 2.49828,-3.97774 3.37702,-5.50333 0.87873,-1.52559 2.39579,-4.39303 3.37123,-6.37212 0.97547,-1.97908 2.42767,-5.26521 3.22714,-7.3025 0.79946,-2.03729 1.78974,-4.75191 2.20061,-6.0325 0.41089,-1.28058 1.03871,-3.42371 1.3952,-4.7625 0.35649,-1.33879 0.92958,-3.76766 1.27354,-5.3975 0.34393,-1.62983 0.81661,-4.34446 1.05037,-6.0325 0.23379,-1.68804 0.53831,-4.4947 0.67674,-6.23701 0.16095,-2.02557 0.20583,-5.15485 0.12448,-8.67833 -0.07,-3.03077 -0.2656,-6.65349 -0.4347,-8.05049 -0.1691,-1.397 -0.455,-3.44488 -0.63531,-4.55083 -0.18032,-1.10596 -0.52356,-2.96334 -0.76277,-4.1275 -0.2392,-1.16417 -0.76041,-3.35492 -1.15824,-4.86834 -0.39782,-1.51341 -1.15457,-4.05401 -1.68167,-5.64578 -0.52709,-1.59176 -1.58426,-4.35401 -2.34926,-6.13834 -0.76501,-1.7843 -2.04445,-4.44874 -2.84322,-5.92097 -0.79874,-1.47223 -2.03517,-3.6042 -2.74762,-4.73771 -0.71243,-1.13354 -1.93375,-2.97699 -2.71405,-4.09658 -0.78028,-1.11959 -2.37394,-3.22624 -3.54144,-4.68145 -1.16749,-1.45521 -3.55151,-4.1093 -5.29785,-5.89799 -1.74633,-1.78869 -4.30449,-4.21756 -5.68479,-5.3975 -1.3803,-1.17994 -3.68525,-3.00259 -5.12206,-4.05034 -1.43684,-1.04775 -3.59364,-2.51952 -4.79288,-3.27059 -1.19924,-0.75107 -3.70444,-2.14721 -5.5671,-3.10252 -1.86267,-0.95531 -4.72017,-2.26188 -6.35,-2.90348 -1.62984,-0.6416 -4.15257,-1.51165 -5.60608,-1.93343 -1.4535,-0.42178 -3.78712,-0.99642 -5.18583,-1.27697 -1.3987,-0.28056 -3.40034,-0.63375 -4.44809,-0.78489 -1.1702,-0.1688 -3.98694,-0.27409 -7.3025,-0.27298 -4.17509,10e-4 -5.97277,0.0901 -7.9375,0.39165 -1.397,0.21441 -3.97496,0.75313 -5.72881,1.19716 -1.75382,0.44402 -4.13507,1.15849 -5.29166,1.58771 -1.15657,0.42921 -3.05537,1.22219 -4.21953,1.76217 -1.16417,0.53998 -2.97392,1.44935 -4.02167,2.02082 -1.04775,0.57147 -2.8575,1.68718 -4.02167,2.47934 -1.16416,0.79217 -2.90127,2.13534 -3.86025,2.98482 -0.95897,0.84949 -2.33394,2.21127 -3.05551,3.02619 -0.72155,0.81491 -1.99648,2.40082 -2.83318,3.52425 -0.83668,1.12342 -2.0145,2.85917 -2.61734,3.85724 -0.60287,0.99807 -1.8001,3.26978 -2.66051,5.04825 -0.86042,1.77846 -2.04171,4.66676 -2.62511,6.41843 -0.58339,1.75167 -1.29957,4.37104 -1.5915,5.82083 -0.29193,1.44979 -0.64112,3.73137 -0.77599,5.07016 -0.14194,1.40896 -0.18986,3.56714 -0.11377,5.1242 0.0723,1.47953 0.32173,3.67614 0.55433,4.88137 0.23258,1.20525 0.70405,3.02317 1.04771,4.03983 0.34364,1.01665 0.95506,2.53477 1.35871,3.3736 0.40363,0.83884 1.20559,2.23954 1.78211,3.11267 0.57651,0.87312 1.60818,2.22728 2.29258,3.00926 0.68442,0.78196 1.81589,1.91307 2.51439,2.51357 0.6985,0.60052 2.11906,1.64788 3.15677,2.3275 1.03774,0.67962 2.75224,1.61445 3.81,2.07736 1.05779,0.46294 2.73285,1.07512 3.7224,1.36043 0.98954,0.2853 2.70404,0.66679 3.81,0.84774 1.10595,0.18096 3.03477,0.39328 4.28625,0.47185 l 2.27541,0.14286 0.0246,-3.35903 c 0.0135,-1.84747 0.0681,-3.19235 0.12134,-2.98862 0.0657,0.25124 0.30571,0.37041 0.74613,0.37041 h 0.64931 l -0.12023,1.74625 c -0.0661,0.96044 -0.32,2.48829 -0.56415,3.3952 -0.24416,0.90693 -0.81211,2.50296 -1.26211,3.54675 -0.45,1.04377 -1.20417,2.54751 -1.67595,3.34162 -0.47179,0.79413 -1.30637,1.94281 -1.85467,2.55264 -0.54828,0.60983 -1.55543,1.48808 -2.23812,1.95169 -0.68269,0.4636 -2.21602,1.31265 -3.40743,1.88676 -1.19139,0.57412 -3.03168,1.28843 -4.08951,1.58737 -1.05782,0.29894 -2.67707,0.65852 -3.59833,0.79908 l -1.675,0.25557 0.0559,0.63396 c 0.0308,0.34866 0.53522,5.53579 1.12103,11.52693 0.58583,5.99114 1.11296,10.94081 1.1714,10.99928 0.0585,0.0584 1.23988,-0.0581 2.62541,-0.25894 1.38551,-0.20085 3.78595,-0.68565 5.33434,-1.07732 1.54838,-0.39166 3.76773,-1.06769 4.9319,-1.50226 1.16416,-0.43457 3.36188,-1.40028 4.88382,-2.14602 1.52195,-0.74573 3.80795,-2.03319 5.08,-2.86102 1.27206,-0.82785 3.04627,-2.11668 3.94268,-2.86412 0.8964,-0.74744 2.23943,-2.04527 2.9845,-2.88411 0.74504,-0.83883 1.87384,-2.23952 2.50844,-3.11264 0.63457,-0.87313 1.56838,-2.25129 2.07511,-3.06256 0.50673,-0.8113 1.56289,-2.78873 2.347,-4.39431 0.7841,-1.60558 1.8741,-4.26686 2.42219,-5.91395 0.54809,-1.64708 1.22043,-4.05191 1.49411,-5.34405 0.27369,-1.29214 0.60846,-3.44396 0.74395,-4.78182 0.1455,-1.43678 0.18734,-3.38555 0.10223,-4.76081 -0.0792,-1.28058 -0.28723,-3.08329 -0.46219,-4.00603 -0.17497,-0.92271 -0.54697,-2.39909 -0.82667,-3.28083 -0.27969,-0.88172 -0.89643,-2.35951 -1.37054,-3.28399 -0.47411,-0.92445 -1.32624,-2.30704 -1.89361,-3.0724 -0.56739,-0.76537 -1.63449,-1.96456 -2.37132,-2.66489 -0.73684,-0.70034 -1.82868,-1.62752 -2.4263,-2.06042 -0.59762,-0.43292 -1.83587,-1.16173 -2.75166,-1.61957 -0.9158,-0.45783 -2.38197,-1.06608 -3.25817,-1.35164 -0.87619,-0.28556 -2.48839,-0.67299 -3.58271,-0.86095 -1.09429,-0.18798 -2.97296,-0.34178 -4.17483,-0.34178 h -2.1852 v -2.85086 c 0,-2.62536 0.0293,-2.84018 0.37042,-2.71604 0.20372,0.0742 0.76045,0.39895 1.23717,0.72178 0.47671,0.32282 1.18101,0.94488 1.56512,1.38236 0.38411,0.43747 0.89038,1.22889 1.12505,1.75867 l 0.42664,0.96326 0.26829,-1.31283 c 0.14755,-0.72205 0.60088,-2.12866 1.00742,-3.1258 0.40653,-0.99714 1.27601,-2.61984 1.93218,-3.606 1.01941,-1.53209 1.39922,-1.91461 2.60996,-2.6286 0.77929,-0.45955 2.13129,-1.11625 3.00442,-1.4593 0.87312,-0.34307 2.3495,-0.80012 3.28083,-1.0157 1.20464,-0.27885 2.48748,-0.38913 4.445,-0.38214 1.80905,0.007 3.36603,0.14033 4.54514,0.39075 0.98643,0.20951 2.74855,0.71271 3.91583,1.1182 1.1673,0.40551 3.1361,1.25507 4.37511,1.88794 1.23899,0.63286 3.04874,1.6815 4.02167,2.33032 0.9729,0.64882 2.62851,1.87594 3.67916,2.72692 1.05063,0.85099 3.05287,2.72227 4.44943,4.15841 1.39655,1.43613 3.31997,3.65891 4.27425,4.93949 0.95427,1.28059 2.32907,3.32448 3.05509,4.54199 0.72601,1.2175 1.77696,3.23765 2.33542,4.48921 0.55848,1.25157 1.30385,3.16055 1.6564,4.24219 0.35253,1.08163 0.87778,2.89479 1.16721,4.02922 0.28944,1.13443 0.70917,3.13468 0.93273,4.445 0.22355,1.31032 0.5191,3.81114 0.65676,5.55739 0.14686,1.8629 0.19306,4.39962 0.11181,6.13834 -0.0762,1.62983 -0.33065,4.29683 -0.56556,5.92666 -0.23488,1.62984 -0.70006,4.10634 -1.03371,5.50334 -0.33365,1.397 -0.90227,3.46149 -1.26359,4.58774 -0.36131,1.12626 -1.12723,3.19183 -1.70203,4.59019 -0.57478,1.39833 -1.61493,3.67919 -2.3114,5.06857 -0.69649,1.3894 -1.79754,3.4022 -2.44678,4.47291 -0.64927,1.07072 -1.73857,2.77675 -2.42067,3.79119 -0.68209,1.01445 -1.9801,2.79393 -2.88442,3.95442 -0.90433,1.16048 -2.58974,3.17853 -3.74538,4.48452 -1.15564,1.306 -3.07046,3.2991 -4.25515,4.4291 -1.1847,1.13 -3.3295,3.03278 -4.76623,4.2284 -1.43673,1.19562 -3.79487,3.01253 -5.24032,4.03758 -1.44543,1.02504 -3.93704,2.65361 -5.53692,3.61902 -1.59986,0.96543 -4.43285,2.5078 -6.29552,3.42749 -1.86266,0.91972 -4.57729,2.14239 -6.0325,2.71709 -1.45521,0.57471 -3.87555,1.44369 -5.37855,1.93107 -1.50299,0.48739 -4.07474,1.20868 -5.715,1.60285 -1.64025,0.39416 -4.12528,0.91194 -5.52228,1.15062 -1.397,0.23867 -3.59713,0.57237 -4.88918,0.74157 -1.29208,0.16921 -4.05433,0.4194 -6.13834,0.55601 -2.24426,0.14709 -5.472,0.1941 -7.91665,0.11527 -2.27012,-0.0732 -5.461,-0.27491 -7.09083,-0.44822 -1.62983,-0.17332 -4.43971,-0.56238 -6.24417,-0.8646 -1.80446,-0.30222 -4.94771,-0.96744 -6.985,-1.47832 -2.03729,-0.51086 -5.02182,-1.3625 -6.63228,-1.89251 -1.61046,-0.53002 -4.38259,-1.53395 -6.16027,-2.23099 -1.77769,-0.69702 -5.14572,-2.21247 -7.48452,-3.36764 -2.3388,-1.15517 -5.7103,-2.97751 -7.49223,-4.04965 -1.78192,-1.07213 -4.09711,-2.52531 -5.14486,-3.22925 -1.04775,-0.70396 -3.28613,-2.32321 -4.97417,-3.59833 -1.68804,-1.27514 -4.21217,-3.29207 -5.60917,-4.48208 -1.397,-1.19002 -3.78832,-3.36273 -5.31404,-4.82825 -1.52573,-1.46551 -3.88673,-3.89596 -5.24667,-5.40099 -1.35995,-1.50503 -3.46229,-3.94735 -4.67188,-5.42739 -1.20959,-1.48006 -3.19832,-4.08669 -4.4194,-5.79253 -1.22108,-1.70584 -2.97933,-4.29216 -3.90722,-5.74736 -0.9279,-1.45521 -2.36962,-3.83646 -3.20384,-5.29167 -0.83422,-1.45521 -2.3623,-4.36033 -3.39573,-6.45583 -1.03343,-2.0955 -2.51058,-5.33113 -3.28256,-7.19028 -0.77198,-1.85915 -2.02177,-5.1929 -2.77733,-7.40833 -0.75555,-2.21543 -1.7957,-5.59969 -2.31145,-7.52056 -0.51574,-1.92088 -1.26919,-5.15938 -1.67434,-7.19667 -0.40514,-2.03729 -0.92818,-5.03766 -1.1623,-6.6675 -0.23412,-1.62983 -0.57907,-4.48733 -0.76656,-6.35 -0.18748,-1.86266 -0.40443,-5.43454 -0.48211,-7.9375 -0.0777,-2.50296 -0.0785,-6.64633 -0.002,-9.2075 0.0767,-2.56116 0.29425,-6.18066 0.48343,-8.04333 0.18919,-1.86267 0.53743,-4.67254 0.77388,-6.24417 0.23645,-1.57162 0.71596,-4.33387 1.06558,-6.13833 0.34962,-1.80446 0.96825,-4.61433 1.37473,-6.24417 0.40648,-1.62983 1.02851,-3.96346 1.38228,-5.18583 0.35378,-1.22238 1.10696,-3.61211 1.67375,-5.31053 0.56678,-1.69841 1.54709,-4.41304 2.17847,-6.0325 0.63137,-1.61946 1.6467,-4.08747 2.25628,-5.48447 0.60958,-1.397 1.96529,-4.2545 3.0127,-6.35 1.0474,-2.0955 2.52286,-4.90538 3.2788,-6.24417 0.75593,-1.33879 2.04763,-3.52954 2.87044,-4.86833 0.82281,-1.33879 2.16213,-3.43429 2.97627,-4.65667 0.81414,-1.22237 2.34287,-3.41312 3.39717,-4.86833 1.0543,-1.45521 2.86393,-3.83646 4.0214,-5.29167 1.15746,-1.45521 2.96868,-3.6442 4.02492,-4.86443 1.05624,-1.22023 3.29743,-3.6869 4.98043,-5.4815 1.683,-1.7946 4.5405,-4.64272 6.35,-6.32916 1.8095,-1.68644 4.76638,-4.30437 6.57084,-5.81763 1.80445,-1.51325 4.95089,-4.00391 6.99208,-5.53481 2.04119,-1.53089 5.13682,-3.74124 6.87917,-4.91188 1.74235,-1.17064 4.26329,-2.79536 5.60208,-3.61049 1.33879,-0.81513 3.57717,-2.1304 4.97417,-2.92282 1.397,-0.79242 4.15925,-2.26608 6.13833,-3.27481 1.97908,-1.00872 4.93183,-2.433711 6.56167,-3.166661 1.62983,-0.73295 4.6302,-1.99909 6.6675,-2.81366 2.03729,-0.81457 5.37104,-2.04647 7.40833,-2.73757 2.03729,-0.69109 5.13292,-1.675882 6.87917,-2.18842 1.74625,-0.51254 4.74662,-1.312388 6.6675,-1.777441 1.92087,-0.465053 4.96887,-1.132829 6.77333,-1.483948 1.80446,-0.351117 4.51908,-0.829994 6.0325,-1.064167 1.51342,-0.234174 3.94229,-0.571801 5.3975,-0.750282 1.45521,-0.178482 4.31271,-0.472963 6.35,-0.654406 2.03729,-0.181441 6.94267,-0.384891 10.90083,-0.452107 4.54847,-0.07724 8.79338,-0.02931 11.53584,0.130268 2.38654,0.138866 5.76791,0.392256 7.51416,0.563088 1.74625,0.170834 5.17468,0.597582 7.61873,0.948328 2.44405,0.350747 6.3493,1.020259 8.67834,1.487807 2.32903,0.467551 5.5681,1.183894 7.19793,1.591878 1.62984,0.407983 4.43971,1.158134 6.24417,1.667004 1.80446,0.508868 4.70958,1.398968 6.45583,1.977998 1.74625,0.57903 4.48829,1.54254 6.09342,2.14112 1.60513,0.59859 4.3858,1.69939 6.17925,2.44621 1.79347,0.74682 4.33781,1.84948 5.65408,2.450361 1.31629,0.60089 3.80245,1.79791 5.5248,2.66005 1.72233,0.86214 4.61025,2.37916 6.41756,3.37116 1.80732,0.99199 4.63675,2.62006 6.28762,3.61794 1.6509,0.99787 4.76373,2.98309 6.91744,4.41159 2.15371,1.4285 5.48746,3.76464 7.40833,5.19142 1.92088,1.42677 4.68313,3.551 6.13834,4.72051 1.4552,1.16951 3.7412,3.07196 5.08,4.22767 1.33879,1.15571 4.04444,3.58997 6.01254,5.40946 1.96812,1.81949 5.27115,5.09074 7.34009,7.26944 2.06893,2.1787 5.02535,5.4172 6.56984,7.19667 1.54448,1.77946 3.87284,4.57089 5.17412,6.20318 1.30129,1.63228 3.45686,4.45063 4.79017,6.263 1.33331,1.81236 3.47567,4.85836 4.76081,6.76888 1.28511,1.91051 3.20744,4.87685 4.27183,6.59187 1.06439,1.71501 2.78649,4.63218 3.82687,6.4826 1.04038,1.85042 2.65403,4.82873 3.58591,6.61846 0.93186,1.78974 2.47019,4.92094 3.4185,6.95823 0.94829,2.03729 2.24733,4.94242 2.88673,6.45584 0.6394,1.51341 1.85537,4.56141 2.70216,6.77333 0.84679,2.21192 2.11988,5.78379 2.82911,7.9375 0.70924,2.15371 1.67564,5.22143 2.1476,6.81715 0.47195,1.59573 1.32907,4.78661 1.90472,7.09083 0.57565,2.30425 1.38862,5.85639 1.8066,7.89369 0.41795,2.03729 1.03439,5.37104 1.36984,7.40833 0.33545,2.03729 0.81557,5.32329 1.06693,7.3022 0.25133,1.97894 0.47299,3.61362 0.49257,3.63265 0.0195,0.019 4.36943,-0.42945 9.66639,-0.99661 5.29696,-0.56719 12.44071,-1.32809 15.875,-1.6909 3.43429,-0.36284 6.86329,-0.7253 7.62,-0.80546 l 1.37583,-0.14573 -0.053,-1.67761 c -0.0291,-0.92267 -0.34063,-3.68348 -0.69219,-6.13516 -0.35156,-2.45165 -0.93078,-6.0768 -1.28714,-8.05588 -0.35637,-1.97908 -0.97697,-5.16996 -1.37912,-7.09083 -0.40217,-1.92088 -1.25493,-5.588 -1.89501,-8.14917 -0.64008,-2.56117 -1.67917,-6.41879 -2.30911,-8.5725 -0.62992,-2.15371 -1.85496,-6.01133 -2.72231,-8.5725 -0.86735,-2.56117 -1.92619,-5.60623 -2.35297,-6.76681 -0.42679,-1.16057 -1.56837,-4.0657 -2.53683,-6.45583 -0.96846,-2.39013 -2.35386,-5.67919 -3.07865,-7.30903 -0.72478,-1.62983 -2.53987,-5.43983 -4.03352,-8.46666 -1.49362,-3.02684 -3.5386,-6.97971 -4.54433,-8.78417 -1.00576,-1.80446 -2.77804,-4.87819 -3.9384,-6.83053 -1.16038,-1.95232 -3.06722,-5.04795 -4.23746,-6.87916 -1.17022,-1.83121 -3.08923,-4.7106 -4.26445,-6.39864 -1.17523,-1.68805 -3.22904,-4.54555 -4.56402,-6.35 -1.335,-1.80446 -3.52357,-4.66196 -4.8635,-6.35 -1.33994,-1.68805 -3.20453,-3.97405 -4.14355,-5.08 -0.93902,-1.10596 -2.46219,-2.86809 -3.38487,-3.91584 -0.92265,-1.04775 -3.48109,-3.82772 -5.68538,-6.17771 -2.2043,-2.35 -5.49913,-5.68464 -7.32185,-7.41032 -1.8227,-1.72568 -4.31415,-4.04629 -5.53652,-5.15691 -1.22238,-1.11063 -3.22263,-2.87799 -4.445,-3.92747 -1.22238,-1.04948 -3.65125,-3.054791 -5.3975,-4.456251 -1.74625,-1.40145 -4.5085,-3.54457 -6.13834,-4.76249 -1.62983,-1.217915 -4.05871,-2.983219 -5.3975,-3.922896 -1.33879,-0.939679 -4.10104,-2.801662 -6.13833,-4.137743 -2.03729,-1.33608 -5.37104,-3.428227 -7.40833,-4.649214 -2.0373,-1.220986 -5.49779,-3.197538 -7.69,-4.392339 -2.19221,-1.194801 -6.09746,-3.19674 -8.67833,-4.448753 -2.58088,-1.252015 -6.12126,-2.899818 -7.86751,-3.661787 -1.74625,-0.761968 -4.60375,-1.954892 -6.35,-2.650943 -1.74625,-0.696048 -4.8895,-1.883899 -6.985,-2.639665 -2.0955,-0.755766 -5.19112,-1.807722 -6.87916,-2.33768 -1.68805,-0.529959 -4.40267,-1.345796 -6.0325,-1.812974 -1.62984,-0.467176 -4.67784,-1.275137 -6.77334,-1.795467 -2.0955,-0.520327 -5.19112,-1.238606 -6.87916,-1.59617 -1.68805,-0.357564 -4.39878,-0.891635 -6.02387,-1.186823 -1.62507,-0.295191 -4.91119,-0.817872 -7.3025,-1.161515 -2.39128,-0.343643 -6.30043,-0.81545 -8.68697,-1.048461 -2.38654,-0.233011 -5.95841,-0.515713 -7.9375,-0.628229 -1.97908,-0.112515 -5.59858,-0.264433 -8.04333,-0.337595 -2.44475,-0.07316 -7.10688,-0.0286 -10.36028,0.09902 -3.2534,0.127623 -7.6349,0.375444 -9.73667,0.550713 -2.10176,0.17527 -5.43251,0.507464 -7.40166,0.73821 -1.96914,0.230745 -5.11239,0.657204 -6.985,0.947687 -1.8726,0.290483 -5.16685,0.867776 -7.32056,1.282874 -2.15371,0.415097 -5.86551,1.226555 -8.24848,1.803239 -2.38296,0.576683 -6.12006,1.571104 -8.3047,2.209823 -2.18463,0.638719 -5.75943,1.770723 -7.94402,2.515565 -2.18459,0.744843 -4.49584,1.542237 -5.13613,1.771989 -0.64029,0.229751 -2.52932,0.959019 -4.19785,1.620596 -1.66852,0.661577 -4.6689,1.921125 -6.6675,2.798995 -1.9986,0.877873 -5.81119,2.687054 -8.47241,4.020403 -2.66123,1.333348 -6.04261,3.097577 -7.51417,3.920507 -1.47156,0.822929 -3.69796,2.101603 -4.94756,2.841496 -1.24959,0.739892 -3.05934,1.837714 -4.02166,2.439603 -0.96233,0.601888 -3.17843,2.045904 -4.92468,3.208923 -1.74625,1.163022 -4.36563,2.976451 -5.82084,4.029846 -1.45521,1.053393 -3.93171,2.913496 -5.50333,4.13356 -1.57163,1.220065 -4.0005,3.176465 -5.3975,4.347565 -1.397,1.17109 -3.44488,2.93576 -4.55083,3.92148 -1.10596,0.985721 -3.56787,3.268851 -5.47092,5.073621 -1.90304,1.80478 -5.05551,5.00055 -7.00548,7.10171 -1.95006,2.10118 -4.20594,4.58232 -5.01315,5.51365 -0.80721,0.93133 -2.39353,2.81753 -3.52515,4.19154 -1.13162,1.37401 -3.28348,4.13626 -4.78192,6.13833 -1.49844,2.00207 -3.57246,4.87838 -4.60893,6.3918 -1.03647,1.51341 -2.70296,4.03754 -3.7033,5.60916 -1.00033,1.57163 -2.65635,4.28625 -3.68004,6.0325 -1.02368,1.74625 -3.07781,5.55625 -4.56473,8.46667 -1.48692,2.91042 -3.4131,6.91092 -4.2804,8.89 -0.8673,1.97908 -2.11654,4.96187 -2.77611,6.62842 -0.65956,1.66655 -1.72328,4.52405 -2.36383,6.35 -0.64054,1.82595 -1.62462,4.84391 -2.18683,6.70658 -0.56221,1.86267 -1.45898,5.10117 -1.99282,7.19667 -0.53385,2.0955 -1.30043,5.38162 -1.70351,7.3025 -0.40308,1.92087 -0.97397,4.96887 -1.26865,6.77333 -0.29467,1.80446 -0.68448,4.4392 -0.86624,5.85498 -0.18176,1.41578 -0.46872,4.0141 -0.63769,5.77407 -0.16897,1.75994 -0.41749,5.36408 -0.55228,8.00919 -0.14433,2.83225 -0.19237,7.15861 -0.11687,10.52426 0.0705,3.14325 0.27536,7.47712 0.45522,9.63083 0.17986,2.15371 0.51825,5.48746 0.75197,7.40834 0.23373,1.92087 0.71134,5.207 1.06135,7.3025 0.35001,2.0955 1.0229,5.56647 1.49531,7.71326 0.47241,2.14678 1.36675,5.71866 1.98742,7.9375 0.62067,2.21883 1.55579,5.32011 2.07804,6.89174 0.52226,1.57162 1.44539,4.191 2.05141,5.82083 0.60603,1.62983 1.81322,4.63021 2.68265,6.6675 0.86943,2.03729 2.47175,5.51392 3.56071,7.72583 1.08896,2.21192 2.61859,5.16467 3.39918,6.56167 0.78058,1.397 2.13456,3.73062 3.00885,5.18583 0.87428,1.45521 2.63649,4.21746 3.91601,6.13834 1.27953,1.92087 3.53908,5.11175 5.02124,7.09083 1.48215,1.97908 3.80721,4.93183 5.16678,6.56167 1.35957,1.62983 3.99915,4.60957 5.86572,6.62161 1.86658,2.01206 4.98092,5.14436 6.92076,6.96068 1.93984,1.81629 4.94345,4.48915 6.67469,5.93968 1.73125,1.45051 4.684,3.78794 6.56167,5.1943 1.87768,1.40633 5.17608,3.72093 7.32979,5.14354 2.15371,1.42261 5.52,3.50533 7.48066,4.62824 1.96065,1.12289 5.27908,2.89977 7.37428,3.9486 2.0952,1.04883 5.44403,2.60638 7.44184,3.46124 1.99781,0.85483 5.34689,2.1718 7.44239,2.92661 2.0955,0.75478 5.28637,1.80918 7.09083,2.3431 1.80446,0.53393 4.61433,1.30195 6.24417,1.70672 1.62983,0.40474 4.4397,1.02122 6.24416,1.36994 1.80446,0.34873 4.56671,0.82409 6.13834,1.05637 1.57162,0.23226 3.90525,0.53164 5.18583,0.66527 1.28058,0.1336 3.32846,0.32311 4.55083,0.42111 1.22238,0.098 5.79438,0.14584 10.16,0.10632 z m 151.73042,-8.36909 c 0.0772,-0.005 0.45284,-0.43294 0.83466,-0.95199 0.38183,-0.51905 1.86823,-2.68228 3.30312,-4.80716 1.43487,-2.12488 3.41698,-5.19693 4.40466,-6.82676 0.9877,-1.62983 2.22777,-3.72533 2.75571,-4.65667 0.52794,-0.93133 1.69869,-3.07446 2.60166,-4.7625 0.90297,-1.68804 2.44953,-4.78366 3.43681,-6.87916 0.98727,-2.0955 2.41217,-5.28638 3.16647,-7.09084 0.75427,-1.80446 1.92267,-4.75721 2.59645,-6.56166 0.67378,-1.80446 1.65919,-4.61434 2.18984,-6.24417 0.53065,-1.62983 1.43681,-4.63021 2.01371,-6.6675 0.5769,-2.03729 1.43305,-5.37104 1.90257,-7.40833 0.46952,-2.0373 0.91573,-4.0436 0.99161,-4.45845 l 0.13795,-0.75429 -11.23699,-2.27876 c -6.18032,-1.25334 -11.34478,-2.24284 -11.47652,-2.19894 -0.13176,0.0439 -0.55628,1.49807 -0.94342,3.23143 -0.38712,1.73336 -1.09438,4.58631 -1.57171,6.33988 -0.47731,1.75355 -1.397,4.80754 -2.04377,6.78663 -0.64677,1.97908 -1.79142,5.20357 -2.54366,7.16553 -0.75223,1.96196 -1.966,4.91471 -2.69725,6.56166 -0.73124,1.64696 -2.19777,4.72853 -3.25899,6.84795 -1.06119,2.11942 -2.83127,5.42019 -3.93348,7.33505 -1.10221,1.91484 -2.35816,4.03841 -2.79098,4.719 -0.43283,0.68062 -1.63976,2.52335 -2.68204,4.09497 -1.04231,1.57163 -2.37304,3.5062 -2.95716,4.29906 -0.59258,0.80431 -0.97883,1.51686 -0.87378,1.61195 0.10356,0.0937 3.56965,2.63059 7.70245,5.6375 4.13279,3.00692 8.26061,6.02012 9.17291,6.69597 0.9123,0.67588 1.72193,1.22513 1.79917,1.2206 z M 38.14924,325.71727 c 0.0858,0 4.77354,-2.14861 10.41714,-4.77468 5.6436,-2.62606 10.33747,-4.85032 10.43082,-4.94281 0.0934,-0.0925 -0.41731,-1.49194 -1.1348,-3.10992 -0.7175,-1.61796 -2.04723,-4.79914 -2.95497,-7.06926 -0.90774,-2.27013 -2.2391,-5.79438 -2.95859,-7.83167 -0.71948,-2.03729 -1.96783,-5.89491 -2.77409,-8.5725 -0.80627,-2.67758 -1.98362,-6.96383 -2.61633,-9.525 -0.63271,-2.56116 -1.48233,-6.32354 -1.88804,-8.36083 -0.40571,-2.03729 -0.98064,-5.18054 -1.27761,-6.985 -0.29697,-1.80446 -0.78136,-5.17978 -1.07642,-7.50075 -0.29506,-2.32094 -0.56973,-4.25314 -0.61038,-4.29381 -0.0406,-0.0406 -4.06307,0.36056 -8.93871,0.89159 -4.87563,0.53101 -10.03698,1.09541 -11.46966,1.25423 -1.43268,0.15881 -2.64858,0.33246 -2.70201,0.38589 -0.0534,0.0534 0.14291,1.99273 0.4363,4.30957 0.2934,2.31684 0.81947,5.97457 1.16905,8.12828 0.34957,2.15371 0.97498,5.63033 1.3898,7.72583 0.41481,2.0955 1.23016,5.81025 1.81188,8.255 0.58171,2.44475 1.56842,6.25475 2.19267,8.46667 0.62425,2.21192 1.61985,5.54567 2.21244,7.40833 0.5926,1.86267 1.56472,4.76779 2.16028,6.45584 0.59557,1.68804 1.8679,5.06941 2.82742,7.51416 0.95951,2.44475 2.43434,6.01663 3.27739,7.9375 0.84306,1.92088 1.62003,3.65919 1.7266,3.86292 0.10658,0.20373 0.26399,0.37042 0.34982,0.37042 z m 170.20601,-21.43153 c 0.17143,-0.0299 2.44252,-4.55257 5.23467,-10.42437 2.71253,-5.70438 4.93369,-10.43373 4.93596,-10.50965 0.002,-0.0759 -0.27976,-0.23699 -0.62665,-0.35793 -0.34694,-0.12093 -1.65661,-0.80878 -2.91043,-1.52853 -1.25383,-0.71977 -3.13692,-1.90648 -4.18467,-2.63711 -1.04775,-0.73066 -2.80988,-2.08661 -3.91583,-3.01329 -1.10596,-0.92666 -3.12106,-2.83655 -4.47798,-4.24421 -1.35694,-1.40767 -3.31301,-3.68322 -4.34683,-5.05681 -1.03382,-1.37356 -2.4406,-3.40228 -3.12617,-4.50824 -0.68558,-1.10596 -1.83794,-3.24908 -2.5608,-4.7625 -0.72287,-1.51342 -1.65939,-3.73541 -2.08116,-4.93776 -0.42178,-1.20235 -1.05,-3.25023 -1.39605,-4.55083 -0.34606,-1.30061 -0.81223,-3.26962 -1.03595,-4.37558 -0.22372,-1.10596 -0.52491,-2.89189 -0.66931,-3.96875 -0.1444,-1.07685 -0.34043,-1.95791 -0.43562,-1.95791 -0.0952,0 -5.01085,0.57156 -10.92369,1.27012 -5.91284,0.69859 -11.06522,1.32296 -11.44974,1.38754 -0.6989,0.11735 -0.69909,0.11773 -0.56806,1.11112 0.0721,0.54655 0.37108,2.47009 0.66442,4.27455 0.29334,1.80446 0.90476,4.76064 1.3587,6.56929 0.45395,1.80864 1.26292,4.61852 1.79771,6.24416 0.53479,1.62564 1.39688,3.99256 1.91575,5.25983 0.51888,1.26725 1.65252,3.70406 2.5192,5.41514 0.86669,1.71105 2.31757,4.29526 3.22418,5.7427 0.90661,1.44742 2.46569,3.73073 3.46464,5.07405 0.99894,1.34331 2.68793,3.45779 3.75331,4.69886 1.06538,1.24106 2.94038,3.25981 4.16666,4.48608 1.22628,1.22629 3.24502,3.10128 4.48609,4.16666 1.24107,1.06538 3.33474,2.7389 4.6526,3.71892 1.31786,0.98002 3.51388,2.47652 4.88002,3.32556 1.36615,0.84901 3.57928,2.12822 4.91808,2.84266 1.33879,0.71444 2.57042,1.27525 2.73695,1.24623 z m 207.67967,-20.93104 0.76083,0.0292 0.13109,-3.03591 c 0.0721,-1.66973 0.0395,-5.43414 -0.0724,-8.36532 -0.11195,-2.93118 -0.30112,-6.44659 -0.42039,-7.81201 -0.11925,-1.36544 -0.31094,-3.33984 -0.42594,-4.38759 -0.11502,-1.04775 -0.40568,-3.28613 -0.64594,-4.97417 -0.24024,-1.68804 -0.76202,-4.83129 -1.15951,-6.985 -0.39747,-2.15371 -1.04881,-5.30508 -1.4474,-7.00303 -0.39859,-1.69797 -1.16723,-4.63262 -1.7081,-6.52147 -0.54088,-1.88883 -1.59026,-5.21448 -2.33198,-7.39028 -0.74172,-2.17583 -1.97057,-5.49434 -2.73082,-7.37449 -0.76022,-1.88013 -2.03653,-4.83288 -2.83625,-6.56167 -0.86493,-1.86975 -1.56135,-3.11949 -1.71894,-3.08463 -0.14569,0.0322 -4.87473,2.33343 -10.50895,5.1138 l -10.24404,5.05521 1.27532,2.8052 c 0.7014,1.54284 1.88535,4.34228 2.63097,6.22092 0.74562,1.87867 1.82635,4.83976 2.40164,6.58019 0.57526,1.74043 1.38616,4.40267 1.802,5.91609 0.41584,1.51341 1.04438,4.00219 1.39674,5.53061 0.35239,1.5284 0.97015,4.71928 1.3728,7.09084 0.40266,2.37153 0.92346,6.02638 1.1573,8.12188 0.23385,2.0955 0.52421,5.44938 0.64526,7.45308 0.12107,2.00368 0.2201,5.69461 0.2201,8.20208 v 4.55901 l 1.00541,0.0169 c 0.55299,0.009 5.43455,0.1866 10.84793,0.3941 5.41336,0.2075 10.18484,0.39044 10.60329,0.40651 z M 187.64085,217.96253 c 0.24347,0.0121 0.43333,-0.41995 0.71373,-1.62401 0.21012,-0.90223 0.70797,-2.76947 1.10634,-4.14941 0.39835,-1.37995 1.24907,-3.85645 1.89048,-5.50334 0.6414,-1.64689 1.82183,-4.32784 2.62317,-5.95767 0.80134,-1.62983 2.11546,-4.06856 2.92026,-5.41939 0.8048,-1.35084 2.14026,-3.44634 2.96768,-4.65667 0.82743,-1.21033 2.31234,-3.23702 3.29978,-4.50375 0.98747,-1.26672 2.84501,-3.47063 4.12787,-4.89758 1.28287,-1.42695 3.50318,-3.69482 4.93406,-5.03971 1.43087,-1.34489 3.36359,-3.07936 4.29491,-3.85437 0.93134,-0.77501 2.48065,-1.99392 3.44293,-2.70869 0.96228,-0.71476 1.71052,-1.40142 1.66274,-1.5259 -0.0478,-0.12449 -3.05962,-4.38811 -6.693,-9.47472 -3.63338,-5.08662 -6.69603,-9.24839 -6.80588,-9.24839 -0.10984,0 -1.17143,0.73575 -2.35909,1.63499 -1.18765,0.89925 -3.30237,2.58941 -4.69937,3.75591 -1.397,1.16651 -4.23145,3.77956 -6.29881,5.8068 -2.06735,2.02724 -4.81715,4.90382 -6.11068,6.3924 -1.29352,1.48859 -3.15331,3.73572 -4.13284,4.99363 -0.97956,1.25791 -2.67191,3.57298 -3.76079,5.14461 -1.08887,1.57162 -2.80699,4.23862 -3.81801,5.92666 -1.01105,1.68804 -2.77618,4.97417 -3.92252,7.3025 -1.14635,2.32834 -2.60647,5.56684 -3.24472,7.19667 -0.63826,1.62983 -1.63338,4.43971 -2.21139,6.24417 -0.57801,1.80445 -1.36884,4.58701 -1.7574,6.18346 -0.38856,1.59644 -0.66328,2.94504 -0.61049,2.99688 0.0528,0.0518 5.04899,1.19096 11.10265,2.53138 6.05367,1.34042 11.15594,2.44452 11.33839,2.45354 z m 182.07826,-16.50137 c 0.0907,0.004 4.32934,-2.95473 9.41916,-6.57557 5.0898,-3.62084 9.3313,-6.65546 9.42554,-6.7436 0.0942,-0.0881 -0.70697,-1.34045 -1.78046,-2.78291 -1.07351,-1.44246 -2.52658,-3.33702 -3.22905,-4.21015 -0.70249,-0.87312 -2.37345,-2.87337 -3.71328,-4.445 -1.33981,-1.57162 -4.29772,-4.75001 -6.57314,-7.06307 -2.27539,-2.31307 -5.44019,-5.37187 -7.03285,-6.79734 -1.59269,-1.42547 -3.87869,-3.39837 -5.08,-4.38423 -1.20134,-0.98585 -3.42248,-2.72678 -4.9359,-3.86873 -1.51342,-1.14196 -4.65667,-3.33839 -6.985,-4.88097 -2.32833,-1.54258 -5.75733,-3.6792 -7.62,-4.74803 -1.86267,-1.06883 -4.9943,-2.74972 -6.9592,-3.73531 -1.96488,-0.98559 -3.59361,-1.7645 -3.61937,-1.7309 -0.0258,0.0336 -2.20432,4.74484 -4.84122,10.46943 -2.6369,5.72458 -4.79438,10.49902 -4.79438,10.60986 0,0.11083 0.80859,0.58951 1.79688,1.06372 0.98827,0.47421 3.20284,1.64008 4.92125,2.59081 1.7184,0.95074 4.41025,2.53728 5.98187,3.52565 1.57163,0.98837 4.191,2.75323 5.82084,3.92191 1.62983,1.16868 4.07324,3.01489 5.42982,4.10268 1.35657,1.08779 3.78544,3.15513 5.3975,4.59408 1.61205,1.43895 4.44176,4.17295 6.28823,6.07557 1.84648,1.90261 4.57869,4.92243 6.0716,6.71071 1.4929,1.78828 3.55403,4.38591 4.58027,5.77252 1.02625,1.3866 1.94014,2.52459 2.03089,2.52887 z M 240.10476,157.95842 c 0.18299,-0.0744 1.54435,-0.59695 3.02525,-1.16133 1.48088,-0.56438 3.62566,-1.3141 4.76615,-1.66604 1.14047,-0.35194 3.64358,-1.02052 5.56244,-1.48574 1.91889,-0.46521 4.86999,-1.0861 6.55803,-1.37973 1.68804,-0.29364 4.29385,-0.67624 5.79069,-0.85023 1.49684,-0.17398 4.64009,-0.41791 6.98501,-0.54206 2.98743,-0.15816 5.5869,-0.15971 8.68531,-0.005 2.43201,0.12131 5.67051,0.36865 7.19667,0.54966 1.52613,0.18101 4.15594,0.56953 5.84399,0.86337 1.68804,0.29385 3.86854,0.72037 4.84557,0.94781 0.97702,0.22744 1.8164,0.37354 1.8653,0.32465 0.0489,-0.0489 1.3674,-5.12325 2.93008,-11.27637 1.56265,-6.15312 2.84259,-11.20763 2.84429,-11.23225 0.002,-0.0246 -0.39906,-0.15304 -0.89055,-0.28538 -0.49151,-0.13235 -2.46795,-0.55938 -4.39208,-0.94895 -1.92416,-0.38957 -4.83546,-0.90049 -6.46961,-1.13538 -1.63413,-0.23489 -4.49163,-0.59152 -6.35,-0.7925 -2.55323,-0.27613 -5.31834,-0.36859 -11.31634,-0.37839 -5.02609,-0.008 -9.02443,0.0893 -10.90083,0.26573 -1.62983,0.15329 -4.63021,0.51364 -6.6675,0.80078 -2.03729,0.28715 -5.13292,0.80767 -6.87917,1.15671 -1.74625,0.34904 -4.98475,1.10311 -7.19666,1.67571 -2.21192,0.57259 -5.68855,1.60988 -7.72584,2.30507 -2.03729,0.6952 -4.49749,1.58616 -5.46712,1.97992 -0.96962,0.39376 -1.77924,0.76541 -1.79916,0.82589 -0.0199,0.0605 1.95719,4.94058 4.39358,10.84468 3.60371,8.73281 4.49187,10.7095 4.7625,10.59953 z"
       id="path1218" /></g></svg>
