<?xml version="1.0" encoding="UTF-8" standalone="no"?>
<!-- Created with Inkscape (http://www.inkscape.org/) -->

<svg
   width="1920"
   height="1920"
   viewBox="0 0 507.99999 508"
   version="1.1"
   id="svg7708"
   xml:space="preserve"
   inkscape:export-filename="inspire.png"
   inkscape:export-xdpi="96"
   inkscape:export-ydpi="96"
   inkscape:version="1.2.2 (b0a8486541, 2022-12-01)"
   sodipodi:docname="inspire.svg"
   xmlns:inkscape="http://www.inkscape.org/namespaces/inkscape"
   xmlns:sodipodi="http://sodipodi.sourceforge.net/DTD/sodipodi-0.dtd"
   xmlns="http://www.w3.org/2000/svg"
   xmlns:svg="http://www.w3.org/2000/svg"><sodipodi:namedview
     id="namedview7710"
     pagecolor="#ffffff"
     bordercolor="#999999"
     borderopacity="1"
     inkscape:showpageshadow="0"
     inkscape:pageopacity="0"
     inkscape:pagecheckerboard="0"
     inkscape:deskcolor="#d1d1d1"
     inkscape:document-units="px"
     showgrid="false"
     inkscape:zoom="0.088862584"
     inkscape:cx="-2644.5326"
     inkscape:cy="-298.21325"
     inkscape:window-width="1920"
     inkscape:window-height="1011"
     inkscape:window-x="1600"
     inkscape:window-y="32"
     inkscape:window-maximized="1"
     inkscape:current-layer="layer1" /><defs
     id="defs7705" /><g
     inkscape:label="Layer 1"
     inkscape:groupmode="layer"
     id="layer1"><path
       style="fill:#ffffff;stroke-width:0.264583"
       d="M -7.4999999e-6,254 V -4.5e-6 H 254 508 V 254 508 H 254 -7.4999999e-6 Z M 281.25208,296.06875 v -120.65 h -25.92917 -25.92916 v 120.65 120.65 h 25.92916 25.92917 z M 260.48803,145.81497 c 11.02614,-2.27576 19.19721,-11.20702 20.4992,-22.40638 l 0.30703,-2.64096 -0.28176,-2.50621 C 279.77676,107.2696 272.39634,98.679839 261.77129,95.867413 l -2.61192,-0.691367 -3.70416,-0.01479 -3.70417,-0.01479 -2.32154,0.577495 c -4.84012,1.204008 -8.7637,3.376986 -12.22831,6.772349 -4.44811,4.3592 -7.08634,9.98574 -7.66412,16.34517 l -0.18424,2.02795 0.31049,2.60226 c 1.32759,11.12682 9.44215,20.02335 20.36793,22.33071 l 2.24896,0.47494 2.91041,0.0151 2.91042,0.0151 2.38699,-0.49266 z"
       id="path8335" /></g></svg>
