<?xml version="1.0" encoding="UTF-8" standalone="no"?>
<!-- Created with Inkscape (http://www.inkscape.org/) -->

<svg
   width="1920mm"
   height="1920mm"
   viewBox="0 0 1920 1920"
   version="1.1"
   id="svg5"
   xml:space="preserve"
   inkscape:version="1.2.2 (b0a8486541, 2022-12-01)"
   sodipodi:docname="inspire.svg"
   xmlns:inkscape="http://www.inkscape.org/namespaces/inkscape"
   xmlns:sodipodi="http://sodipodi.sourceforge.net/DTD/sodipodi-0.dtd"
   xmlns="http://www.w3.org/2000/svg"
   xmlns:svg="http://www.w3.org/2000/svg"><sodipodi:namedview
     id="namedview7"
     pagecolor="#ffffff"
     bordercolor="#999999"
     borderopacity="1"
     inkscape:showpageshadow="0"
     inkscape:pageopacity="0"
     inkscape:pagecheckerboard="0"
     inkscape:deskcolor="#d1d1d1"
     inkscape:document-units="px"
     showgrid="false"
     inkscape:zoom="0.031417668"
     inkscape:cx="-795.73061"
     inkscape:cy="588.84065"
     inkscape:window-width="1600"
     inkscape:window-height="863"
     inkscape:window-x="0"
     inkscape:window-y="78"
     inkscape:window-maximized="1"
     inkscape:current-layer="layer1" /><defs
     id="defs2" /><g
     inkscape:label="Layer 1"
     inkscape:groupmode="layer"
     id="layer1"><path
       style="fill:#000000;stroke-width:40"
       d="M 62.454317,1850.8015 C 5.3830168,1787.7385 -3.7451832,1664.4923 -3.7451832,957.00093 c 0,-744.2336 6.8115,-826.81528 73.1496002,-886.850421 C 176.29932,-26.58802 1757.0399,-29.54958 1853.3976,66.808149 c 93.7968,93.796771 93.7968,1700.489051 0,1794.285751 -53.1084,53.1085 -191.7307,62.8572 -893.80048,62.8572 -754.2047,0 -837.0569,-6.7554 -897.142803,-73.1496 z M 1036.2548,1123.9511 c 0,-413.33338 -4.8485,-440.00006 -79.99998,-440.00006 -75.1515,0 -80,26.66668 -80,440.00006 0,413.3333 4.8485,440 80,440 75.15148,0 79.99998,-26.6667 79.99998,-440 z m -13.4333,-622.68875 c 33.3384,-86.87849 -51.29738,-168.5806 -111.87798,-108.00003 -51.2014,51.20134 -19.4821,170.68871 45.3113,170.68871 23.3809,0 53.33598,-28.20992 66.56668,-62.68868 z"
       id="path1658" /></g></svg>
