<?xml version="1.0" encoding="UTF-8" standalone="no"?>
<!-- Created with Inkscape (http://www.inkscape.org/) -->

<svg
   width="640mm"
   height="640mm"
   viewBox="0 0 640 640"
   version="1.1"
   id="svg5"
   xml:space="preserve"
   inkscape:version="1.2.2 (b0a8486541, 2022-12-01)"
   sodipodi:docname="person-chalkboard-solid.svg"
   xmlns:inkscape="http://www.inkscape.org/namespaces/inkscape"
   xmlns:sodipodi="http://sodipodi.sourceforge.net/DTD/sodipodi-0.dtd"
   xmlns="http://www.w3.org/2000/svg"
   xmlns:svg="http://www.w3.org/2000/svg"><sodipodi:namedview
     id="namedview7"
     pagecolor="#ffffff"
     bordercolor="#999999"
     borderopacity="1"
     inkscape:showpageshadow="0"
     inkscape:pageopacity="0"
     inkscape:pagecheckerboard="0"
     inkscape:deskcolor="#d1d1d1"
     inkscape:document-units="mm"
     showgrid="false"
     inkscape:zoom="0.23748292"
     inkscape:cx="1048.4964"
     inkscape:cy="1206.4025"
     inkscape:window-width="1920"
     inkscape:window-height="931"
     inkscape:window-x="1080"
     inkscape:window-y="544"
     inkscape:window-maximized="1"
     inkscape:current-layer="layer1" /><defs
     id="defs2" /><g
     inkscape:label="Layer 1"
     inkscape:groupmode="layer"
     id="layer1"><path
       style="fill:#ffffff;stroke-width:0.323218"
       d="M 303.20605,639.65447 C 237.82868,636.05499 176.26574,613.18737 124.148,573.14313 110.46691,562.63138 94.11617,547.49172 82.560256,534.63574 46.479062,494.49531 21.331147,446.75176 8.755677,394.51706 0.84324244,361.65121 -1.7746643,326.29692 1.1804811,292.21589 3.528996,265.13114 9.592716,237.41833 18.684621,212.21734 33.018376,172.48694 53.933184,137.41383 82.096934,105.87796 87.116104,100.25784 99.601461,87.758109 105.40184,82.546213 157.5952,35.648278 222.79219,7.247118 292.21693,1.1656975 c 13.27713,-1.16304095 31.00565,-1.49446941 43.79489,-0.8187317 73.98801,3.9092647 142.9041,32.3420222 198.11847,81.7379072 5.41676,4.845958 17.40085,16.755242 22.4767,22.336447 47.54945,52.28332 76.55821,119.02064 82.40158,189.57231 1.00977,12.19215 1.28782,30.15684 0.65029,42.01945 -1.70477,31.72199 -7.73773,62.10731 -18.1079,91.20138 -19.24193,53.98415 -52.42559,101.667 -96.29999,138.37703 -50.03383,41.86371 -112.3353,67.58646 -177.442,73.26151 -12.99339,1.13256 -32.29115,1.47934 -44.60292,0.80147 z M 201.71827,503.54739 c 0.79995,-0.18605 2.68255,-0.92131 4.18356,-1.63391 2.19163,-1.04046 3.24789,-1.81442 5.36307,-3.92972 2.16095,-2.16105 2.9026,-3.18427 4.13,-5.6977 2.62743,-5.38047 2.48385,-2.32665 2.48385,-52.82688 v -44.7805 h 5.17134 5.17136 l 0.006,44.20122 c 0.004,27.63919 0.12715,45.03663 0.32866,46.43083 0.92688,6.41262 4.31203,11.85934 9.54671,15.36073 3.44291,2.30286 6.79922,3.32807 10.96524,3.3494 6.07547,0.031 10.25554,-1.73463 14.71022,-6.21377 3.14798,-3.1653 4.76195,-5.98803 5.81591,-10.17171 0.63641,-2.52624 0.64409,-3.74801 0.64409,-102.5351 v -99.97841 l 46.13815,-0.094 c 51.56033,-0.105 47.37754,0.0884 52.44075,-2.42465 3.21079,-1.59362 7.12195,-5.44422 8.78574,-8.64967 1.99927,-3.85185 2.66961,-6.56858 2.67174,-10.82809 0.003,-4.27611 -0.53511,-6.69544 -2.26098,-10.18163 -2.80656,-5.66906 -7.65742,-9.64164 -13.64251,-11.17246 -2.01389,-0.51509 -3.57505,-0.6253 -8.8573,-0.6253 h -6.41247 v -21.9794 -21.9794 H 411.96575 474.83 v 65.77658 65.77659 H 411.97005 349.1101 l -0.0851,-10.9089 -0.0851,-10.90888 -20.94414,-0.0832 -20.94411,-0.0832 0.11811,19.47675 c 0.11382,18.76967 0.14332,19.56477 0.81262,21.90096 1.71321,5.98001 4.16888,10.4012 8.10053,14.58417 3.15122,3.35263 6.92418,5.99 10.87166,7.59944 5.86552,2.39149 -1.39823,2.18935 82.91032,2.30719 52.01753,0.0727 76.73323,-0.003 78.79117,-0.23715 10.57454,-1.20983 19.64471,-7.73959 24.48554,-17.62751 2.08402,-4.25682 2.93414,-7.20426 3.39674,-11.77698 0.23841,-2.35635 0.30983,-27.90835 0.23051,-82.44354 -0.1264,-86.91381 0.0418,-79.85515 -2.04106,-85.65693 -1.66832,-4.64706 -3.67636,-7.94235 -7.01426,-11.51079 -3.82952,-4.09399 -8.57045,-7.06228 -13.97578,-8.75024 l -2.90888,-0.90838 H 411.96572 333.1026 l -2.58567,0.74904 c -11.76896,3.40933 -20.59369,13.28438 -22.944,25.67484 -0.4135,2.17992 -0.48869,7.06996 -0.48869,31.78298 v 29.20666 l -50.66309,0.11527 c -54.86451,0.12482 -51.07452,0.005 -58.25851,1.84047 -14.41759,3.68345 -27.86367,13.36812 -36.30646,26.15006 -1.8746,2.83806 -39.93683,68.81919 -41.56833,72.05899 -1.96486,3.90179 -2.52905,10.32395 -1.32172,15.04486 2.43891,9.53657 10.86232,16.35155 20.21078,16.35155 6.23546,0 12.73099,-3.31492 16.45658,-8.39844 0.72597,-0.99059 5.53783,-9.16457 10.69302,-18.16442 l 9.37307,-16.3634 0.1671,78.27579 c 0.18739,87.78462 -0.082,79.1037 2.62371,84.57469 1.05872,2.14083 1.93462,3.32135 3.98766,5.37448 3.56452,3.5647 6.77003,5.12889 12.4525,6.0764 1.12577,0.18773 5.04242,-0.1099 6.78739,-0.51578 z m 28.87184,-285.30985 c 11.93236,-3.17615 20.95605,-13.05105 23.37078,-25.57541 0.66644,-3.45663 0.58984,-9.83245 -0.16126,-13.4209 -2.67714,-12.79027 -12.46177,-22.69722 -24.90788,-25.21925 -3.69272,-0.74828 -10.45591,-0.50951 -13.92189,0.49152 -11.67126,3.37081 -20.6674,13.58838 -22.81772,25.91572 -0.75279,4.31557 -0.47099,10.68315 0.65303,14.75616 3.29633,11.94453 12.45894,20.83377 24.09254,23.37371 3.67556,0.80249 10.03021,0.65324 13.6924,-0.32155 z"
       id="path340" /></g></svg>
