<?xml version="1.0" encoding="UTF-8" standalone="no"?>
<svg
   width="200"
   height="200"
   version="1.1"
   id="svg6"
   sodipodi:docname="us.svg"
   inkscape:export-filename="us.png"
   inkscape:export-xdpi="600"
   inkscape:export-ydpi="600"
   xml:space="preserve"
   inkscape:version="1.2.2 (b0a8486541, 2022-12-01)"
   xmlns:inkscape="http://www.inkscape.org/namespaces/inkscape"
   xmlns:sodipodi="http://sodipodi.sourceforge.net/DTD/sodipodi-0.dtd"
   xmlns="http://www.w3.org/2000/svg"
   xmlns:svg="http://www.w3.org/2000/svg"><defs
     id="defs10" /><sodipodi:namedview
     id="namedview8"
     pagecolor="#ffffff"
     bordercolor="#999999"
     borderopacity="1"
     inkscape:showpageshadow="0"
     inkscape:pageopacity="0"
     inkscape:pagecheckerboard="0"
     inkscape:deskcolor="#d1d1d1"
     showgrid="false"
     inkscape:zoom="2.8213561"
     inkscape:cx="112.00288"
     inkscape:cy="77.090588"
     inkscape:window-width="1920"
     inkscape:window-height="1011"
     inkscape:window-x="1600"
     inkscape:window-y="32"
     inkscape:window-maximized="1"
     inkscape:current-layer="svg6" /><path
     style="fill:#ffffff;stroke-width:0.16"
     d="m 95.706476,199.88048 c -6.06038,-0.31095 -12.08751,-1.11261 -17.44,-2.31967 -25.28159,-5.70132 -46.97434,-20.57772 -61.44271,-42.13598 -2.94521,-4.38844 -6.74405,-11.39726 -8.71553,-16.08 -9.33706,-22.1779 -10.594,-45.797936 -3.65695,-68.719997 2.66853,-8.817597 7.25208,-18.44363 12.53259,-26.32 10.74714,-16.030352 25.95267,-28.626217 43.73546,-36.229315 27.08106,-11.578609 57.641554,-10.670592 83.947144,2.494247 9.8722,4.940621 17.72469,10.545894 25.49317,18.197583 12.43829,12.251291 21.35614,27.325563 26.08782,44.097485 8.28824,29.378507 2.68941,60.891047 -15.23701,85.759997 -4.93803,6.85045 -11.58555,13.844 -18.26398,19.21472 -5.57928,4.48682 -10.71087,7.80446 -17.2,11.12005 -12.74819,6.51363 -25.8536,10.05139 -40.24,10.86269 -2.54204,0.14334 -7.369944,0.17262 -9.600004,0.0582 z m -31.90324,-50.13612 c 4.42244,-0.34394 7.94585,-1.01777 11.42324,-2.1846 7.08279,-2.37661 13.06256,-7.09905 16.784,-13.25493 2.07527,-3.43285 3.71327,-8.02333 4.48173,-12.56 0.6435,-3.79892 0.6735,-5.66021 0.62289,-38.639997 l -0.0486,-31.68 h -6 -6 l -0.0886,33.44 c -0.0884,33.360947 -0.0895,33.444157 -0.43188,35.199997 -0.9187,4.71072 -2.32055,8.0216 -4.77726,11.28292 -4.1111,5.45753 -10.24778,7.88321 -19.90222,7.86686 -8.70076,-0.0147 -14.72301,-2.07919 -19.06595,-6.5359 -3.0879,-3.16879 -4.88766,-7.07634 -5.92031,-12.85388 -0.13524,-0.75666 -0.21147,-10.21572 -0.27981,-34.719997 l -0.0939,-33.68 h -6.08 -6.08 l -0.0486,31.68 c -0.0506,32.993197 -0.0228,34.715457 0.62563,38.718647 1.59079,9.82105 6.72072,17.98925 14.22925,22.65673 4.66086,2.89731 10.79344,4.73409 17.51374,5.24557 2.55774,0.19466 6.76277,0.20322 9.13676,0.0186 z m 86.303244,-0.22878 c 6.9104,-0.87624 12.01234,-2.64205 16.78814,-5.81048 2.2293,-1.479 5.00274,-4.11165 6.40624,-6.08107 1.07719,-1.51153 2.50087,-4.28966 3.05383,-5.9592 1.12576,-3.39899 1.6175,-7.78651 1.29635,-11.5664 -0.43435,-5.11196 -1.92877,-9.15663 -4.62349,-12.5136 -0.84784,-1.0562 -3.2287,-3.35617 -4.35502,-4.20708 -3.32648,-2.51303 -9.17468,-5.605683 -14.72605,-7.787448 -1.716,-0.674411 -4.056,-1.592637 -5.2,-2.040503 -14.44065,-5.653379 -18.64293,-9.808132 -18.65599,-18.444966 -0.003,-2.28499 0.24599,-3.791102 0.89064,-5.377594 2.61468,-6.434761 9.71452,-9.493897 20.42098,-8.798867 5.80529,0.376863 11.54448,1.701058 17.87791,4.124947 1.26145,0.482773 2.32161,0.84969 2.35593,0.815372 0.17674,-0.176727 3.74384,-10.245228 3.67131,-10.362591 -0.27473,-0.444531 -6.85968,-2.692038 -10.5466,-3.599664 -7.68874,-1.892768 -17.18673,-2.361129 -24.09418,-1.188126 -10.96159,1.861467 -19.01738,7.883133 -21.82354,16.313006 -2.04168,6.133359 -1.44802,14.516408 1.44695,20.431987 2.33337,4.768016 7.17824,9.077346 14.29659,12.716287 2.48662,1.27118 4.57158,2.15177 9.2,3.88567 8.52424,3.19335 13.25464,5.55086 16.7665,8.35601 2.17038,1.73363 3.70894,4.1214 4.46118,6.92356 0.31806,1.18483 0.36418,1.73096 0.3579,4.24 -0.007,2.66081 -0.04,2.98725 -0.43835,4.2892 -0.77837,2.54402 -1.79512,4.19021 -3.72741,6.03496 -2.70004,2.57774 -6.15587,4.1324 -10.84879,4.8805 -4.89113,0.77969 -12.15446,0.5514 -18.49103,-0.58119 -3.96258,-0.70826 -10.32134,-2.53891 -13.91331,-4.00556 -0.83232,-0.33985 -1.53521,-0.61791 -1.56197,-0.61791 -0.0268,0 -0.0298,2.63365 -0.007,5.85256 l 0.042,5.85256 1.04068,0.44391 c 4.97417,2.12178 12.23331,3.54881 20.71932,4.07309 2.27483,0.14054 10.00369,-0.0484 11.92,-0.29137 z"
     id="path345" /></svg>
